<?xml version="1.0" encoding="utf-8"?>
<!-- Generator: Adobe Illustrator 22.0.0, SVG Export Plug-In . SVG Version: 6.00 Build 0)  -->
<svg version="1.1" id="Layer_1" xmlns="http://www.w3.org/2000/svg" xmlns:xlink="http://www.w3.org/1999/xlink" x="0px" y="0px"
	 viewBox="0 0 311 254.7" style="enable-background:new 0 0 311 254.7;" xml:space="preserve">
<style type="text/css">
	.st0{clip-path:url(#SVGID_2_);fill:#778FBB;}
	.st1{clip-path:url(#SVGID_2_);fill:#879EC4;}
	.st2{clip-path:url(#SVGID_4_);fill:url(#SVGID_5_);}
	.st3{clip-path:url(#SVGID_7_);fill:#778FBB;}
</style>
<g>
	<defs>
		<rect id="SVGID_1_" x="-152" y="-439.8" width="612" height="792"/>
	</defs>
	<clipPath id="SVGID_2_">
		<use xlink:href="#SVGID_1_"  style="overflow:visible;"/>
	</clipPath>
	<path class="st0" d="M-121.1-184.7c-0.7-0.5-1.4-0.7-2-0.8v-1.1"/>
	<path class="st0" d="M422.6-147.2v1.1"/>
	<path class="st0" d="M37.4,116.4v1.1c-0.7,0.2-1.5,0.6-2.3,1.3c-0.8,0.7-1.6,1.9-2.2,3.7l-13.5,34.7h-0.2h-0.2h-0.2h-0.2l-14-36
		c-0.6-1.5-1.2-2.4-1.9-2.9c-0.7-0.5-1.4-0.7-2-0.8v-1.1c0.8,0,1.7,0.1,2.8,0.1c1.1,0,2.2,0.1,3.3,0.1c1.5,0,2.9,0,4.2-0.1
		c1.3,0,2.3-0.1,3.1-0.1v1.1c-1.9,0.1-3.2,0.4-3.7,1c-0.5,0.6-0.4,1.9,0.3,3.8l10.6,28.2l-0.9,1l10-25.9c0.8-2.1,1.2-3.7,1.1-4.8
		c0-1.2-0.5-2-1.3-2.5c-0.8-0.5-2.1-0.8-3.7-0.8v-1.1c1.1,0,2.2,0.1,3.4,0.1c1.1,0,2.2,0.1,3.2,0.1c1,0,1.8,0,2.5-0.1
		C36.2,116.5,36.8,116.5,37.4,116.4"/>
	<path class="st0" d="M57.2,115.6c3.6,0,6.8,0.8,9.5,2.5c2.7,1.6,4.8,4,6.4,7.1c1.5,3.1,2.3,6.8,2.3,11.2c0,4.3-0.8,8-2.3,11.2
		c-1.5,3.2-3.7,5.7-6.4,7.5c-2.7,1.8-5.9,2.7-9.4,2.7c-3.6,0-6.8-0.8-9.5-2.5c-2.7-1.6-4.8-4-6.4-7.1c-1.5-3.1-2.3-6.8-2.3-11.2
		c0-4.3,0.8-8,2.3-11.2c1.6-3.2,3.7-5.7,6.4-7.5C50.6,116.5,53.7,115.6,57.2,115.6 M57,116.7c-2.5,0-4.6,0.9-6.5,2.6
		s-3.3,4.1-4.3,7.1c-1,3-1.5,6.5-1.5,10.5c0,4,0.6,7.6,1.7,10.6c1.1,3,2.7,5.3,4.6,6.9c1.9,1.6,4.1,2.4,6.4,2.4
		c2.5,0,4.6-0.9,6.5-2.6c1.8-1.7,3.3-4.1,4.3-7.1c1-3,1.5-6.5,1.5-10.4c0-4.1-0.6-7.6-1.7-10.6c-1.1-3-2.6-5.3-4.6-6.9
		C61.5,117.5,59.4,116.7,57,116.7"/>
	<path class="st0" d="M115.6,116.4v1.1c-1.3,0-2.3,0.2-2.9,0.6c-0.7,0.3-1.1,0.9-1.3,1.7c-0.2,0.8-0.3,1.9-0.3,3.3v17.2
		c0,2.7-0.2,5-0.5,7c-0.3,2-1,3.7-1.8,5.2c-1,1.6-2.3,2.9-4.2,3.9c-1.8,1-3.9,1.5-6.3,1.5c-1.8,0-3.6-0.2-5.2-0.7
		c-1.7-0.4-3.1-1.2-4.4-2.4c-1.1-1.1-2-2.2-2.6-3.4c-0.6-1.2-1.1-2.6-1.3-4.3c-0.2-1.7-0.3-3.9-0.3-6.5v-18c0-1.4-0.1-2.5-0.3-3.1
		c-0.2-0.7-0.7-1.1-1.3-1.4s-1.7-0.4-2.9-0.4v-1.1c0.8,0,1.9,0.1,3.1,0.1c1.3,0,2.7,0.1,4.2,0.1c1.3,0,2.7,0,4-0.1
		c1.3,0,2.4-0.1,3.3-0.1v1.1c-1.3,0-2.3,0.2-2.9,0.4c-0.7,0.2-1.1,0.7-1.3,1.4c-0.2,0.7-0.3,1.7-0.3,3.1v19c0,2.6,0.2,5,0.6,7.2
		c0.4,2.2,1.2,3.9,2.5,5.2c1.3,1.3,3.3,1.9,6,1.9c2.9,0,5.1-0.6,6.7-1.9c1.6-1.3,2.7-3,3.3-5.3c0.6-2.3,0.9-4.8,0.9-7.6v-17.9
		c0-1.4-0.2-2.5-0.5-3.3c-0.3-0.8-0.9-1.3-1.6-1.7c-0.8-0.3-1.8-0.5-3.1-0.6v-1.1c0.7,0,1.6,0.1,2.7,0.1c1.1,0,2.2,0.1,3.1,0.1
		c1,0,2,0,2.9-0.1C114.2,116.5,115,116.5,115.6,116.4"/>
	<path class="st0" d="M152.6,115.6c2.5,0,4.6,0.4,6.2,1.1c1.6,0.7,3.1,1.6,4.3,2.6c0.8,0.6,1.3,0.6,1.7,0.2c0.4-0.4,0.7-1.5,0.8-3.1
		h1.3c-0.1,1.4-0.1,3.1-0.2,5.2c0,2-0.1,4.7-0.1,8h-1.3c-0.3-1.6-0.5-2.9-0.7-3.9c-0.2-1-0.5-1.8-0.8-2.5c-0.3-0.7-0.8-1.4-1.3-2.1
		c-1.2-1.6-2.7-2.7-4.5-3.4c-1.8-0.7-3.7-1.1-5.7-1.1c-1.9,0-3.6,0.5-5.1,1.4c-1.5,0.9-2.8,2.3-3.9,4c-1.1,1.8-1.9,3.9-2.5,6.4
		c-0.6,2.5-0.9,5.3-0.9,8.4c0,3.2,0.3,6,1,8.5c0.6,2.5,1.6,4.5,2.7,6.2c1.2,1.7,2.5,2.9,4.1,3.8c1.6,0.9,3.3,1.3,5.1,1.3
		c1.7,0,3.5-0.3,5.4-1c1.9-0.7,3.3-1.8,4.4-3.3c0.8-1.1,1.4-2.3,1.7-3.6c0.3-1.3,0.6-3.1,0.9-5.4h1.3c0,3.5,0,6.3,0.1,8.4
		c0,2.1,0.1,3.9,0.2,5.4h-1.3c-0.2-1.6-0.4-2.7-0.8-3.1c-0.4-0.4-1-0.4-1.8,0.2c-1.4,1-2.9,1.9-4.5,2.6c-1.6,0.7-3.6,1.1-6.1,1.1
		c-3.6,0-6.8-0.8-9.5-2.5c-2.7-1.6-4.8-4-6.4-7.1c-1.5-3.1-2.3-6.8-2.3-11.2c0-4.3,0.8-8,2.3-11.2c1.6-3.2,3.7-5.7,6.4-7.5
		C145.9,116.5,149.1,115.6,152.6,115.6"/>
	<path class="st0" d="M189.3,116.2l14,36c0.6,1.4,1.2,2.4,1.9,2.9c0.7,0.5,1.4,0.7,2,0.8v1.1c-0.8-0.1-1.7-0.1-2.8-0.1
		c-1.1,0-2.2,0-3.3,0c-1.5,0-2.9,0-4.2,0c-1.3,0-2.3,0.1-3.1,0.1v-1.1c1.9-0.1,3.2-0.4,3.7-1c0.5-0.6,0.4-1.9-0.3-3.8l-10.6-28.5
		l0.9-0.7l-10,25.9c-0.8,2.1-1.2,3.7-1.1,4.8c0,1.2,0.5,2,1.3,2.5c0.8,0.5,2.1,0.8,3.7,0.8v1.1c-1.1-0.1-2.2-0.1-3.4-0.1
		c-1.2,0-2.2,0-3.2,0c-1,0-1.8,0-2.4,0c-0.7,0-1.3,0.1-1.9,0.1v-1.1c0.8-0.2,1.5-0.6,2.3-1.3c0.8-0.7,1.5-1.9,2.2-3.6l13.5-34.7h0.5
		H189.3z M196.3,140.5v1.1h-17.1l0.6-1.1H196.3z"/>
	<path class="st0" d="M221.5,115.8c1.9,0,3.4,0.2,4.4,0.7c1,0.4,1.9,0.9,2.6,1.5c0.5,0.3,0.8,0.5,1.1,0.6c0.3,0.1,0.6,0.2,0.8,0.2
		c0.6,0,1-0.8,1.3-2.5h1.3c0,0.7-0.1,1.4-0.1,2.3c-0.1,0.9-0.1,2.1-0.1,3.6c0,1.5,0,3.4,0,5.8h-1.3c-0.1-1.8-0.5-3.6-1.2-5.3
		c-0.7-1.7-1.7-3.1-3-4.1c-1.3-1.1-3-1.6-5.2-1.6c-2,0-3.7,0.6-5,1.8c-1.3,1.2-2,2.8-2,4.8c0,1.7,0.4,3.2,1.3,4.3
		c0.9,1.2,2.1,2.2,3.5,3.1c1.5,0.9,3.1,1.9,4.8,3c2,1.2,3.8,2.4,5.3,3.6c1.5,1.2,2.8,2.5,3.7,4c0.9,1.5,1.3,3.2,1.3,5.3
		c0,2.4-0.6,4.5-1.7,6.1c-1.1,1.6-2.6,2.8-4.4,3.6c-1.8,0.8-3.9,1.2-6.1,1.2c-2,0-3.6-0.2-4.8-0.7c-1.2-0.5-2.2-0.9-3-1.4
		c-0.8-0.5-1.5-0.8-1.9-0.8c-0.6,0-1,0.8-1.3,2.5h-1.3c0.1-0.8,0.1-1.7,0.1-2.8c0-1.1,0-2.5,0.1-4.3c0-1.8,0-4,0-6.6h1.3
		c0.2,2.3,0.6,4.4,1.3,6.4c0.7,2,1.8,3.6,3.3,4.8c1.5,1.2,3.4,1.8,5.9,1.8c1.9,0,3.6-0.6,5.1-1.8c1.5-1.2,2.3-3.1,2.3-5.8
		c0-2.3-0.8-4.3-2.5-5.8c-1.6-1.5-3.8-3.1-6.5-4.7c-1.8-1.1-3.5-2.2-5-3.4c-1.6-1.1-2.8-2.5-3.8-4c-0.9-1.5-1.4-3.3-1.4-5.5
		c0-2.3,0.5-4.1,1.5-5.6c1-1.5,2.3-2.6,4-3.3C217.9,116.2,219.6,115.8,221.5,115.8"/>
	<path class="st0" d="M256,116.2l14,36c0.6,1.4,1.2,2.4,1.9,2.9c0.7,0.5,1.4,0.7,2,0.8v1.1c-0.8-0.1-1.7-0.1-2.8-0.1
		c-1.1,0-2.2,0-3.3,0c-1.5,0-2.9,0-4.2,0c-1.3,0-2.3,0.1-3.1,0.1v-1.1c1.9-0.1,3.2-0.4,3.7-1c0.5-0.6,0.4-1.9-0.3-3.8l-10.6-28.5
		l0.9-0.7l-10,25.9c-0.8,2.1-1.2,3.7-1.1,4.8c0,1.2,0.5,2,1.3,2.5c0.8,0.5,2.1,0.8,3.7,0.8v1.1c-1.1-0.1-2.2-0.1-3.4-0.1
		c-1.2,0-2.2,0-3.2,0c-1,0-1.8,0-2.4,0c-0.7,0-1.3,0.1-1.9,0.1v-1.1c0.8-0.2,1.5-0.6,2.3-1.3c0.8-0.7,1.5-1.9,2.2-3.6l13.5-34.7h0.5
		H256z M263,140.5v1.1h-17.1l0.6-1.1H263z"/>
	<path class="st0" d="M274.8,116.4c0.8,0,1.9,0.1,3.1,0.1c1.3,0,2.6,0.1,3.8,0.1c1.8,0,3.5,0,5.2-0.1c1.6,0,2.8-0.1,3.5-0.1
		c4.6,0,8.1,1,10.4,2.9c2.3,1.9,3.4,4.3,3.4,7.1c0,1.1-0.2,2.4-0.7,3.7c-0.5,1.3-1.2,2.5-2.4,3.7c-1.1,1.1-2.7,2.1-4.6,2.8
		c-1.9,0.7-4.4,1.1-7.4,1.1h-5.5v-1.1h4.9c2.7,0,4.8-0.4,6.2-1.3c1.4-0.9,2.4-2,2.9-3.4c0.5-1.4,0.8-3,0.8-4.8c0-3-0.7-5.4-2.1-7
		c-1.4-1.7-3.9-2.5-7.4-2.5c-1.8,0-2.9,0.3-3.4,1c-0.5,0.7-0.8,2-0.8,4v28.4c0,1.4,0.1,2.4,0.3,3.1c0.2,0.7,0.7,1.1,1.3,1.4
		c0.7,0.2,1.7,0.4,2.9,0.5v1.1c-0.9-0.1-2-0.1-3.3-0.1c-1.3,0-2.6,0-4,0c-1.5,0-2.9,0-4.2,0c-1.3,0-2.3,0.1-3.1,0.1v-1.1
		c1.3-0.1,2.3-0.2,2.9-0.5c0.7-0.2,1.1-0.7,1.3-1.4c0.2-0.7,0.3-1.7,0.3-3.1v-28.4c0-1.4-0.1-2.5-0.3-3.1c-0.2-0.7-0.7-1.1-1.3-1.4
		c-0.7-0.2-1.7-0.4-2.9-0.4V116.4z M283.9,136.8c2.1,0.1,3.7,0.2,4.9,0.3c1.2,0.1,2.1,0.2,2.9,0.3c0.7,0.1,1.5,0.2,2.1,0.3
		c2.6,0.4,4.4,1.2,5.5,2.3c1.1,1.1,2,2.9,2.5,5.2l1.4,5.8c0.4,1.7,0.8,2.9,1.2,3.6c0.4,0.7,1,1.1,1.9,1.1c0.6,0,1.2-0.2,1.6-0.6
		c0.4-0.4,0.9-0.9,1.4-1.5l0.9,0.6c-0.8,1.2-1.6,2.1-2.5,2.7c-0.9,0.6-2.1,0.9-3.6,0.9c-1.4,0-2.7-0.4-3.7-1.3
		c-1.1-0.8-1.9-2.5-2.4-4.9l-1.3-5.7c-0.3-1.6-0.7-3.1-1.2-4.3c-0.4-1.2-1.1-2.1-1.8-2.8c-0.8-0.7-1.9-1-3.5-1H284L283.9,136.8z"/>
	<path class="st0" d="M78.2,176.3v1.1c-1.3,0-2.3,0.2-2.9,0.6c-0.7,0.3-1.1,0.9-1.3,1.7c-0.2,0.8-0.3,1.9-0.3,3.3v34.2h-0.7h-0.7
		l-24-37.2v30.2c0,1.4,0.1,2.5,0.4,3.2c0.2,0.8,0.7,1.3,1.5,1.7c0.7,0.3,1.9,0.5,3.3,0.6v1.1c-0.7-0.1-1.6-0.1-2.7-0.1
		c-1.1,0-2.2,0-3.2,0c-1,0-1.9,0-2.9,0c-1,0-1.8,0.1-2.4,0.1v-1.1c1.3-0.1,2.3-0.3,2.9-0.6c0.7-0.3,1.1-0.9,1.3-1.7
		c0.2-0.8,0.3-1.9,0.3-3.2v-27.8c0-1.4-0.1-2.5-0.3-3.1c-0.2-0.7-0.7-1.1-1.3-1.4s-1.7-0.4-2.9-0.4v-1.1c0.6,0,1.5,0.1,2.4,0.1
		c1,0,1.9,0.1,2.9,0.1c0.8,0,1.6,0,2.4-0.1c0.8,0,1.5-0.1,2.1-0.1l20.2,31.1v-24.5c0-1.4-0.1-2.5-0.4-3.3c-0.2-0.8-0.7-1.3-1.5-1.7
		c-0.7-0.3-1.9-0.5-3.3-0.6v-1.1c0.7,0,1.6,0.1,2.7,0.1c1.1,0,2.2,0.1,3.1,0.1c1,0,2,0,2.9-0.1C76.8,176.4,77.6,176.3,78.2,176.3"/>
	<path class="st0" d="M98.4,176l14,36c0.6,1.4,1.2,2.4,1.9,2.9c0.7,0.5,1.4,0.7,2,0.8v1.1c-0.8-0.1-1.7-0.1-2.8-0.1
		c-1.1,0-2.2,0-3.3,0c-1.5,0-2.9,0-4.2,0c-1.3,0-2.3,0.1-3.1,0.1v-1.1c1.9-0.1,3.2-0.4,3.7-1c0.5-0.6,0.4-1.9-0.3-3.8l-10.6-28.5
		l0.9-0.7l-10,25.9c-0.8,2.1-1.2,3.7-1.1,4.8c0,1.2,0.5,2,1.3,2.5c0.8,0.5,2.1,0.8,3.7,0.8v1.1c-1.1-0.1-2.2-0.1-3.4-0.1
		c-1.2,0-2.2,0-3.2,0c-1,0-1.8,0-2.4,0c-0.7,0-1.3,0.1-1.9,0.1v-1.1c0.8-0.2,1.5-0.6,2.3-1.3c0.8-0.7,1.5-1.9,2.2-3.6L97.5,176H98
		H98.4z M105.4,200.3v1.1H88.3l0.6-1.1H105.4z"/>
	<path class="st0" d="M147.2,176.3v1.1c-1.3,0-2.3,0.2-2.9,0.4c-0.7,0.2-1.1,0.7-1.3,1.4c-0.2,0.7-0.3,1.7-0.3,3.1v28.4
		c0,1.4,0.1,2.4,0.3,3.1c0.2,0.7,0.7,1.1,1.3,1.4c0.7,0.2,1.7,0.4,2.9,0.5v1.1c-0.9-0.1-2-0.1-3.3-0.1c-1.3,0-2.6,0-4,0
		c-1.5,0-2.9,0-4.2,0c-1.3,0-2.3,0.1-3.1,0.1v-1.1c1.3-0.1,2.3-0.2,2.9-0.5c0.7-0.2,1.1-0.7,1.3-1.4c0.2-0.7,0.3-1.7,0.3-3.1v-28.4
		c0-1.4-0.1-2.5-0.3-3.1c-0.2-0.7-0.7-1.1-1.3-1.4c-0.7-0.2-1.7-0.4-2.9-0.4v-1.1c0.8,0,1.9,0.1,3.1,0.1c1.3,0,2.7,0.1,4.2,0.1
		c1.3,0,2.7,0,4-0.1C145.3,176.4,146.4,176.3,147.2,176.3"/>
	<path class="st0" d="M166.7,176.3v1.1c-1.3,0-2.3,0.2-2.9,0.4c-0.7,0.2-1.1,0.7-1.3,1.4c-0.2,0.7-0.3,1.7-0.3,3.1v28.4
		c0,1.4,0.1,2.4,0.3,3.1c0.2,0.7,0.7,1.1,1.3,1.3c0.7,0.2,1.7,0.3,2.9,0.3h4.2c2.4,0,4.2-0.3,5.5-1s2.1-1.8,2.7-3.4
		c0.6-1.6,1-3.7,1.2-6.3h1.3c-0.1,1.2-0.2,2.7-0.2,4.7c0,0.7,0,1.8,0.1,3.1c0.1,1.4,0.2,2.8,0.3,4.2c-1.9-0.1-4.1-0.1-6.6-0.1
		c-2.4,0-4.6,0-6.5,0h-4.6c-1.9,0-3.9,0-6,0c-2.1,0-4.1,0.1-6,0.1v-1.1c1.3-0.1,2.3-0.2,2.9-0.5c0.7-0.2,1.1-0.7,1.3-1.4
		c0.2-0.7,0.3-1.7,0.3-3.1v-28.4c0-1.4-0.1-2.5-0.3-3.1c-0.2-0.7-0.7-1.1-1.3-1.4c-0.7-0.2-1.7-0.4-2.9-0.4v-1.1
		c0.8,0,1.9,0.1,3.1,0.1c1.3,0,2.7,0.1,4.2,0.1c1.3,0,2.7,0,4-0.1C164.7,176.4,165.8,176.3,166.7,176.3"/>
	<path class="st0" d="M185.7,216.8v-1.1c1.3-0.1,2.3-0.2,2.9-0.5c0.7-0.2,1.1-0.7,1.3-1.4c0.2-0.7,0.3-1.7,0.3-3.1v-28.4
		c0-1.4-0.1-2.5-0.3-3.1c-0.2-0.7-0.7-1.1-1.3-1.4c-0.7-0.2-1.7-0.4-2.9-0.4v-1.1c0.8,0,1.9,0.1,3.1,0.1c1.3,0,2.7,0.1,4.2,0.1
		c1.3,0,2.7,0,4-0.1c1.3,0,2.4-0.1,3.3-0.1v1.1c-1.3,0-2.3,0.2-2.9,0.4c-0.7,0.2-1.1,0.7-1.3,1.4c-0.2,0.7-0.3,1.7-0.3,3.1v28.4
		c0,1.4,0.1,2.4,0.3,3.1c0.2,0.7,0.7,1.1,1.3,1.4c0.7,0.2,1.7,0.4,2.9,0.5v1.1c-0.9-0.1-2-0.1-3.3-0.1c-1.3,0-2.6,0-4,0
		c-1.5,0-2.9,0-4.2,0C187.6,216.7,186.5,216.7,185.7,216.8 M193.7,195.9h22.6v1.1h-22.6V195.9z M209.6,216.8v-1.1
		c1.3-0.1,2.3-0.2,2.9-0.5c0.7-0.2,1.1-0.7,1.3-1.4c0.2-0.7,0.3-1.7,0.3-3.1v-28.4c0-1.4-0.1-2.5-0.3-3.1c-0.2-0.7-0.7-1.1-1.3-1.4
		c-0.7-0.2-1.7-0.4-2.9-0.4v-1.1c0.9,0,2,0.1,3.3,0.1c1.3,0,2.7,0.1,4,0.1c1.5,0,2.9,0,4.2-0.1c1.3,0,2.3-0.1,3.1-0.1v1.1
		c-1.3,0-2.3,0.2-2.9,0.4c-0.7,0.2-1.1,0.7-1.3,1.4c-0.2,0.7-0.3,1.7-0.3,3.1v28.4c0,1.4,0.1,2.4,0.3,3.1c0.2,0.7,0.7,1.1,1.3,1.4
		c0.7,0.2,1.7,0.4,2.9,0.5v1.1c-0.8-0.1-1.9-0.1-3.1-0.1c-1.3,0-2.7,0-4.2,0c-1.3,0-2.6,0-4,0C211.6,216.7,210.5,216.7,209.6,216.8"
		/>
	<path class="st0" d="M245.1,176l14,36c0.6,1.4,1.2,2.4,1.9,2.9c0.7,0.5,1.4,0.7,2,0.8v1.1c-0.8-0.1-1.7-0.1-2.8-0.1
		c-1.1,0-2.2,0-3.3,0c-1.5,0-2.9,0-4.2,0c-1.3,0-2.3,0.1-3.1,0.1v-1.1c1.9-0.1,3.2-0.4,3.7-1c0.5-0.6,0.4-1.9-0.3-3.8l-10.6-28.5
		l0.9-0.7l-10,25.9c-0.8,2.1-1.2,3.7-1.1,4.8c0,1.2,0.5,2,1.3,2.5c0.8,0.5,2.1,0.8,3.7,0.8v1.1c-1.1-0.1-2.2-0.1-3.4-0.1
		c-1.2,0-2.2,0-3.2,0c-1,0-1.8,0-2.4,0c-0.7,0-1.3,0.1-1.9,0.1v-1.1c0.8-0.2,1.5-0.6,2.3-1.3c0.8-0.7,1.5-1.9,2.2-3.6l13.5-34.7h0.5
		H245.1z M252.1,200.3v1.1h-17.1l0.6-1.1H252.1z"/>
	<path class="st1" d="M64,241.1c-0.4,0-0.7,0.1-0.9,0.3c-0.2,0.2-0.3,0.4-0.3,0.8c0,0.3,0,0.7,0,1.1v7.6c0,0.3,0,0.6,0,0.8
		c0,0.2,0,0.4,0,0.6c0.2,0,0.4,0,0.6,0c0.2,0,0.4,0,0.6,0v0.8h-4v-0.6c0.5,0,0.8-0.1,0.9-0.3c0.2-0.2,0.3-0.4,0.3-0.8
		c0-0.3,0-0.7,0-1.1v-7.7c0-0.2,0-0.5,0-0.7c0-0.2,0-0.4,0-0.6c-0.2,0-0.4,0-0.6,0c-0.2,0-0.4,0-0.6,0v-0.8h4V241.1z"/>
	<path class="st1" d="M71.4,253.1v-0.6c0.5,0,0.8-0.1,0.9-0.3c0.2-0.2,0.3-0.4,0.3-0.8c0-0.3,0-0.7,0-1.1v-7.7c0-0.2,0-0.5,0-0.7
		c0-0.2,0-0.4,0-0.6c-0.2,0-0.4,0-0.6,0c-0.2,0-0.4,0-0.6,0v-0.8h4v0.6c-0.4,0-0.7,0.1-0.9,0.3c-0.2,0.2-0.3,0.4-0.3,0.8
		c0,0.3,0,0.7,0,1.1v7.7c0,0.3,0,0.6,0,0.8c0,0.2,0,0.4,0,0.6l3.3-0.1c0.8,0,1.3-0.3,1.7-0.7c0.4-0.5,0.6-1.2,0.6-2.3h0.6l-0.1,3.7
		H71.4z"/>
	<path class="st1" d="M87.1,253.1v-0.6c0.5,0,0.8-0.1,0.9-0.3c0.2-0.2,0.3-0.4,0.3-0.8c0-0.3,0-0.7,0-1.1v-7.7c0-0.2,0-0.5,0-0.7
		c0-0.2,0-0.4,0-0.6c-0.2,0-0.4,0-0.6,0c-0.2,0-0.4,0-0.6,0v-0.8h4v0.6c-0.4,0-0.7,0.1-0.9,0.3c-0.2,0.2-0.3,0.4-0.3,0.8
		c0,0.3,0,0.7,0,1.1v3h6.4v-3.8c0-0.2,0-0.5,0-0.7c0-0.2,0-0.4,0-0.6c-0.2,0-0.4,0-0.6,0c-0.2,0-0.4,0-0.6,0v-0.8h4v0.6
		c-0.4,0-0.7,0.1-0.9,0.3c-0.2,0.2-0.3,0.4-0.3,0.8c0,0.3,0,0.7,0,1.1v7.6c0,0.3,0,0.6,0,0.8c0,0.2,0,0.4,0,0.6c0.2,0,0.4,0,0.6,0
		c0.2,0,0.4,0,0.6,0v0.8h-4v-0.6c0.5,0,0.8-0.1,0.9-0.3c0.2-0.2,0.3-0.4,0.3-0.8c0-0.3,0-0.7,0-1.1V247l-6.4,0.1v3.8
		c0,0.3,0,0.6,0,0.8c0,0.2,0,0.4,0,0.6c0.2,0,0.4,0,0.6,0c0.2,0,0.4,0,0.6,0v0.8H87.1z"/>
	<path class="st1" d="M105.3,253.1v-0.6c0.4,0,0.6-0.1,0.8-0.3c0.2-0.2,0.3-0.5,0.5-0.8s0.3-0.7,0.4-1.2l3.7-10h0.4l4,10.2
		c0.1,0.2,0.2,0.6,0.3,1c0.1,0.4,0.2,0.7,0.1,1c0.2,0,0.4,0,0.6,0s0.4,0,0.6,0v0.8h-4.1v-0.6c0.5,0,0.8-0.1,0.9-0.3
		c0.1-0.2,0.2-0.4,0.2-0.7c0-0.3-0.1-0.5-0.2-0.7l-0.6-1.7l-4.7,0.1l-0.6,1.9c-0.1,0.3-0.2,0.5-0.2,0.7c-0.1,0.2-0.1,0.4-0.2,0.6
		c0.2,0,0.5,0,0.7,0c0.2,0,0.5,0,0.7,0v0.8H105.3z M108.6,248.4h4.1l-1.3-3.4c-0.1-0.4-0.3-0.7-0.4-1.1c-0.1-0.4-0.3-0.7-0.4-1.1h0
		c-0.1,0.3-0.2,0.7-0.4,1c-0.1,0.3-0.3,0.7-0.4,1L108.6,248.4z"/>
	<path class="st1" d="M123,253.1v-0.6c0.5,0,0.8-0.1,0.9-0.3c0.2-0.2,0.3-0.5,0.3-0.8c0-0.3,0-0.7,0-1.2v-7.5c0-0.3,0-0.6,0-0.8
		c0-0.2,0-0.4,0-0.6c-0.2,0-0.4,0-0.6,0c-0.2,0-0.4,0-0.6,0v-0.8c0.7,0,1.3,0,2,0c0.7,0,1.4,0,2.1,0c1.4,0,2.5,0.2,3.2,0.7
		c0.8,0.5,1.2,1.3,1.1,2.3c0,0.4-0.1,0.8-0.3,1.1c-0.2,0.4-0.5,0.7-1,1c-0.4,0.3-1,0.5-1.6,0.6v0c1.3,0,2.3,0.3,3,0.9
		c0.7,0.6,1,1.4,1,2.3c0,0.7-0.2,1.4-0.6,1.9c-0.4,0.5-0.9,0.9-1.5,1.2c-0.6,0.3-1.4,0.4-2.2,0.4H123z M125.7,252.4
		c0.2,0,0.4,0,0.7,0c0.3,0,0.5,0,0.8,0h0.5c0.9,0,1.7-0.2,2.2-0.7c0.6-0.5,0.9-1.1,0.9-2c0-0.7-0.1-1.3-0.4-1.7s-0.7-0.7-1.1-0.9
		c-0.5-0.2-1-0.3-1.5-0.3c-0.4,0-0.7,0-1,0c-0.3,0-0.6,0-0.9,0v4c0,0.3,0,0.6,0,0.8C125.7,252,125.7,252.2,125.7,252.4 M125.8,246.2
		l1.3,0c0.7,0,1.2-0.2,1.6-0.4c0.4-0.3,0.7-0.6,0.9-1s0.3-0.8,0.2-1.3c0-0.6-0.2-1.1-0.4-1.5c-0.3-0.3-0.6-0.6-1-0.7
		c-0.4-0.1-0.8-0.2-1.2-0.2c-0.4,0-0.7,0.1-0.9,0.2c-0.2,0.1-0.3,0.3-0.4,0.5c-0.1,0.2-0.1,0.6-0.1,1V246.2z"/>
	<path class="st1" d="M145.5,248.4c0-0.5-0.1-0.9-0.2-1.1c-0.1-0.2-0.4-0.4-0.7-0.4c-0.3,0-0.7-0.1-1.2,0l-1.3,0.1v4.1
		c0,0.3,0,0.6,0,0.8c0,0.2,0,0.4,0,0.6l3.4-0.1c0.5,0,1-0.1,1.4-0.3c0.4-0.2,0.7-0.4,0.9-0.8c0.2-0.4,0.3-1,0.3-1.7h0.6l-0.1,3.5
		h-9.2v-0.6c0.5,0,0.8-0.1,0.9-0.3c0.2-0.2,0.3-0.4,0.3-0.8c0-0.3,0-0.7,0-1.1v-7.7c0-0.2,0-0.5,0-0.7c0-0.2,0-0.4,0-0.6
		c-0.2,0-0.4,0-0.6,0c-0.2,0-0.4,0-0.6,0v-0.8h8.6l0.1,3.1h-0.6c0-0.7-0.1-1.2-0.3-1.6c-0.2-0.4-0.5-0.6-0.9-0.7
		c-0.4-0.1-0.8-0.2-1.2-0.2l-1.5,0c-0.4,0-0.8,0.1-0.9,0.3c-0.2,0.2-0.3,0.4-0.3,0.7c0,0.3-0.1,0.7-0.1,1.2v2.9l3.4,0l-0.1-1.5h0.8
		v3.8H145.5z"/>
	<path class="st1" d="M155.8,253.1v-0.6c0.5,0,0.8-0.1,0.9-0.3c0.2-0.2,0.3-0.4,0.3-0.8c0-0.3,0-0.7,0-1.1v-7.7c0-0.2,0-0.5,0-0.7
		c0-0.2,0-0.4,0-0.6c-0.2,0-0.4,0-0.6,0c-0.2,0-0.4,0-0.6,0v-0.8h4v0.6c-0.4,0-0.7,0.1-0.9,0.3c-0.2,0.2-0.3,0.4-0.3,0.8
		c0,0.3,0,0.7,0,1.1v7.7c0,0.3,0,0.6,0,0.8c0,0.2,0,0.4,0,0.6l3.3-0.1c0.8,0,1.3-0.3,1.7-0.7c0.4-0.5,0.6-1.2,0.6-2.3h0.6l-0.1,3.7
		H155.8z"/>
	<path class="st1" d="M170.7,253.1v-0.6c0.4,0,0.6-0.1,0.8-0.3c0.2-0.2,0.3-0.5,0.5-0.8s0.3-0.7,0.4-1.2l3.7-10h0.4l4,10.2
		c0.1,0.2,0.2,0.6,0.3,1c0.1,0.4,0.2,0.7,0.1,1c0.2,0,0.4,0,0.6,0s0.4,0,0.6,0v0.8h-4.1v-0.6c0.5,0,0.8-0.1,0.9-0.3
		c0.1-0.2,0.2-0.4,0.2-0.7c0-0.3-0.1-0.5-0.2-0.7l-0.6-1.7l-4.7,0.1l-0.6,1.9c-0.1,0.3-0.2,0.5-0.2,0.7c-0.1,0.2-0.1,0.4-0.2,0.6
		c0.2,0,0.5,0,0.7,0c0.2,0,0.5,0,0.7,0v0.8H170.7z M174,248.4h4.1l-1.3-3.4c-0.1-0.4-0.3-0.7-0.4-1.1c-0.1-0.4-0.3-0.7-0.4-1.1h0
		c-0.1,0.3-0.2,0.7-0.4,1c-0.1,0.3-0.3,0.7-0.4,1L174,248.4z"/>
	<path class="st1" d="M198.3,253.1c0-0.6,0.1-1.2,0.3-1.7c0.2-0.5,0.5-0.9,0.8-1.3c0.3-0.4,0.7-0.8,1.1-1.2c0.4-0.4,0.9-0.8,1.3-1.2
		c0.8-0.7,1.3-1.4,1.7-2.1c0.3-0.6,0.5-1.2,0.5-1.8c0-0.5-0.1-0.9-0.2-1.3c-0.1-0.4-0.3-0.8-0.7-1c-0.3-0.3-0.8-0.4-1.3-0.4
		c-0.5,0-0.9,0.1-1.3,0.4c-0.4,0.2-0.6,0.5-0.8,0.9c0.1,0.1,0.2,0.2,0.3,0.4c0,0.1,0.1,0.3,0.1,0.4c0,0.1,0,0.2-0.1,0.4
		c-0.1,0.1-0.1,0.2-0.3,0.3c-0.1,0.1-0.3,0.1-0.5,0.1c-0.3,0-0.5-0.1-0.6-0.3c-0.1-0.2-0.2-0.4-0.2-0.7c0-0.3,0.1-0.5,0.2-0.8
		c0.2-0.3,0.4-0.6,0.7-0.9c0.3-0.3,0.7-0.5,1.2-0.7c0.5-0.2,1-0.3,1.6-0.3c0.5,0,0.9,0.1,1.4,0.2c0.4,0.1,0.9,0.3,1.2,0.5
		c0.4,0.3,0.6,0.6,0.9,1c0.2,0.4,0.3,0.9,0.3,1.5c0,0.3-0.1,0.6-0.2,1c-0.1,0.3-0.3,0.7-0.6,1.1c-0.3,0.4-0.6,0.8-1.1,1.3
		c-0.4,0.4-1,0.9-1.6,1.5c-0.8,0.7-1.5,1.3-2,1.9c-0.5,0.6-0.8,1.1-0.9,1.5l3.2,0.1c0.6,0,1.1,0,1.5,0c0.4,0,0.8-0.1,1.1-0.3
		c0.3-0.2,0.4-0.5,0.4-1h0.5l-0.1,2.5H198.3z"/>
	<path class="st1" d="M218,253.4c-0.9,0-1.7-0.2-2.3-0.6c-0.6-0.4-1.1-0.9-1.4-1.5c-0.3-0.6-0.6-1.3-0.7-2.1
		c-0.1-0.8-0.2-1.5-0.2-2.3c0-0.8,0.1-1.5,0.3-2.3c0.2-0.8,0.4-1.5,0.8-2.1c0.4-0.6,0.8-1.2,1.4-1.6c0.6-0.4,1.3-0.6,2.1-0.6
		c0.9,0,1.6,0.2,2.2,0.6c0.6,0.4,1,0.9,1.4,1.5c0.3,0.6,0.6,1.3,0.7,2.1c0.1,0.8,0.2,1.5,0.2,2.3c0,0.7-0.1,1.5-0.2,2.3
		c-0.2,0.8-0.4,1.5-0.8,2.1c-0.4,0.7-0.8,1.2-1.4,1.6C219.5,253.2,218.8,253.4,218,253.4 M218.1,252.7c0.5,0,0.9-0.2,1.3-0.5
		c0.3-0.3,0.6-0.8,0.8-1.3s0.3-1.1,0.4-1.8c0.1-0.6,0.1-1.3,0.1-2c0-0.7,0-1.5-0.1-2.2c-0.1-0.7-0.2-1.4-0.4-2
		c-0.2-0.6-0.5-1.1-0.8-1.5c-0.3-0.4-0.8-0.6-1.3-0.6c-0.5,0-0.9,0.2-1.3,0.5c-0.4,0.3-0.6,0.8-0.9,1.3c-0.2,0.5-0.4,1.1-0.5,1.8
		c-0.1,0.7-0.1,1.3-0.1,2c0,0.5,0,1,0.1,1.6c0,0.6,0.1,1.1,0.3,1.7c0.1,0.5,0.3,1,0.5,1.5c0.2,0.4,0.5,0.8,0.8,1.1
		C217.2,252.5,217.6,252.7,218.1,252.7"/>
	<path class="st1" d="M229.6,253.1c0-0.6,0.1-1.2,0.3-1.7c0.2-0.5,0.5-0.9,0.8-1.3c0.3-0.4,0.7-0.8,1.1-1.2c0.4-0.4,0.9-0.8,1.3-1.2
		c0.8-0.7,1.3-1.4,1.7-2.1c0.3-0.6,0.5-1.2,0.5-1.8c0-0.5-0.1-0.9-0.2-1.3c-0.1-0.4-0.3-0.8-0.7-1c-0.3-0.3-0.8-0.4-1.3-0.4
		c-0.5,0-0.9,0.1-1.3,0.4c-0.4,0.2-0.6,0.5-0.8,0.9c0.1,0.1,0.2,0.2,0.3,0.4c0,0.1,0.1,0.3,0.1,0.4c0,0.1,0,0.2-0.1,0.4
		c-0.1,0.1-0.1,0.2-0.3,0.3c-0.1,0.1-0.3,0.1-0.5,0.1c-0.3,0-0.5-0.1-0.6-0.3c-0.1-0.2-0.2-0.4-0.2-0.7c0-0.3,0.1-0.5,0.2-0.8
		c0.2-0.3,0.4-0.6,0.7-0.9c0.3-0.3,0.7-0.5,1.2-0.7c0.5-0.2,1-0.3,1.6-0.3c0.5,0,0.9,0.1,1.4,0.2c0.4,0.1,0.9,0.3,1.2,0.5
		c0.4,0.3,0.6,0.6,0.9,1c0.2,0.4,0.3,0.9,0.3,1.5c0,0.3-0.1,0.6-0.2,1c-0.1,0.3-0.3,0.7-0.6,1.1c-0.3,0.4-0.6,0.8-1.1,1.3
		c-0.4,0.4-1,0.9-1.6,1.5c-0.8,0.7-1.5,1.3-2,1.9c-0.5,0.6-0.8,1.1-0.9,1.5l3.2,0.1c0.6,0,1.1,0,1.5,0c0.4,0,0.8-0.1,1.1-0.3
		c0.3-0.2,0.4-0.5,0.4-1h0.5l-0.1,2.5H229.6z"/>
	<path class="st1" d="M249.3,253.4c-0.9,0-1.7-0.2-2.3-0.6c-0.6-0.4-1.1-0.9-1.4-1.5c-0.3-0.6-0.6-1.3-0.7-2.1
		c-0.1-0.8-0.2-1.5-0.2-2.3c0-0.8,0.1-1.5,0.3-2.3c0.2-0.8,0.4-1.5,0.8-2.1c0.4-0.6,0.8-1.2,1.4-1.6c0.6-0.4,1.3-0.6,2.1-0.6
		c0.9,0,1.6,0.2,2.2,0.6c0.6,0.4,1,0.9,1.4,1.5c0.3,0.6,0.6,1.3,0.7,2.1c0.1,0.8,0.2,1.5,0.2,2.3c0,0.7-0.1,1.5-0.2,2.3
		c-0.2,0.8-0.4,1.5-0.8,2.1c-0.4,0.7-0.8,1.2-1.4,1.6C250.8,253.2,250.1,253.4,249.3,253.4 M249.4,252.7c0.5,0,0.9-0.2,1.3-0.5
		c0.3-0.3,0.6-0.8,0.8-1.3s0.3-1.1,0.4-1.8c0.1-0.6,0.1-1.3,0.1-2c0-0.7,0-1.5-0.1-2.2c-0.1-0.7-0.2-1.4-0.4-2
		c-0.2-0.6-0.5-1.1-0.8-1.5c-0.3-0.4-0.8-0.6-1.3-0.6c-0.5,0-0.9,0.2-1.3,0.5c-0.4,0.3-0.6,0.8-0.9,1.3c-0.2,0.5-0.4,1.1-0.5,1.8
		c-0.1,0.7-0.1,1.3-0.1,2c0,0.5,0,1,0.1,1.6c0,0.6,0.1,1.1,0.3,1.7c0.1,0.5,0.3,1,0.5,1.5c0.2,0.4,0.5,0.8,0.8,1.1
		C248.5,252.5,248.9,252.7,249.4,252.7"/>
</g>
<g>
	<defs>
		<path id="SVGID_3_" d="M214.8,77.5c-3.2-2.8-13.1-8-13.8-12.2c-0.1-0.8,1-0.4,2.7-0.1c3.1,0.4,7.4,2.2,11.5,4.1
			c2.5,1.2,7.6,2.7,11.1,2.6c1.5,0,4.5,0.3,5.6,0.6c2.5,0.6,2.1-0.6,1.1-1.1c-1-0.6-6.5-4.8-4.8-4.5c1.6,0.3,13.5,10.3,15.8,11.5
			c2.3,1.2,7.3,4,6.6,5.1c-0.6,1.1-2-0.4-3.4-1.3c-2.5-1.6-9.3-6.9-11.7-7.8c-2.5-0.9-1.9,1-3.4,1.7c-1.4,0.7-3.4,2.9-4.8,3.6
			c-2.2,1.1-2.2,2-4.9,2c0,0,0,0,0,0C219.8,81.5,217,79.4,214.8,77.5 M149.3,74.4c-1.9-0.5-6.9-1.4-8.4-1.9c-1.5-0.4-0.8-0.3,0.6-1
			c1.4-0.7,3.2-1.3,6.2-2c3-0.8,9.5-1.9,13.5-2.5c10.8-1.6,22-5.5,31.9-9c2.5-0.9,5.1-2.1,6-1.9c0.9,0.2-1.2,0.9-2,1.6
			c-0.8,0.7-3.1,2.8-4.4,4.3c-3,3.4-5.9,7.7-9.6,10.6c-3.7,2.9-4.5,3.4-10.2,4.7c-1.2,0.3-2.5,0.4-4.1,0.4
			C162.8,77.8,154.6,75.9,149.3,74.4 M188.4,57.6c2.5-0.6,5.6-2.3,5.1-1.1c-0.5,1.2-7.2,2.8-11.7,4.3c-4.5,1.5-16.6,5-23,5.6
			c-5.2,0.5-13.9,2.7-17.4,4.2c-2.7,1.2-3.8,1.8-3.2,0.5c0.2-0.4,1.3-1.4,1.9-2c2.8-3.1,6-6.2,10.1-7.7c4.1-1.5,9.9-1.6,14-1.3
			c1.5,0.1,3,0.2,4.5,0.2C175.6,60.2,182.7,59.1,188.4,57.6 M56.4,62.3c-0.4-0.1-0.9-0.3-1.3-0.5c0.5-0.5,0.8-0.8,1.3-1.3
			c0.5-0.5,1-1,1.4-1.7c0.4-0.8,1.5-1.7,2.2-2.3c0.7-0.6,1.3-1.3,2.1-1.9c1.3,0.5,4.8,1.5,5.8,1.9c2.1,0.8,5.6,1.3,6.7,1.5
			c0.4,0.1,0.6,0,0.8,0c0,0,0,0,0,0c-0.1,0.1-0.4,0.2-0.9,0.6c-1.3,1.1-6.8,4-9.5,4.4c-0.8,0.1-1.7,0.2-2.6,0.2
			C60.3,63.2,58.2,62.9,56.4,62.3 M88.6,89.2c2.2-5.9,7.6-14.4,10.4-19c2.5-4.1,4.5-7.1,6.6-9.4c4.8-5.4,11.6-8.4,16.5-10.5
			c2.5-1.1,5.7-2.5,3.1,0c-2.6,2.5-7.4,7.2-10.6,10.9c-1.7,2-4.9,6-6.8,8.4c-1.9,2.4-4.3,5.2-6.2,7.4c-1.9,2.1-3.3,3.7-5,5.8
			c-1.8,2.1-3.7,4-5.7,5.8c-0.9,0.8-1.9,1.6-2.9,2.4C88.1,90.4,88.4,89.9,88.6,89.2 M116.4,44.8c1-0.2,0.9-0.2,1.4-0.6
			c0.5-0.4,0.7,0,1.1,0.2c0.3,0.2,0.5,0.4,0.7,0.6c-0.3,0-1.2,0.1-1.4,0.1c-0.1,0-0.3,0-0.5,0C116.7,45.1,115.6,45,116.4,44.8
			 M74.8,56.9c-5.1-0.3-10.8-2.7-15-5.1c-4.2-2.4-7.7-4.5-11.8-6.3c-0.9-0.4-0.9-0.3-1.7-0.6c1-0.6,1.2-0.8,2.4-1.5
			c1.2-0.7,3.2-1.9,4.6-2.5c5.3-2.3,9.6-2.3,15.1-1c0.8,0.2,2.4,0.6,3.3,0.9c-0.2,0.2-1.2,0.5-1.3,0.7c-1.1,1.3-4.8,0.8-4.9,3.2
			c-0.1,2.4,4.1,7,6,8.9c0.9,0.9,2.5,1.9,3.4,2.4c0.9,0.5,1.1,0.5,1.9,0.9c-0.4,0-0.6,0-0.9,0c-0.2,0-0.4,0-0.6,0
			C75.1,56.9,74.9,56.9,74.8,56.9 M72.6,53c-2.1-2-6.3-5.9-5.6-8.2c0.7-2.2,4.2-2.4,6.8-3.7c6.6-3.3,11.7-3.5,18.4,0.2
			c2.3,1.3,5.6,2.6,7.7,3.2c3,1,5.3,1,7.9,1.3c0.4,0-2.1,0.9-3.6,1.4c-1.4,0.5-7.5,2.7-9.5,3.7c-4.1,2.1-9.2,4.1-13.1,4.6
			c-0.7,0.1-1.3,0.1-1.9,0.1C76.7,55.6,74.3,54.6,72.6,53 M101,26.2c0.1,0,0.3,0,1.4,0c1.9,0.1,7.1,1,9.6,1.5
			c4.4,0.8,9.1,2.1,12.5,4.1c3.4,2,6,3.2,9.2,4.3c3.2,1.1,5.6,1.6,8.6,2c3,0.4,4.4,0.8,7.1,1.9c3.9,1.7,5,2,10.2,1.7
			c5.1-0.3,10.3,0.1,16.7,1.5c2.9,0.6,11.4,2.8,15,3.7c3.6,0.9,8.3,2.1,11,3c2.8,0.9,4.6,1.6,6.4,2.3s2.5,0.9,3.5,1.6
			c1,0.7,0.4,0.5,1.6,1c1.1,0.6,2.3,1.5,3.7,2.6c1.4,1.1,4.8,4,6,4.9c1.2,1,3.2,2.6,3.3,3.1c0.1,0.5-0.8-0.2-1.6-1.1
			c-2.9-3.1-12.5-8.9-15.9-9.9c-1.1-0.3-1.5-0.4-1.6-0.5c-0.1-0.1-0.2-0.2-0.8-0.5c-2.1-1.1-2.3-1.3-5.5-2.4
			c-5.1-1.7-12.2-3.5-18.4-5c-2.8-0.7-8.9-2.1-11.6-2.7c-3.4-0.7-7.8-1.6-10.4-1.1c-2.5,0.5-2.2,0.5-4.3,0.7
			c-2.1,0.2-5.6,1.1-7.5,1.6c-6.2,1.8-11.7,4.3-18,3.9c-7.9-0.6-13.1-6.1-18.3-11.9c-2.9-3.2-6.7-7.2-10.7-9.3
			c-0.7-0.3-1.2-0.7-1.9-1c0.2,0,0.4,0,0.5,0C100.9,26.2,101,26.2,101,26.2 M149.5,38.9c-2.5-0.9-4.5-1.5-7.2-1.9
			c-6.1-0.9-12.2-3.5-17.5-6.2c-2.3-1.2-3.8-2-6-2.8c-2.2-0.7-3.6-2.3-5.3-3.9c-0.3-0.3-1-0.9-1.4-1.3c0.8-0.3,0.7-0.4,1.8-0.7
			c1-0.3,1.8-0.9,3.5-1.2c1.7-0.3,4.1-0.2,6.3,0.5c2.6,0.8,4.5,0.5,7.5,2.9c3,2.4,10.2,5.1,14.7,6.9c4.4,1.8,8.8,2.8,13.8,4.1
			c1.9,0.5,5.4,1.6,7.6,3.2c0.8,0.5,3.3,2,4.3,2.6c-1.1-0.2-3.2-0.5-4.3-0.7c-2.3-0.4-5.9-0.1-7.6,0c-0.9,0.1-1.7,0.1-2.4,0.1
			C154.4,40.7,152.7,40.1,149.5,38.9 M175,12.6c0.1-1,0.8,1,1.1,1.4c0.3,0.4,4.3,7.5,3.1,7.7c0,0,0,0,0,0
			C178,21.7,174.9,13.6,175,12.6 M203.2,43.7c-3-1.1-7.1-3.1-9.5-5.7c-5-5.5-9.7-11-13.1-17.5c-0.9-1.7-2.2-5.2-2.8-6.3
			c-0.6-1.1-1.3-1.6-1.1-1.9c0.2-0.3,0.2-0.1,1.3,0.8c1.1,0.9,3.6,4.4,5.5,6.2c3.9,3.7,9.2,8.1,12.9,12.2c3,3.4,6.6,7.9,8.7,11.1
			c0.9,1.3,1.6,1.3,1.1,1.9c-0.1,0.1-0.2,0.2-0.4,0.2C205.1,44.7,204.1,44.1,203.2,43.7 M112.5,26.4c-5.8-1.5-9.2-7.1-12.1-11.8
			c-1.2-1.8-3.9-6.3-4.5-7.2C94,4.5,96.4,7,98.2,8.6c1.1,1,5.1,5.6,7.1,8c1.6,2,5.1,6,7.1,8c0.9,0.9,1.4,1.4,2.3,2.2
			C113.9,26.7,113.3,26.6,112.5,26.4 M99.5,29.1c-6-4.4-10.2-10.5-10.9-18.3c-0.3-2.8,0.1-6,0.7-8.5c0.2-1,0.4-0.7,0.9-0.5
			c0.5,0.3,0.3,0,0.6,0.9c0.3,0.8,1.2,1.8,2.3,3c1.6,1.8,4,5.6,5.4,7.9c2.1,3.6,5.1,7.9,7.6,10.3c1.1,1,1.5,0.9,1.4,1.6
			c-0.1,0.7-2.5,0-3,0c-1.2-0.2-5-0.7-5.7,0.2c-0.7,1,0.7,1.1,1.4,1.6c1.1,0.7,8.9,5.4,8.1,6.2c-0.1,0.1-0.2,0.1-0.3,0.1
			C106.4,33.6,101.3,30.4,99.5,29.1 M87.9,3.6c-1.1,8.2,0,14,4.7,20.6c3.8,5.2,9.7,7.8,15.4,10.5c1.7,0.8,3.3,1.8,4.4,3.2
			c1.1,1.4,2.5,2.8,3.4,3.7c0.9,1,1.1,1,1.8,1.9c-0.9,0.1-2.5,0.4-3.2,0.5c-7.9,1.1-14.2-0.1-20.9-3.4c-6.7-3.3-10.2-4.4-17.3-2
			c-0.9,0.3-2.3,0.9-3.3,1.3c-1.2-0.3-3.5-0.9-4.5-1.1c-5-1.1-7.7-1.6-12.9-0.1c-2.3,0.7-9.3,4.3-10.5,5.7c-0.7,0.8-0.6,0.8-0.4,0.8
			c0.2,0,0.4,0,0.6,0.3c0.4,0.7,1.1,0.5,2.4,1.2c3.8,1.9,9.9,4.1,13.1,7.3c0.3,0.3-0.2,0.2-1.2,1.1c-1,0.9-4.8,4.7-5.8,6.6
			c-0.1,0.2-0.5,0.6-0.5,0.9c1,0.3,2.6,0.8,3.5,1c5.4,1.3,9.3,0.4,14.2-2c2-1,4.8-2.6,6.2-3.5c1.4-0.9,2.3-1.4,3.3-1.5
			c5.4-0.5,9.4-2.4,14.3-4.9c6.1-3.1,14.9-5.2,21-5.6c3.7-0.3,4.5-0.1,6.5,0.8c1.2,0.5,1.8,0.8,1.6,1.3c-0.1,0.5-1.7,1.2-2.9,1.4
			c-9.8,1.4-22.5,18.3-25.2,22.9c-3.3,5.8-12.4,19.3-9.9,20.9c2.5,1.6,9.2-8.1,11.6-10.4c1.2-1.2,3.6-4.3,5.2-6
			c1.6-1.7,4-4.6,5.4-6.5c3.8-4.8,8.3-10.4,12.3-14.3c1.9-1.9,2.6-2.8,3.8-4c1.1-1.3,0.8-0.9,2.1-1.6c1.3-0.7,1.1-1,3.6-0.9
			s6.5-0.2,10.1-1.3c1.3-0.4,5.9-1.7,8-2.5c2.1-0.8,6.5-1.6,8.4-1.8c1.9-0.2,2.3-0.3,3.6-0.4c4.5-0.5,6.5,0.4,11.5,1.1
			c2.9,0.4,12.4,2.9,15.3,3.6c2.9,0.7,10.1,2.5,10.4,2.7c1.4,0.8,7.1,2.2,6.2,2.5c-1,0.3-4.1,0.7-6.4,1c-2.3,0.3-7.3,1.4-9.8,2.2
			c-7.5,2.1-14.8,2.9-22.4,2.2c-9-0.7-18.4,1.8-23.9,7.4c-2.9,2.9-4.7,3.9-4.2,5.9c0.5,2,4.7,1.2,6.7,1.9c1.9,0.8,8.5,1.9,10.2,2.4
			c5.7,1.4,12.6,2.9,17.2,2.4c4.7-0.5,6.5-1.5,9.9-3.4c4.9-2.7,7.8-7.7,11.7-11.7c3.9-4,8.7-9.8,14.9-8.6
			c6.2,1.2,19.4,10.5,21.1,14.3c1.1,2.4-2.2,1.7-5,1c-1.6-0.4-3-0.8-3.3-0.6c-0.4,0.2-4.4-1.6-5.1-1.9c-3.1-1.5-9.8-4.1-12.4-4
			c-5.2,0.3-4.5,1.1-1.1,4.3c4,3.8,12.3,11.2,17.2,13.7c4.9,2.4,6.6-0.3,10.4-2.2c1.1-0.5,2.3-2.5,3.5-2.9c1.2-0.4,0.4-2.2,2.6-1.3
			c2.2,0.9,8.2,5.7,10.7,7.3c1.4,0.9,3.1,2.3,4,1.6c0.9-0.7,3.7,0.3,0.8-2.5c-2.9-2.8-10.6-7-15.6-10.9c-5-3.9-12.1-10.3-17.8-14.7
			c-0.8-0.6-3-2.2-3.9-2.8c-0.6-1.2-0.7-1.5-1.5-2.9c-0.8-1.4-1.8-3.2-3-4.7c-4.3-5-7.4-9.8-12.1-15.1c-3.4-3.8-9.2-8.9-12.9-12.5
			c-2.5-2.4-4.3-5.5-6.5-7.1c-2.2-1.6-3.5-3.6-4.8-5c-1.3-1.4-1.9-3.6-3.3-3.6c-1.4,0-0.1,2.7,0.9,4.2c1,1.5,3.3,6.5,4.1,9.1
			c0.8,2.7,3.6,7.7,5.4,9c1.8,1.3,1.6,1.4,2.4,2.4c2.2,2.7,4.6,5.5,6.8,7.9c4.1,4.7,8.2,7.6,13.8,9.9c3,1.2,5.3,2.5,6.7,5.3
			s-5.4-0.7-7.9-1.6c-1-0.3-6.3-1.9-9.1-2.4c-2.8-0.6-7.1-1.7-10.7-2.7c-1.6-0.4-5.6-1.4-7.7-1.8c-1.6-0.9-4.2-2.5-5.4-3.3
			c-5-3-8-4-13.7-5.5c-2.8-0.7-6.2-1.6-9.6-3c-3.4-1.4-9.5-3.5-12.6-5.9c-3.1-2.4-6.6-3-10.1-3.9c-3.5-0.9-5.9,0-9.3,0.8
			c-1.2,0.3-1,1.5-2.8,0.7c-1.8-0.8-3.7-4.2-5.9-7c-2.2-2.8-7.7-8.5-11-11.3c-1.9-1.5-3.4-2.8-4.6-2.8C88.8,0.8,88.2,1.6,87.9,3.6"
			/>
	</defs>
	<clipPath id="SVGID_4_">
		<use xlink:href="#SVGID_3_"  style="overflow:visible;"/>
	</clipPath>
	
		<radialGradient id="SVGID_5_" cx="-152" cy="352.191" r="1" gradientTransform="matrix(48.11 18.3791 18.3791 -48.11 1006.6486 19787.6289)" gradientUnits="userSpaceOnUse">
		<stop  offset="0" style="stop-color:#FFFFFF"/>
		<stop  offset="0.309" style="stop-color:#A5DDEE"/>
		<stop  offset="0.6272" style="stop-color:#7A94BE"/>
		<stop  offset="0.6509" style="stop-color:#778FBB"/>
		<stop  offset="1" style="stop-color:#7498C1"/>
	</radialGradient>
	<polygon class="st2" points="71.2,-69 285.5,12.8 227.4,164.8 13.1,82.9 	"/>
</g>
<g>
	<defs>
		<rect id="SVGID_6_" x="-152" y="-439.8" width="612" height="792"/>
	</defs>
	<clipPath id="SVGID_7_">
		<use xlink:href="#SVGID_6_"  style="overflow:visible;"/>
	</clipPath>
	<path class="st3" d="M370.4,335.4c0.1,0.5,0.5,0.6,0.8,0.4c0.3-0.2,0.4-0.4,0.8-0.9 M371.7,334.8c-0.3,0.4-0.4,0.6-0.6,0.6
		c-0.2,0-0.4-0.3-0.1-0.6"/>
	<path class="st3" d="M410,335.5c0.1,0.5,0.9,0.7,1.2,0.5c0.3-0.2,0.7-0.4,1.1-0.9 M411.7,335c-0.3,0.4-0.4,0.6-0.6,0.6
		c-0.2,0-0.4-0.3-0.1-0.6"/>
</g>
</svg>
