<?xml version="1.0" encoding="utf-8"?>
<!-- Generator: Adobe Illustrator 22.0.0, SVG Export Plug-In . SVG Version: 6.00 Build 0)  -->
<svg version="1.1" id="Layer_1" xmlns="http://www.w3.org/2000/svg" xmlns:xlink="http://www.w3.org/1999/xlink" x="0px" y="0px"
	 viewBox="0 0 548 170.8" style="enable-background:new 0 0 548 170.8;" xml:space="preserve">
<style type="text/css">
	.st0{clip-path:url(#SVGID_2_);fill:url(#SVGID_3_);}
	.st1{clip-path:url(#SVGID_5_);fill:#778FBB;}
	.st2{clip-path:url(#SVGID_5_);fill:#879EC4;}
	.st3{clip-path:url(#SVGID_7_);fill:#778FBB;}
</style>
<g>
	<defs>
		<path id="SVGID_1_" d="M504.1,78.3c-3.2-2.8-13.1-8-13.8-12.2c-0.1-0.8,1-0.4,2.7-0.1c3.1,0.4,7.4,2.2,11.5,4.1
			c2.5,1.2,7.6,2.7,11.1,2.6c1.5,0,4.5,0.3,5.6,0.6c2.5,0.6,2.1-0.6,1.1-1.1c-1-0.6-6.5-4.8-4.8-4.5c1.6,0.3,13.5,10.3,15.8,11.5
			c2.3,1.2,7.2,4,6.6,5.1c-0.6,1.1-2-0.4-3.4-1.3c-2.5-1.6-9.3-6.9-11.7-7.8c-2.5-0.9-1.9,1-3.4,1.7c-1.4,0.7-3.4,2.9-4.8,3.6
			c-2.2,1.1-2.2,2-4.9,2c0,0,0,0,0,0C509.2,82.4,506.4,80.2,504.1,78.3 M438.6,75.2c-1.9-0.5-6.9-1.4-8.4-1.9
			c-1.5-0.4-0.8-0.3,0.6-1c1.4-0.7,3.2-1.3,6.2-2c3-0.8,9.5-1.9,13.4-2.5c10.8-1.6,22-5.5,31.9-9c2.5-0.9,5.1-2,6-1.9
			c0.9,0.2-1.2,0.9-2,1.6c-0.8,0.7-3.1,2.8-4.4,4.3c-3,3.4-5.9,7.7-9.6,10.6s-4.5,3.4-10.2,4.7c-1.2,0.3-2.5,0.4-4.1,0.4
			C452.2,78.6,444,76.8,438.6,75.2 M477.8,58.5c2.5-0.6,5.6-2.3,5.1-1.1c-0.5,1.2-7.2,2.8-11.7,4.3c-4.5,1.5-16.6,5-23,5.6
			c-5.2,0.5-13.9,2.7-17.4,4.2c-2.7,1.2-3.8,1.8-3.2,0.5c0.2-0.4,1.3-1.4,1.9-2c2.8-3.1,6-6.2,10.1-7.7c4.1-1.5,9.9-1.6,14-1.3
			c1.5,0.1,3,0.2,4.5,0.2C465,61,472.1,59.9,477.8,58.5 M345.8,63.1c-0.4-0.1-0.9-0.3-1.3-0.5c0.5-0.5,0.8-0.8,1.3-1.3
			c0.5-0.5,1-1,1.4-1.7c0.4-0.8,1.5-1.7,2.2-2.3c0.7-0.6,1.3-1.3,2.1-1.9c1.3,0.5,4.8,1.5,5.8,1.9c2.1,0.8,5.6,1.3,6.7,1.5
			c0.4,0.1,0.6,0,0.8,0c0,0,0,0,0,0c-0.1,0.1-0.4,0.2-0.9,0.6c-1.3,1.1-6.8,4-9.5,4.4c-0.8,0.1-1.7,0.2-2.6,0.2
			C349.6,64,347.6,63.7,345.8,63.1 M378,90c2.2-5.9,7.6-14.4,10.4-19c2.5-4.1,4.5-7.1,6.6-9.4c4.8-5.4,11.6-8.4,16.5-10.5
			c2.5-1.1,5.7-2.5,3.1,0c-2.6,2.5-7.4,7.2-10.6,10.9c-1.7,2-4.9,6-6.8,8.4c-1.9,2.4-4.3,5.2-6.2,7.4c-1.9,2.1-3.3,3.7-5,5.8
			c-1.8,2.1-3.7,4-5.7,5.8c-0.9,0.8-1.9,1.6-2.9,2.4C377.5,91.3,377.7,90.8,378,90 M405.7,45.6c1-0.2,0.9-0.2,1.4-0.6
			c0.5-0.4,0.7,0,1.1,0.2c0.3,0.2,0.5,0.4,0.7,0.6c-0.3,0-1.2,0.1-1.4,0.1c-0.1,0-0.3,0-0.5,0C406.1,46,404.9,45.8,405.7,45.6
			 M364.2,57.7c-5.1-0.3-10.8-2.7-15-5.1c-4.2-2.4-7.7-4.5-11.8-6.3c-0.9-0.4-0.9-0.3-1.7-0.6c1-0.6,1.2-0.8,2.4-1.5
			c1.2-0.7,3.2-1.9,4.6-2.5c5.3-2.3,9.6-2.3,15.1-1c0.8,0.2,2.4,0.6,3.3,0.9c-0.2,0.2-1.2,0.5-1.3,0.7c-1.1,1.3-4.8,0.8-4.9,3.2
			c-0.1,2.4,4.1,7,6,8.9c0.9,0.9,2.5,1.9,3.4,2.4c0.9,0.5,1.1,0.5,1.9,0.9c-0.4,0-0.6,0-0.9,0c-0.2,0-0.4,0-0.6,0
			C364.5,57.7,364.3,57.7,364.2,57.7 M362,53.8c-2.1-2-6.3-5.9-5.6-8.2c0.7-2.2,4.2-2.4,6.8-3.7c6.6-3.3,11.7-3.5,18.4,0.2
			c2.3,1.3,5.6,2.6,7.7,3.2c3,1,5.3,1,7.9,1.3c0.4,0-2.1,0.9-3.6,1.4c-1.4,0.5-7.5,2.7-9.5,3.7c-4.1,2.1-9.2,4.1-13.1,4.6
			c-0.7,0.1-1.3,0.1-1.9,0.1C366.1,56.4,363.7,55.5,362,53.8 M390.4,27.1c0.1,0,0.3,0,1.4,0c1.9,0.1,7.1,1,9.6,1.5
			c4.4,0.8,9.1,2.1,12.5,4.1c3.4,2,6,3.2,9.2,4.3c3.2,1.1,5.6,1.6,8.6,2c3,0.4,4.4,0.8,7.1,1.9c3.9,1.7,5,2,10.2,1.7
			c5.1-0.3,10.3,0.1,16.7,1.5c2.9,0.6,11.4,2.8,15,3.7c3.6,0.9,8.3,2.1,11,3c2.8,0.9,4.6,1.6,6.4,2.3c1.8,0.7,2.5,0.9,3.5,1.6
			c1,0.7,0.4,0.5,1.6,1c1.1,0.6,2.3,1.5,3.7,2.6c1.4,1.1,4.8,4,6,4.9c1.2,1,3.2,2.6,3.3,3.1c0.1,0.5-0.8-0.2-1.6-1.1
			c-3-3.1-12.5-8.9-15.9-9.9c-1.1-0.3-1.5-0.4-1.6-0.5c-0.1-0.1-0.3-0.2-0.8-0.5c-2.1-1.1-2.3-1.3-5.5-2.4c-5.1-1.7-12.2-3.5-18.4-5
			c-2.8-0.7-8.9-2.1-11.6-2.7c-3.4-0.7-7.8-1.6-10.4-1.1c-2.5,0.5-2.2,0.5-4.3,0.7c-2.1,0.2-5.6,1.1-7.5,1.6
			c-6.2,1.8-11.7,4.3-18,3.9c-7.9-0.6-13.1-6.1-18.3-11.9c-2.9-3.2-6.7-7.2-10.7-9.3c-0.7-0.3-1.2-0.7-1.9-1c0.3,0,0.4,0,0.5,0
			C390.3,27.1,390.3,27.1,390.4,27.1 M438.9,39.8c-2.5-0.9-4.5-1.5-7.2-1.9c-6.1-0.9-12.2-3.5-17.5-6.2c-2.3-1.2-3.8-2-6-2.8
			c-2.2-0.7-3.6-2.3-5.3-3.9c-0.3-0.3-1-0.9-1.4-1.3c0.8-0.3,0.7-0.4,1.8-0.7c1-0.3,1.8-0.9,3.5-1.2c1.7-0.3,4.1-0.2,6.3,0.5
			c2.6,0.8,4.5,0.5,7.5,2.9c3,2.4,10.2,5.1,14.6,6.9c4.4,1.8,8.8,2.8,13.9,4.1c1.9,0.5,5.4,1.6,7.6,3.2c0.8,0.5,3.3,2,4.3,2.6
			c-1.1-0.2-3.2-0.5-4.3-0.7c-2.3-0.4-5.9-0.1-7.6,0c-0.9,0.1-1.7,0.1-2.4,0.1C443.8,41.5,442,40.9,438.9,39.8 M464.4,13.4
			c0.1-1,0.8,1,1.1,1.4c0.3,0.4,4.3,7.5,3.1,7.7c0,0,0,0,0,0C467.4,22.5,464.3,14.4,464.4,13.4 M492.5,44.5c-3-1.1-7.1-3.2-9.5-5.7
			c-5-5.5-9.7-11-13.1-17.5c-0.9-1.7-2.2-5.2-2.8-6.3c-0.6-1.1-1.3-1.6-1.1-1.9c0.2-0.3,0.2-0.2,1.3,0.8c1.1,0.9,3.6,4.4,5.5,6.2
			c3.9,3.7,9.2,8.1,12.9,12.2c3,3.4,6.6,7.9,8.7,11.1c0.9,1.3,1.5,1.3,1.1,1.9c-0.1,0.1-0.2,0.2-0.4,0.2
			C494.5,45.5,493.5,44.9,492.5,44.5 M401.9,27.2c-5.8-1.5-9.2-7.1-12.1-11.8c-1.2-1.9-3.9-6.3-4.5-7.2c-1.8-2.9,0.5-0.4,2.3,1.2
			c1.1,1,5.1,5.6,7.1,8c1.6,2,5.1,6,7.1,8c0.9,0.9,1.4,1.4,2.3,2.2C403.3,27.5,402.6,27.4,401.9,27.2 M388.9,30
			c-6-4.4-10.2-10.5-10.9-18.3c-0.3-2.8,0.1-6,0.7-8.5c0.2-1,0.4-0.7,0.9-0.5c0.5,0.3,0.3,0,0.6,0.9c0.3,0.8,1.2,1.8,2.3,3
			c1.6,1.8,4,5.6,5.4,7.9c2.1,3.6,5.1,7.9,7.6,10.3c1.1,1,1.5,0.9,1.4,1.6c-0.1,0.7-2.5,0-3,0c-1.2-0.2-5-0.7-5.7,0.2
			c-0.7,1,0.7,1.1,1.4,1.6c1.1,0.7,8.9,5.4,8.1,6.2c-0.1,0.1-0.2,0.1-0.3,0.1C395.8,34.4,390.7,31.3,388.9,30 M377.3,4.5
			c-1.1,8.2,0,14,4.7,20.6c3.8,5.2,9.7,7.8,15.4,10.5c1.7,0.8,3.3,1.8,4.4,3.2c1.1,1.4,2.5,2.8,3.4,3.7c0.9,1,1.1,1,1.8,1.9
			c-0.9,0.1-2.5,0.4-3.2,0.5c-7.9,1.1-14.2-0.1-20.9-3.4s-10.2-4.4-17.3-2c-0.9,0.3-2.3,0.9-3.3,1.3c-1.2-0.3-3.5-0.9-4.5-1.1
			c-5-1.1-7.7-1.6-12.9-0.1c-2.3,0.7-9.3,4.3-10.5,5.7c-0.7,0.8-0.6,0.8-0.4,0.8c0.2,0,0.4,0,0.6,0.3c0.4,0.7,1.1,0.5,2.4,1.2
			c3.8,1.9,9.9,4.1,13.1,7.3c0.3,0.3-0.2,0.2-1.2,1.1c-1,0.9-4.8,4.7-5.8,6.6c-0.1,0.2-0.5,0.6-0.5,0.9c1,0.3,2.6,0.8,3.5,1
			c5.4,1.3,9.3,0.4,14.2-2c2-1,4.8-2.6,6.2-3.5c1.4-0.9,2.3-1.4,3.3-1.5c5.4-0.5,9.4-2.4,14.3-4.9c6.1-3.1,14.9-5.2,21-5.6
			c3.7-0.3,4.5-0.1,6.5,0.8c1.2,0.5,1.8,0.8,1.6,1.3c-0.1,0.5-1.7,1.2-2.9,1.4c-9.8,1.4-22.5,18.3-25.2,22.9
			c-3.3,5.8-12.4,19.3-9.9,20.9c2.5,1.6,9.2-8.1,11.6-10.4c1.2-1.2,3.6-4.3,5.2-6c1.6-1.7,4-4.6,5.4-6.5c3.8-4.8,8.3-10.4,12.3-14.3
			c1.9-1.9,2.6-2.8,3.8-4c1.1-1.3,0.8-0.9,2.1-1.6c1.3-0.7,1.1-1,3.6-0.9c2.4,0.1,6.5-0.2,10.1-1.3c1.3-0.4,5.9-1.7,8-2.5
			c2.1-0.8,6.5-1.6,8.4-1.8c1.9-0.2,2.3-0.3,3.6-0.4c4.5-0.5,6.5,0.4,11.5,1.1c2.9,0.4,12.4,2.9,15.3,3.6c2.9,0.7,10.1,2.5,10.4,2.7
			c1.4,0.8,7.1,2.2,6.2,2.5c-1,0.3-4.1,0.7-6.4,1c-2.3,0.3-7.3,1.4-9.8,2.2c-7.5,2.1-14.8,2.9-22.4,2.2c-9-0.7-18.4,1.8-23.9,7.4
			c-2.9,2.9-4.7,3.9-4.2,5.9c0.5,2,4.7,1.2,6.7,2c1.9,0.8,8.5,1.9,10.2,2.4c5.7,1.4,12.6,2.9,17.2,2.4c4.7-0.5,6.5-1.5,9.9-3.4
			c4.9-2.7,7.8-7.7,11.7-11.7c3.9-4,8.7-9.8,14.9-8.6c6.2,1.2,19.4,10.5,21.1,14.3c1.1,2.4-2.2,1.7-5,1c-1.6-0.4-3-0.8-3.3-0.6
			c-0.4,0.2-4.4-1.6-5.1-1.9c-3.1-1.5-9.8-4.1-12.4-4c-5.2,0.3-4.5,1.2-1.1,4.3c4,3.8,12.3,11.2,17.2,13.7c4.9,2.4,6.6-0.3,10.4-2.2
			c1.1-0.5,2.3-2.5,3.5-2.9c1.2-0.4,0.4-2.2,2.6-1.3c2.2,0.9,8.2,5.7,10.7,7.3c1.4,0.9,3.1,2.3,4,1.6c0.9-0.7,3.7,0.3,0.8-2.5
			c-2.9-2.8-10.6-7-15.6-10.9c-5-3.9-12.1-10.3-17.8-14.7c-0.8-0.6-3-2.2-3.9-2.8c-0.6-1.2-0.7-1.5-1.5-2.9c-0.8-1.4-1.8-3.2-3-4.7
			c-4.3-5-7.4-9.8-12.1-15.1c-3.4-3.8-9.2-8.9-12.9-12.5c-2.5-2.4-4.3-5.5-6.5-7.1c-2.2-1.6-3.5-3.6-4.8-5c-1.3-1.3-1.9-3.6-3.3-3.6
			c-1.4,0-0.1,2.7,0.9,4.2c1,1.5,3.3,6.5,4.1,9.1c0.8,2.7,3.6,7.7,5.4,9c1.8,1.3,1.6,1.4,2.4,2.4c2.2,2.7,4.6,5.5,6.8,7.9
			c4.1,4.7,8.2,7.6,13.8,9.9c3,1.2,5.3,2.5,6.7,5.3c1.5,2.8-5.4-0.7-7.9-1.6c-1-0.3-6.3-1.9-9.1-2.4c-2.8-0.6-7.1-1.7-10.7-2.7
			c-1.6-0.4-5.6-1.4-7.7-1.8c-1.6-0.9-4.2-2.5-5.4-3.3c-5-3-8-4-13.7-5.5c-2.8-0.7-6.2-1.6-9.6-3c-3.4-1.4-9.5-3.5-12.6-5.9
			c-3.1-2.4-6.6-3-10.1-3.9c-3.5-0.9-5.9,0-9.3,0.8c-1.2,0.3-1,1.5-2.8,0.7c-1.8-0.8-3.7-4.2-5.9-7c-2.2-2.8-7.7-8.5-11-11.3
			c-1.9-1.5-3.4-2.8-4.6-2.8C378.2,1.7,377.6,2.4,377.3,4.5"/>
	</defs>
	<clipPath id="SVGID_2_">
		<use xlink:href="#SVGID_1_"  style="overflow:visible;"/>
	</clipPath>
	
		<radialGradient id="SVGID_3_" cx="-27.3333" cy="641.3147" r="1" gradientTransform="matrix(48.11 18.3791 18.3791 -48.11 -10015.5293 31406.9473)" gradientUnits="userSpaceOnUse">
		<stop  offset="0" style="stop-color:#FFFFFF"/>
		<stop  offset="0.309" style="stop-color:#A5DDEE"/>
		<stop  offset="0.6272" style="stop-color:#7A94BE"/>
		<stop  offset="0.6509" style="stop-color:#778FBB"/>
		<stop  offset="1" style="stop-color:#7498C1"/>
	</radialGradient>
	<polygon class="st0" points="360.6,-68.2 574.8,13.6 516.8,165.6 302.5,83.7 	"/>
</g>
<g>
	<defs>
		<polyline id="SVGID_4_" points="-27.3,641.3 -27.3,-150.7 584.7,-150.7 584.7,641.3 		"/>
	</defs>
	<clipPath id="SVGID_5_">
		<use xlink:href="#SVGID_4_"  style="overflow:visible;"/>
	</clipPath>
	<path class="st1" d="M38.4,102.5v1.1c-0.7,0.2-1.5,0.6-2.3,1.3c-0.8,0.7-1.6,1.9-2.2,3.7l-13.5,34.7h-0.2h-0.2h-0.2h-0.2l-14-36
		c-0.6-1.5-1.2-2.4-1.9-2.9c-0.7-0.5-1.4-0.7-2-0.8v-1.1c0.8,0,1.7,0.1,2.8,0.1c1.1,0,2.2,0.1,3.3,0.1c1.5,0,2.9,0,4.2-0.1
		c1.3,0,2.3-0.1,3.1-0.1v1.1c-1.9,0.1-3.2,0.4-3.7,1c-0.5,0.6-0.4,1.9,0.3,3.8l10.6,28.2l-0.9,1l10-25.9c0.8-2.1,1.2-3.7,1.1-4.8
		c0-1.2-0.5-2-1.3-2.5c-0.8-0.5-2.1-0.8-3.7-0.8v-1.1c1.1,0,2.2,0.1,3.4,0.1c1.1,0,2.2,0.1,3.2,0.1c1,0,1.8,0,2.5-0.1
		C37.2,102.6,37.8,102.6,38.4,102.5"/>
	<path class="st1" d="M58.2,101.7c3.6,0,6.8,0.8,9.5,2.5c2.7,1.6,4.8,4,6.4,7.1c1.5,3.1,2.3,6.8,2.3,11.2c0,4.3-0.8,8-2.3,11.2
		c-1.5,3.2-3.7,5.7-6.4,7.5c-2.7,1.8-5.9,2.7-9.4,2.7c-3.6,0-6.8-0.8-9.5-2.5c-2.7-1.6-4.8-4-6.4-7.1c-1.5-3.1-2.3-6.8-2.3-11.2
		c0-4.3,0.8-8,2.3-11.2c1.6-3.2,3.7-5.7,6.4-7.5C51.5,102.6,54.7,101.7,58.2,101.7 M58,102.8c-2.5,0-4.6,0.9-6.5,2.6
		c-1.8,1.7-3.3,4.1-4.3,7.1c-1,3-1.5,6.5-1.5,10.5c0,4,0.6,7.6,1.7,10.6c1.1,3,2.7,5.3,4.6,6.9c1.9,1.6,4.1,2.4,6.4,2.4
		c2.5,0,4.6-0.9,6.5-2.6c1.8-1.7,3.3-4.1,4.3-7.1c1-3,1.5-6.5,1.5-10.4c0-4.1-0.6-7.6-1.7-10.6c-1.1-3-2.6-5.3-4.6-6.9
		C62.5,103.6,60.4,102.8,58,102.8"/>
	<path class="st1" d="M116.6,102.5v1.1c-1.3,0-2.3,0.2-2.9,0.6s-1.1,0.9-1.3,1.7c-0.2,0.8-0.3,1.9-0.3,3.3v17.2c0,2.7-0.2,5-0.5,7
		c-0.3,2-1,3.7-1.8,5.2c-1,1.6-2.3,2.9-4.2,3.9c-1.8,1-3.9,1.5-6.3,1.5c-1.8,0-3.6-0.2-5.2-0.7c-1.7-0.4-3.1-1.2-4.4-2.4
		c-1.1-1.1-2-2.2-2.6-3.4c-0.6-1.2-1.1-2.6-1.3-4.4c-0.2-1.7-0.3-3.9-0.3-6.5v-18c0-1.4-0.1-2.5-0.3-3.1c-0.2-0.7-0.7-1.1-1.3-1.4
		c-0.7-0.2-1.7-0.4-2.9-0.4v-1.1c0.8,0,1.9,0.1,3.1,0.1c1.3,0,2.7,0.1,4.2,0.1c1.3,0,2.7,0,4-0.1c1.3,0,2.4-0.1,3.3-0.1v1.1
		c-1.3,0-2.3,0.2-2.9,0.4c-0.7,0.2-1.1,0.7-1.3,1.4c-0.2,0.7-0.3,1.7-0.3,3.1v19c0,2.6,0.2,5,0.6,7.2c0.4,2.2,1.2,3.9,2.5,5.2
		c1.3,1.3,3.3,1.9,6,1.9c2.9,0,5.1-0.6,6.7-1.9c1.6-1.3,2.7-3,3.3-5.3c0.6-2.3,0.9-4.8,0.9-7.6v-17.9c0-1.4-0.2-2.5-0.5-3.3
		c-0.3-0.8-0.9-1.3-1.6-1.7c-0.8-0.3-1.8-0.5-3.1-0.6v-1.1c0.7,0,1.6,0.1,2.7,0.1c1.1,0,2.2,0.1,3.1,0.1c1,0,2,0,2.9-0.1
		C115.2,102.6,116,102.6,116.6,102.5"/>
	<path class="st1" d="M153.6,101.7c2.5,0,4.6,0.4,6.2,1.1c1.6,0.7,3.1,1.6,4.3,2.6c0.8,0.6,1.3,0.6,1.7,0.2c0.4-0.4,0.7-1.5,0.8-3.1
		h1.3c-0.1,1.4-0.1,3.1-0.2,5.2c0,2-0.1,4.7-0.1,8h-1.3c-0.3-1.6-0.5-2.9-0.7-3.9c-0.2-1-0.5-1.8-0.8-2.5c-0.3-0.7-0.8-1.4-1.3-2.1
		c-1.2-1.6-2.7-2.7-4.5-3.4c-1.8-0.7-3.7-1.1-5.7-1.1c-1.9,0-3.6,0.5-5.1,1.4c-1.5,0.9-2.8,2.3-3.9,4c-1.1,1.8-1.9,3.9-2.5,6.4
		c-0.6,2.5-0.9,5.3-0.9,8.4c0,3.2,0.3,6,1,8.5c0.6,2.5,1.6,4.5,2.7,6.2c1.2,1.7,2.5,3,4.1,3.8c1.6,0.9,3.3,1.3,5.1,1.3
		c1.7,0,3.5-0.3,5.4-1c1.9-0.7,3.3-1.8,4.4-3.3c0.8-1.1,1.4-2.3,1.7-3.6c0.3-1.3,0.6-3.1,0.9-5.4h1.3c0,3.5,0,6.3,0.1,8.4
		c0,2.1,0.1,3.9,0.2,5.4h-1.3c-0.2-1.6-0.4-2.7-0.8-3.1c-0.4-0.4-1-0.4-1.8,0.2c-1.4,1-2.9,1.9-4.5,2.6c-1.6,0.7-3.6,1.1-6.1,1.1
		c-3.6,0-6.8-0.8-9.5-2.5c-2.7-1.6-4.8-4-6.4-7.1c-1.5-3.1-2.3-6.8-2.3-11.2c0-4.3,0.8-8,2.3-11.2c1.6-3.2,3.7-5.7,6.4-7.5
		C146.9,102.6,150.1,101.7,153.6,101.7"/>
	<path class="st1" d="M190.3,102.3l14,36c0.6,1.5,1.2,2.4,1.9,2.9c0.7,0.5,1.4,0.7,2,0.8v1.1c-0.8-0.1-1.7-0.1-2.8-0.1
		c-1.1,0-2.2,0-3.3,0c-1.5,0-2.9,0-4.2,0c-1.3,0-2.3,0.1-3.1,0.1v-1.1c1.9-0.1,3.2-0.4,3.7-1c0.5-0.6,0.4-1.9-0.3-3.8l-10.6-28.5
		l0.9-0.7l-10,25.9c-0.8,2.1-1.2,3.7-1.1,4.8c0,1.2,0.5,2,1.3,2.5c0.8,0.5,2.1,0.8,3.7,0.8v1.1c-1.1-0.1-2.2-0.1-3.4-0.1
		c-1.2,0-2.2,0-3.2,0c-1,0-1.8,0-2.4,0c-0.7,0-1.3,0.1-1.9,0.1v-1.1c0.8-0.2,1.5-0.6,2.3-1.3c0.8-0.7,1.5-1.9,2.2-3.6l13.5-34.7h0.5
		H190.3z M197.2,126.6v1.1h-17.1l0.6-1.1H197.2z"/>
	<path class="st1" d="M222.5,101.9c1.9,0,3.4,0.2,4.4,0.7c1,0.4,1.9,0.9,2.6,1.5c0.5,0.3,0.8,0.5,1.1,0.6c0.3,0.1,0.6,0.2,0.8,0.2
		c0.6,0,1-0.8,1.3-2.5h1.3c0,0.7-0.1,1.4-0.1,2.3c-0.1,0.9-0.1,2.1-0.1,3.5c0,1.5,0,3.4,0,5.8h-1.3c-0.1-1.8-0.5-3.6-1.2-5.3
		c-0.7-1.7-1.7-3.1-3-4.1c-1.3-1.1-3-1.6-5.2-1.6c-2,0-3.7,0.6-5,1.8c-1.3,1.2-2,2.8-2,4.8c0,1.7,0.4,3.2,1.3,4.3
		c0.9,1.2,2.1,2.2,3.5,3.1c1.5,0.9,3.1,1.9,4.8,3c2,1.2,3.7,2.4,5.3,3.6c1.5,1.2,2.8,2.5,3.7,4c0.9,1.5,1.3,3.2,1.3,5.3
		c0,2.4-0.6,4.5-1.7,6.1c-1.1,1.6-2.6,2.8-4.4,3.6c-1.8,0.8-3.9,1.2-6.1,1.2c-2,0-3.6-0.2-4.8-0.7c-1.2-0.5-2.2-0.9-3-1.4
		c-0.8-0.5-1.5-0.8-1.9-0.8c-0.6,0-1,0.8-1.3,2.5h-1.3c0.1-0.8,0.1-1.7,0.1-2.8c0-1.1,0-2.5,0.1-4.3s0-4,0-6.6h1.3
		c0.2,2.3,0.6,4.4,1.3,6.4c0.7,2,1.8,3.6,3.3,4.8c1.5,1.2,3.4,1.8,5.9,1.8c1.9,0,3.6-0.6,5.1-1.8s2.3-3.1,2.3-5.8
		c0-2.3-0.8-4.3-2.5-5.8c-1.6-1.5-3.8-3.1-6.5-4.7c-1.8-1.1-3.5-2.2-5-3.4c-1.6-1.1-2.8-2.5-3.8-4c-0.9-1.5-1.4-3.3-1.4-5.5
		c0-2.3,0.5-4.1,1.5-5.6c1-1.5,2.3-2.6,4-3.3C218.9,102.3,220.6,101.9,222.5,101.9"/>
	<path class="st1" d="M257,102.3l14,36c0.6,1.5,1.2,2.4,1.9,2.9c0.7,0.5,1.4,0.7,2,0.8v1.1c-0.8-0.1-1.7-0.1-2.8-0.1
		c-1.1,0-2.2,0-3.3,0c-1.5,0-2.9,0-4.2,0c-1.3,0-2.3,0.1-3.1,0.1v-1.1c1.9-0.1,3.2-0.4,3.7-1c0.5-0.6,0.4-1.9-0.3-3.8l-10.6-28.5
		l0.9-0.7l-10,25.9c-0.8,2.1-1.2,3.7-1.1,4.8c0,1.2,0.5,2,1.3,2.5c0.8,0.5,2.1,0.8,3.7,0.8v1.1c-1.1-0.1-2.2-0.1-3.4-0.1
		c-1.2,0-2.2,0-3.2,0c-1,0-1.8,0-2.4,0c-0.7,0-1.3,0.1-1.9,0.1v-1.1c0.8-0.2,1.5-0.6,2.3-1.3c0.8-0.7,1.5-1.9,2.2-3.6l13.5-34.7h0.5
		H257z M263.9,126.6v1.1h-17.1l0.6-1.1H263.9z"/>
	<path class="st1" d="M275.8,102.5c0.8,0,1.9,0.1,3.1,0.1c1.3,0,2.6,0.1,3.8,0.1c1.8,0,3.5,0,5.2-0.1c1.6,0,2.8-0.1,3.5-0.1
		c4.6,0,8.1,1,10.4,2.9c2.3,1.9,3.4,4.3,3.4,7.1c0,1.1-0.2,2.4-0.7,3.7c-0.5,1.3-1.2,2.5-2.4,3.7c-1.1,1.1-2.7,2.1-4.6,2.8
		c-1.9,0.7-4.4,1.1-7.4,1.1h-5.5v-1.1h4.9c2.7,0,4.8-0.4,6.2-1.3c1.4-0.9,2.4-2,2.9-3.4c0.5-1.4,0.8-3,0.8-4.8c0-3-0.7-5.4-2.1-7
		c-1.4-1.7-3.9-2.5-7.4-2.5c-1.8,0-2.9,0.3-3.4,1c-0.5,0.6-0.8,2-0.8,4V137c0,1.4,0.1,2.4,0.3,3.1c0.2,0.7,0.7,1.1,1.3,1.4
		c0.7,0.2,1.6,0.4,2.9,0.5v1.1c-0.9-0.1-2-0.1-3.3-0.1c-1.3,0-2.6,0-4,0c-1.5,0-2.9,0-4.2,0c-1.3,0-2.3,0.1-3.1,0.1v-1.1
		c1.3-0.1,2.3-0.2,2.9-0.5c0.7-0.2,1.1-0.7,1.3-1.4c0.2-0.7,0.3-1.7,0.3-3.1v-28.4c0-1.4-0.1-2.5-0.3-3.1c-0.2-0.7-0.7-1.1-1.3-1.4
		c-0.7-0.2-1.6-0.4-2.9-0.4V102.5z M284.9,122.9c2.1,0.1,3.7,0.2,4.9,0.3c1.2,0.1,2.1,0.2,2.9,0.3c0.7,0.1,1.5,0.2,2.1,0.3
		c2.6,0.4,4.4,1.2,5.5,2.3c1.1,1.1,2,2.9,2.5,5.2l1.4,5.8c0.4,1.7,0.8,2.9,1.2,3.6c0.4,0.7,1,1.1,1.9,1.1c0.6,0,1.2-0.2,1.6-0.6
		c0.4-0.4,0.9-0.9,1.4-1.5l0.9,0.6c-0.8,1.2-1.6,2.1-2.5,2.7c-0.9,0.6-2.1,0.9-3.6,0.9c-1.4,0-2.7-0.4-3.7-1.3
		c-1.1-0.8-1.9-2.5-2.4-4.9l-1.3-5.7c-0.3-1.6-0.7-3.1-1.2-4.3c-0.4-1.2-1-2.1-1.8-2.8c-0.8-0.7-1.9-1-3.5-1H285L284.9,122.9z"/>
	<path class="st1" d="M362.4,102.5v1.1c-1.3,0-2.3,0.2-2.9,0.6s-1.1,0.9-1.3,1.7c-0.2,0.8-0.3,1.9-0.3,3.3v34.2h-0.7h-0.7l-24-37.2
		v30.2c0,1.4,0.1,2.5,0.4,3.2c0.2,0.8,0.7,1.3,1.5,1.7c0.7,0.3,1.9,0.5,3.4,0.6v1.1c-0.7-0.1-1.6-0.1-2.7-0.1c-1.1,0-2.2,0-3.1,0
		c-1,0-1.9,0-2.9,0c-1,0-1.8,0.1-2.4,0.1v-1.1c1.3-0.1,2.3-0.3,2.9-0.6c0.7-0.3,1.1-0.9,1.3-1.7c0.2-0.8,0.3-1.9,0.3-3.2v-27.8
		c0-1.4-0.1-2.5-0.3-3.1c-0.2-0.7-0.7-1.1-1.3-1.4c-0.7-0.2-1.7-0.4-2.9-0.4v-1.1c0.6,0,1.5,0.1,2.4,0.1c1,0,1.9,0.1,2.9,0.1
		c0.8,0,1.6,0,2.4-0.1c0.8,0,1.5-0.1,2.1-0.1l20.2,31.1v-24.5c0-1.4-0.1-2.5-0.4-3.3c-0.2-0.8-0.7-1.3-1.5-1.7
		c-0.7-0.3-1.9-0.5-3.3-0.6v-1.1c0.7,0,1.6,0.1,2.7,0.1c1.1,0,2.2,0.1,3.1,0.1c1,0,2,0,2.9-0.1C361,102.6,361.8,102.6,362.4,102.5"
		/>
	<path class="st1" d="M382.6,102.3l14,36c0.6,1.5,1.2,2.4,1.9,2.9c0.7,0.5,1.4,0.7,2,0.8v1.1c-0.8-0.1-1.7-0.1-2.8-0.1
		c-1.1,0-2.2,0-3.3,0c-1.5,0-2.9,0-4.2,0c-1.3,0-2.3,0.1-3.1,0.1v-1.1c1.9-0.1,3.2-0.4,3.7-1c0.5-0.6,0.4-1.9-0.3-3.8l-10.6-28.5
		l0.9-0.7l-10,25.9c-0.8,2.1-1.2,3.7-1.1,4.8c0,1.2,0.5,2,1.3,2.5c0.8,0.5,2.1,0.8,3.7,0.8v1.1c-1.1-0.1-2.2-0.1-3.4-0.1
		c-1.2,0-2.2,0-3.2,0c-1,0-1.8,0-2.4,0c-0.7,0-1.3,0.1-1.9,0.1v-1.1c0.8-0.2,1.5-0.6,2.3-1.3s1.5-1.9,2.2-3.6l13.5-34.7h0.5H382.6z
		 M389.6,126.6v1.1h-17.1l0.6-1.1H389.6z"/>
	<path class="st1" d="M431.5,102.5v1.1c-1.3,0-2.3,0.2-2.9,0.4c-0.7,0.2-1.1,0.7-1.3,1.4c-0.2,0.7-0.3,1.7-0.3,3.1V137
		c0,1.4,0.1,2.4,0.3,3.1c0.2,0.7,0.7,1.1,1.3,1.4c0.7,0.2,1.6,0.4,2.9,0.5v1.1c-0.9-0.1-2-0.1-3.3-0.1c-1.3,0-2.6,0-4,0
		c-1.5,0-2.9,0-4.2,0c-1.3,0-2.3,0.1-3.2,0.1v-1.1c1.3-0.1,2.3-0.2,2.9-0.5s1.1-0.7,1.3-1.4c0.2-0.7,0.3-1.7,0.3-3.1v-28.4
		c0-1.4-0.1-2.5-0.3-3.1c-0.2-0.7-0.7-1.1-1.3-1.4c-0.7-0.2-1.7-0.4-2.9-0.4v-1.1c0.8,0,1.9,0.1,3.2,0.1c1.3,0,2.7,0.1,4.2,0.1
		c1.3,0,2.7,0,4-0.1C429.5,102.6,430.6,102.6,431.5,102.5"/>
	<path class="st1" d="M450.9,102.5v1.1c-1.3,0-2.3,0.2-2.9,0.4c-0.7,0.2-1.1,0.7-1.3,1.4c-0.2,0.7-0.3,1.7-0.3,3.1V137
		c0,1.4,0.1,2.4,0.3,3.1c0.2,0.7,0.7,1.1,1.3,1.3c0.7,0.2,1.6,0.3,2.9,0.3h4.2c2.4,0,4.2-0.3,5.5-1c1.2-0.7,2.1-1.8,2.7-3.4
		c0.6-1.6,1-3.7,1.2-6.3h1.3c-0.1,1.2-0.2,2.7-0.2,4.7c0,0.7,0,1.8,0.1,3.1c0.1,1.4,0.2,2.8,0.3,4.2c-1.9-0.1-4.1-0.1-6.6-0.1
		c-2.4,0-4.6,0-6.5,0h-4.6c-1.9,0-3.9,0-6,0c-2.1,0-4.1,0.1-6,0.1v-1.1c1.3-0.1,2.3-0.2,2.9-0.5s1.1-0.7,1.3-1.4
		c0.2-0.7,0.3-1.7,0.3-3.1v-28.4c0-1.4-0.1-2.5-0.3-3.1c-0.2-0.7-0.7-1.1-1.3-1.4c-0.7-0.2-1.7-0.4-2.9-0.4v-1.1
		c0.8,0,1.9,0.1,3.2,0.1c1.3,0,2.7,0.1,4.2,0.1c1.3,0,2.7,0,4-0.1C448.9,102.6,450,102.6,450.9,102.5"/>
	<path class="st1" d="M469.9,143.1v-1.1c1.3-0.1,2.3-0.2,2.9-0.5c0.7-0.2,1.1-0.7,1.3-1.4c0.2-0.7,0.3-1.7,0.3-3.1v-28.4
		c0-1.4-0.1-2.5-0.3-3.1c-0.2-0.7-0.7-1.1-1.3-1.4c-0.7-0.2-1.7-0.4-2.9-0.4v-1.1c0.8,0,1.9,0.1,3.1,0.1c1.3,0,2.7,0.1,4.2,0.1
		c1.3,0,2.7,0,4-0.1c1.3,0,2.4-0.1,3.3-0.1v1.1c-1.3,0-2.3,0.2-2.9,0.4c-0.7,0.2-1.1,0.7-1.3,1.4c-0.2,0.7-0.3,1.7-0.3,3.1V137
		c0,1.4,0.1,2.4,0.3,3.1c0.2,0.7,0.7,1.1,1.3,1.4c0.7,0.2,1.6,0.4,2.9,0.5v1.1c-0.9-0.1-2-0.1-3.3-0.1c-1.3,0-2.6,0-4,0
		c-1.5,0-2.9,0-4.2,0C471.8,143,470.7,143,469.9,143.1 M477.9,122.1h22.6v1.1h-22.6V122.1z M493.9,143.1v-1.1
		c1.3-0.1,2.3-0.2,2.9-0.5c0.7-0.2,1.1-0.7,1.3-1.4c0.2-0.7,0.3-1.7,0.3-3.1v-28.4c0-1.4-0.1-2.5-0.3-3.1c-0.2-0.7-0.7-1.1-1.3-1.4
		c-0.7-0.2-1.7-0.4-2.9-0.4v-1.1c0.9,0,2,0.1,3.3,0.1c1.3,0,2.7,0.1,4,0.1c1.5,0,2.9,0,4.2-0.1c1.3,0,2.3-0.1,3.1-0.1v1.1
		c-1.3,0-2.3,0.2-3,0.4c-0.7,0.2-1.1,0.7-1.3,1.4c-0.2,0.7-0.3,1.7-0.3,3.1V137c0,1.4,0.1,2.4,0.3,3.1c0.2,0.7,0.7,1.1,1.3,1.4
		c0.7,0.2,1.7,0.4,3,0.5v1.1c-0.8-0.1-1.9-0.1-3.1-0.1c-1.3,0-2.7,0-4.2,0c-1.3,0-2.6,0-4,0C495.9,143,494.8,143,493.9,143.1"/>
	<path class="st1" d="M529.4,102.3l14,36c0.6,1.5,1.2,2.4,1.9,2.9c0.7,0.5,1.4,0.7,2,0.8v1.1c-0.8-0.1-1.7-0.1-2.8-0.1
		c-1.1,0-2.2,0-3.3,0c-1.5,0-2.9,0-4.2,0c-1.3,0-2.3,0.1-3.2,0.1v-1.1c1.9-0.1,3.2-0.4,3.7-1c0.5-0.6,0.4-1.9-0.3-3.8l-10.6-28.5
		l0.9-0.7l-10,25.9c-0.8,2.1-1.2,3.7-1.1,4.8c0,1.2,0.5,2,1.3,2.5c0.8,0.5,2.1,0.8,3.7,0.8v1.1c-1.1-0.1-2.2-0.1-3.4-0.1
		c-1.2,0-2.2,0-3.2,0c-1,0-1.8,0-2.4,0c-0.7,0-1.3,0.1-1.9,0.1v-1.1c0.8-0.2,1.5-0.6,2.3-1.3c0.8-0.7,1.5-1.9,2.2-3.6l13.5-34.7h0.5
		H529.4z M536.4,126.6v1.1h-17.1l0.6-1.1H536.4z"/>
	<path class="st2" d="M350.5,157.9c-0.4,0-0.7,0.1-0.9,0.3c-0.2,0.2-0.3,0.4-0.3,0.8c0,0.3,0,0.7,0,1.1v7.6c0,0.3,0,0.6,0,0.8
		c0,0.2,0,0.4,0,0.6c0.2,0,0.4,0,0.6,0c0.2,0,0.4,0,0.6,0v0.8h-4v-0.6c0.5,0,0.8-0.1,0.9-0.3c0.2-0.2,0.3-0.4,0.3-0.8
		c0-0.3,0-0.7,0-1.1v-7.7c0-0.2,0-0.5,0-0.7c0-0.2,0-0.4,0-0.6c-0.2,0-0.4,0-0.6,0l-0.6,0v-0.8h4V157.9z"/>
	<path class="st2" d="M357.8,169.8v-0.6c0.5,0,0.8-0.1,0.9-0.3c0.2-0.2,0.3-0.4,0.3-0.8c0-0.3,0-0.7,0-1.1v-7.7c0-0.2,0-0.5,0-0.7
		c0-0.2,0-0.4,0-0.6c-0.2,0-0.4,0-0.6,0l-0.6,0v-0.8h4v0.6c-0.4,0-0.8,0.1-0.9,0.3c-0.2,0.2-0.3,0.4-0.3,0.8c0,0.3,0,0.7,0,1.1v7.7
		c0,0.3,0,0.6,0,0.8c0,0.2,0,0.4,0,0.6l3.3-0.1c0.8,0,1.3-0.2,1.7-0.7c0.4-0.5,0.6-1.2,0.6-2.3h0.6l-0.1,3.7H357.8z"/>
	<path class="st2" d="M373.5,169.8v-0.6c0.5,0,0.8-0.1,0.9-0.3c0.2-0.2,0.3-0.4,0.3-0.8c0-0.3,0-0.7,0-1.1v-7.7c0-0.2,0-0.5,0-0.7
		c0-0.2,0-0.4,0-0.6c-0.2,0-0.4,0-0.6,0l-0.6,0v-0.8h4v0.6c-0.4,0-0.7,0.1-0.9,0.3c-0.2,0.2-0.3,0.4-0.3,0.8c0,0.3,0,0.7,0,1.1v3
		h6.4v-3.8c0-0.2,0-0.5,0-0.7c0-0.2,0-0.4,0-0.6c-0.2,0-0.4,0-0.6,0l-0.6,0v-0.8h4v0.6c-0.4,0-0.7,0.1-0.9,0.3
		c-0.2,0.2-0.3,0.4-0.3,0.8c0,0.3,0,0.7,0,1.1v7.6c0,0.3,0,0.6,0,0.8c0,0.2,0,0.4,0,0.6l0.6,0c0.2,0,0.4,0,0.6,0v0.8h-4v-0.6
		c0.5,0,0.8-0.1,0.9-0.3c0.2-0.2,0.3-0.4,0.3-0.8c0-0.3,0-0.7,0-1.1v-3.3l-6.4,0.1v3.8c0,0.3,0,0.6,0,0.8c0,0.2,0,0.4,0,0.6
		c0.2,0,0.4,0,0.6,0s0.4,0,0.6,0v0.8H373.5z"/>
	<path class="st2" d="M391.7,169.8v-0.6c0.4,0,0.6-0.1,0.8-0.3c0.2-0.2,0.4-0.5,0.5-0.8c0.1-0.3,0.3-0.7,0.4-1.2l3.7-10h0.4l4,10.2
		c0.1,0.2,0.2,0.6,0.3,1s0.2,0.7,0.1,1c0.2,0,0.4,0,0.6,0s0.4,0,0.6,0v0.8h-4.1v-0.6c0.5,0,0.8-0.1,0.9-0.3c0.1-0.2,0.2-0.4,0.2-0.7
		c0-0.3-0.1-0.5-0.2-0.7l-0.6-1.7l-4.7,0.1l-0.6,1.9c-0.1,0.3-0.2,0.5-0.2,0.7c-0.1,0.2-0.1,0.4-0.2,0.6c0.2,0,0.5,0,0.7,0
		c0.2,0,0.5,0,0.7,0v0.8H391.7z M395,165.2h4.1l-1.3-3.4c-0.1-0.4-0.3-0.7-0.4-1.1c-0.1-0.4-0.3-0.7-0.4-1.1h0
		c-0.1,0.3-0.2,0.7-0.4,1c-0.1,0.3-0.3,0.7-0.4,1L395,165.2z"/>
	<path class="st2" d="M409.4,169.8v-0.6c0.5,0,0.8-0.1,0.9-0.3c0.2-0.2,0.3-0.5,0.3-0.8c0-0.3,0-0.7,0-1.2v-7.5c0-0.3,0-0.6,0-0.8
		c0-0.2,0-0.4,0-0.6c-0.2,0-0.4,0-0.6,0l-0.6,0v-0.8c0.7,0,1.3,0,2,0c0.7,0,1.3,0,2.1,0c1.4,0,2.5,0.2,3.2,0.7
		c0.8,0.5,1.2,1.3,1.1,2.3c0,0.4-0.1,0.8-0.3,1.1c-0.2,0.4-0.5,0.7-1,1c-0.4,0.3-1,0.5-1.6,0.6v0c1.3,0,2.3,0.3,3,0.9
		c0.7,0.6,1,1.4,1,2.3c0,0.7-0.2,1.4-0.6,1.9c-0.4,0.5-0.9,0.9-1.5,1.2c-0.6,0.3-1.4,0.4-2.2,0.4H409.4z M412.1,169.1
		c0.2,0,0.4,0,0.7,0c0.3,0,0.5,0,0.8,0h0.5c0.9,0,1.7-0.2,2.2-0.7c0.6-0.5,0.9-1.1,0.9-2c0-0.7-0.1-1.3-0.4-1.7
		c-0.3-0.4-0.7-0.7-1.1-0.9s-1-0.3-1.5-0.3c-0.4,0-0.7,0-1,0c-0.3,0-0.6,0-0.9,0v4c0,0.3,0,0.6,0,0.8
		C412.2,168.8,412.1,168.9,412.1,169.1 M412.2,163l1.3,0c0.7,0,1.2-0.2,1.6-0.4c0.4-0.3,0.7-0.6,0.9-1c0.2-0.4,0.3-0.8,0.2-1.3
		c0-0.6-0.2-1.1-0.4-1.5c-0.3-0.3-0.6-0.6-1-0.7c-0.4-0.1-0.8-0.2-1.2-0.2c-0.4,0-0.7,0.1-0.9,0.2c-0.2,0.1-0.3,0.3-0.4,0.5
		c-0.1,0.2-0.1,0.6-0.1,1V163z"/>
	<path class="st2" d="M431.9,165.2c0-0.5-0.1-0.9-0.2-1.1c-0.1-0.2-0.4-0.4-0.7-0.4c-0.3,0-0.7-0.1-1.2,0l-1.3,0.1v4.1
		c0,0.3,0,0.6,0,0.8c0,0.2,0,0.4,0,0.6l3.4-0.1c0.5,0,1-0.1,1.4-0.3c0.4-0.2,0.7-0.4,0.9-0.8c0.2-0.4,0.3-1,0.3-1.7h0.6l-0.1,3.5
		h-9.2v-0.6c0.5,0,0.8-0.1,0.9-0.3c0.2-0.2,0.3-0.4,0.3-0.8c0-0.3,0-0.7,0-1.1v-7.7c0-0.2,0-0.5,0-0.7c0-0.2,0-0.4,0-0.6
		c-0.2,0-0.4,0-0.6,0l-0.6,0v-0.8h8.6l0.1,3.1h-0.6c0-0.7-0.1-1.2-0.3-1.6c-0.2-0.4-0.5-0.6-0.9-0.7c-0.4-0.1-0.8-0.2-1.2-0.2
		l-1.5,0c-0.4,0-0.8,0.1-0.9,0.3c-0.2,0.2-0.3,0.4-0.4,0.7c0,0.3-0.1,0.7-0.1,1.2v2.9l3.4,0l-0.1-1.5h0.8v3.8H431.9z"/>
	<path class="st2" d="M442.2,169.8v-0.6c0.5,0,0.8-0.1,0.9-0.3c0.2-0.2,0.3-0.4,0.3-0.8c0-0.3,0-0.7,0-1.1v-7.7c0-0.2,0-0.5,0-0.7
		c0-0.2,0-0.4,0-0.6c-0.2,0-0.4,0-0.6,0l-0.6,0v-0.8h4v0.6c-0.4,0-0.8,0.1-0.9,0.3c-0.2,0.2-0.3,0.4-0.3,0.8c0,0.3,0,0.7,0,1.1v7.7
		c0,0.3,0,0.6,0,0.8c0,0.2,0,0.4,0,0.6l3.3-0.1c0.8,0,1.3-0.2,1.7-0.7c0.4-0.5,0.6-1.2,0.6-2.3h0.6l-0.1,3.7H442.2z"/>
	<path class="st2" d="M457.1,169.8v-0.6c0.4,0,0.6-0.1,0.8-0.3c0.2-0.2,0.4-0.5,0.5-0.8c0.1-0.3,0.3-0.7,0.4-1.2l3.7-10h0.4l4,10.2
		c0.1,0.2,0.2,0.6,0.3,1s0.2,0.7,0.1,1c0.2,0,0.4,0,0.6,0s0.4,0,0.6,0v0.8h-4.1v-0.6c0.5,0,0.8-0.1,0.9-0.3c0.1-0.2,0.2-0.4,0.2-0.7
		c0-0.3-0.1-0.5-0.2-0.7l-0.6-1.7l-4.7,0.1l-0.6,1.9c-0.1,0.3-0.2,0.5-0.2,0.7c-0.1,0.2-0.1,0.4-0.2,0.6c0.2,0,0.5,0,0.7,0
		c0.2,0,0.5,0,0.7,0v0.8H457.1z M460.4,165.2h4.1l-1.3-3.4c-0.1-0.4-0.3-0.7-0.4-1.1c-0.1-0.4-0.3-0.7-0.4-1.1h0
		c-0.1,0.3-0.2,0.7-0.4,1c-0.1,0.3-0.3,0.7-0.4,1L460.4,165.2z"/>
	<path class="st2" d="M484.7,169.8c0-0.6,0.1-1.2,0.3-1.7c0.2-0.5,0.5-0.9,0.8-1.4c0.3-0.4,0.7-0.8,1.1-1.2c0.4-0.4,0.9-0.8,1.3-1.2
		c0.8-0.7,1.3-1.4,1.7-2.1c0.3-0.6,0.5-1.2,0.5-1.8c0-0.5-0.1-0.9-0.2-1.3c-0.1-0.4-0.3-0.8-0.7-1c-0.3-0.3-0.8-0.4-1.3-0.4
		c-0.5,0-0.9,0.1-1.3,0.4c-0.4,0.2-0.6,0.5-0.8,0.9c0.1,0.1,0.2,0.2,0.3,0.4c0,0.1,0.1,0.3,0.1,0.4c0,0.1,0,0.2-0.1,0.4
		c-0.1,0.1-0.1,0.2-0.3,0.3c-0.1,0.1-0.3,0.1-0.5,0.1c-0.3,0-0.5-0.1-0.6-0.3c-0.1-0.2-0.2-0.4-0.2-0.7c0-0.3,0.1-0.5,0.2-0.8
		c0.2-0.3,0.4-0.6,0.7-0.9c0.3-0.3,0.7-0.5,1.2-0.7c0.5-0.2,1-0.3,1.6-0.3c0.5,0,0.9,0.1,1.4,0.2c0.4,0.1,0.9,0.3,1.2,0.5
		c0.4,0.3,0.6,0.6,0.8,1c0.2,0.4,0.3,0.9,0.3,1.5c0,0.3-0.1,0.6-0.2,1c-0.1,0.3-0.3,0.7-0.6,1.1c-0.3,0.4-0.6,0.8-1.1,1.3
		c-0.4,0.4-1,0.9-1.6,1.5c-0.8,0.7-1.5,1.3-2,1.9c-0.5,0.6-0.8,1.1-0.9,1.5l3.2,0.1c0.6,0,1.1,0,1.5,0c0.4,0,0.8-0.1,1.1-0.3
		c0.3-0.2,0.4-0.5,0.4-1h0.5l-0.1,2.5H484.7z"/>
	<path class="st2" d="M504.4,170.1c-0.9,0-1.7-0.2-2.3-0.6c-0.6-0.4-1.1-0.9-1.4-1.5c-0.3-0.6-0.6-1.3-0.7-2.1
		c-0.1-0.8-0.2-1.5-0.2-2.3c0-0.8,0.1-1.5,0.3-2.3c0.2-0.8,0.4-1.5,0.8-2.1c0.4-0.6,0.8-1.2,1.4-1.6c0.6-0.4,1.3-0.6,2.1-0.6
		c0.9,0,1.6,0.2,2.2,0.6c0.6,0.4,1,0.9,1.4,1.5c0.3,0.6,0.6,1.3,0.7,2.1c0.1,0.8,0.2,1.5,0.2,2.3c0,0.7-0.1,1.5-0.2,2.3
		c-0.2,0.8-0.4,1.5-0.8,2.1s-0.8,1.2-1.4,1.6C505.9,169.9,505.2,170.1,504.4,170.1 M504.5,169.4c0.5,0,0.9-0.2,1.3-0.5
		c0.3-0.3,0.6-0.8,0.8-1.3c0.2-0.5,0.3-1.1,0.4-1.8c0.1-0.6,0.1-1.3,0.1-2c0-0.7,0-1.5-0.1-2.2c-0.1-0.7-0.2-1.4-0.4-2
		c-0.2-0.6-0.5-1.1-0.8-1.5c-0.3-0.4-0.8-0.6-1.3-0.6c-0.5,0-0.9,0.2-1.3,0.5c-0.4,0.3-0.6,0.8-0.9,1.3c-0.2,0.5-0.4,1.1-0.5,1.8
		c-0.1,0.7-0.1,1.3-0.1,2c0,0.5,0,1,0.1,1.6c0,0.6,0.1,1.1,0.3,1.7s0.3,1,0.5,1.5c0.2,0.4,0.5,0.8,0.8,1.1
		C503.6,169.3,504,169.4,504.5,169.4"/>
	<path class="st2" d="M516,169.8c0-0.6,0.1-1.2,0.3-1.7c0.2-0.5,0.5-0.9,0.8-1.4c0.3-0.4,0.7-0.8,1.1-1.2c0.4-0.4,0.9-0.8,1.3-1.2
		c0.8-0.7,1.3-1.4,1.7-2.1c0.3-0.6,0.5-1.2,0.5-1.8c0-0.5-0.1-0.9-0.2-1.3c-0.1-0.4-0.3-0.8-0.7-1c-0.3-0.3-0.8-0.4-1.3-0.4
		c-0.5,0-0.9,0.1-1.3,0.4c-0.4,0.2-0.6,0.5-0.8,0.9c0.1,0.1,0.2,0.2,0.3,0.4c0,0.1,0.1,0.3,0.1,0.4c0,0.1,0,0.2-0.1,0.4
		c-0.1,0.1-0.1,0.2-0.3,0.3c-0.1,0.1-0.3,0.1-0.5,0.1c-0.3,0-0.5-0.1-0.6-0.3c-0.1-0.2-0.2-0.4-0.2-0.7c0-0.3,0.1-0.5,0.2-0.8
		c0.2-0.3,0.4-0.6,0.7-0.9c0.3-0.3,0.7-0.5,1.2-0.7c0.5-0.2,1-0.3,1.6-0.3c0.5,0,0.9,0.1,1.4,0.2c0.4,0.1,0.9,0.3,1.2,0.5
		c0.4,0.3,0.6,0.6,0.8,1c0.2,0.4,0.3,0.9,0.3,1.5c0,0.3-0.1,0.6-0.2,1c-0.1,0.3-0.3,0.7-0.6,1.1c-0.3,0.4-0.6,0.8-1.1,1.3
		c-0.4,0.4-1,0.9-1.6,1.5c-0.8,0.7-1.5,1.3-2,1.9c-0.5,0.6-0.8,1.1-0.9,1.5l3.2,0.1c0.6,0,1.1,0,1.5,0c0.4,0,0.8-0.1,1.1-0.3
		c0.3-0.2,0.4-0.5,0.4-1h0.5l-0.1,2.5H516z"/>
	<path class="st2" d="M535.7,170.1c-0.9,0-1.7-0.2-2.3-0.6c-0.6-0.4-1.1-0.9-1.4-1.5c-0.3-0.6-0.6-1.3-0.7-2.1
		c-0.1-0.8-0.2-1.5-0.2-2.3c0-0.8,0.1-1.5,0.3-2.3c0.2-0.8,0.4-1.5,0.8-2.1c0.4-0.6,0.8-1.2,1.4-1.6c0.6-0.4,1.3-0.6,2.1-0.6
		c0.9,0,1.6,0.2,2.2,0.6c0.6,0.4,1,0.9,1.4,1.5c0.3,0.6,0.6,1.3,0.7,2.1c0.1,0.8,0.2,1.5,0.2,2.3c0,0.7-0.1,1.5-0.2,2.3
		c-0.2,0.8-0.4,1.5-0.8,2.1c-0.4,0.6-0.8,1.2-1.4,1.6C537.3,169.9,536.5,170.1,535.7,170.1 M535.8,169.4c0.5,0,0.9-0.2,1.3-0.5
		c0.3-0.3,0.6-0.8,0.8-1.3c0.2-0.5,0.3-1.1,0.4-1.8c0.1-0.6,0.1-1.3,0.1-2c0-0.7,0-1.5-0.1-2.2c-0.1-0.7-0.2-1.4-0.4-2
		c-0.2-0.6-0.5-1.1-0.8-1.5c-0.3-0.4-0.8-0.6-1.3-0.6c-0.5,0-0.9,0.2-1.3,0.5c-0.4,0.3-0.6,0.8-0.9,1.3c-0.2,0.5-0.4,1.1-0.5,1.8
		c-0.1,0.7-0.1,1.3-0.1,2c0,0.5,0,1,0.1,1.6c0,0.6,0.1,1.1,0.3,1.7s0.3,1,0.5,1.5c0.2,0.4,0.5,0.8,0.8,1.1
		C535,169.3,535.4,169.4,535.8,169.4"/>
</g>
<g>
	<defs>
		<polyline id="SVGID_6_" points="-27.3,641.3 -27.3,-150.7 584.7,-150.7 584.7,641.3 		"/>
	</defs>
	<clipPath id="SVGID_7_">
		<use xlink:href="#SVGID_6_"  style="overflow:visible;"/>
	</clipPath>
	<path class="st3" d="M534.7,624.6 M535.5,603.6c-0.5,0.6-0.8,0.9-1,1.8 M535.7,624.6c-0.2,0-0.4-0.3-0.1-0.6"/>
</g>
</svg>
