<?xml version="1.0" encoding="utf-8"?>
<!-- Generator: Adobe Illustrator 22.0.0, SVG Export Plug-In . SVG Version: 6.00 Build 0)  -->
<svg version="1.1" id="Layer_1" xmlns="http://www.w3.org/2000/svg" xmlns:xlink="http://www.w3.org/1999/xlink" x="0px" y="0px"
	 viewBox="0 0 472.9 367.8" style="enable-background:new 0 0 472.9 367.8;" xml:space="preserve">
<style type="text/css">
	.st0{fill:#FFFFFF;}
	.st1{fill:#B9E1D4;}
	.st2{fill:#505768;}
	.st3{fill:#FBD6E5;}
	.st4{fill:#E0777A;}
</style>
<g>
	<g>
		<path class="st0" d="M426.2,197.1c-34.5,161.4-40,170.4-182.2,132c-70.5-19-183.5-14.4-195.6-132C37.6,91.5,140.8,5.7,230.9,1.8
			C333.6-2.6,448.3,93.3,426.2,197.1z"/>
		<g>
			<g>
				<g>
					<g>
						<path class="st1" d="M182.5,21.7c-9.7,3.5-20,6-29.1,11.2c-6.8,3.9-13.3,8.6-19.8,13c-11.4,7.6-23,17.4-32.6,27.1
							C88.8,85.2,79.4,102.3,72.3,118c2.9-2.8,5.2-9,8.8-10.4c0,4.5-5.1,10.8-7.2,14.8c-2.6,5.2-4.8,10.5-6.7,15.8
							c-4.3,12.3-7.4,24.5-9.2,37.3c-1.7-2.2-1.7-5.1-2.2-7.8c-4.8,24.4,5,48.1,11.9,71.2c3.6,12,9.6,23.1,17.2,33.3
							c3.2,4.3,6.9,8.4,10.2,12.6c2.5,3.3,4.9,6.8,8.7,8.8c2.5,1.3,5.8,2.2,8.5,3.7c6.4,3.4,12.2,7.7,18.7,10.9
							c17.3,8.4,35.6,11.9,54.3,15.9c15,3.2,30.5,5.2,45.7,5.9c8.2,0.4,16.7,0.9,24.9,0c9.6-1,19.3-2.6,29-2.7
							c12.3-0.1,26.6-4.2,37.6-9.6c11.4-5.6,22.5-12.5,33.1-19.6c10.6-7,18.7-15.8,26.7-25.4c10-12,20.9-22.5,24.9-37.9
							c4-15.3,6.7-30.1,8.7-45.9c1.3-10.3,1.7-19.4,0.3-29.6c-1.2-8.9-3.6-17-6.3-25.5c-1.8-5.5-2.9-12.2-6.2-17.1
							c-3.2-4.8-6.1-10-8.5-15.3c-2.1-4.7-5.5-8.6-7.8-13.2c-1.1-2.2-2.7-4-3.9-6c-0.9-1.6-0.6-2.1-2.1-3.4
							c-0.9-0.8-3.1-1.5-4.2-2.2c-1-0.5-2.1-0.8-3-1.6c1.2,2.5,4.3,5.4,4.3,8.1c-3.2-2.9-7.7-3.5-10.8-6.6c-3-3-5.3-6.6-8.3-9.6
							c-7.5-7.3-17.4-14-23.4-22.4c5.5,1.8,12.5,4.9,15.4,10.1c0.2-6.4-6.1-10.3-11.5-12.1c-7.6-2.6-13.5-7.3-20.8-10.8
							c-7-3.4-13.5-8.1-20.8-10.9c-7.5-2.8-15.9-4.7-23.8-6.6c-8.4-2.1-17.5-5.5-26.1-6.4c-4.5-0.5-8.5,1.3-12.8,2.1
							c-2.8,0.5-7.1,0.1-9.6,1.3c1.7,2.8,8.8,1.7,11.8,1.8c4.6,0.2,9.1,0.6,13.6,1.1c6,0.6,17.7,1.7,20.7,7.8
							c-4.1,1.4-7.3-0.6-11.2-1.5c-3.6-0.9-7.2-0.3-10.9-0.7c-6.5-0.7-13.4-0.6-20.1-0.9c-10.5-0.5-21.4-0.5-31.9-0.1
							c-5.6,0.2-9.3,4.3-13.9,6.9c-12.4,7.2-25.7,14.3-37.7,22.5c-8.3,5.7-16,12.1-24,18c1.5-5.5,9.9-13,14.2-16.7
							c4.8-4,10.3-7.4,15.8-10.2c5.1-2.6,10.2-5.3,15.1-8.1c4.2-2.4,8.3-5.7,12.7-7.4c1.5-0.6,3.2-1,4.5-2c-1.4-0.5-3.1-0.9-3.9,0.6
							"/>
						<path class="st0" d="M102.3,93.7c-11.6,12.4-20.6,28.1-24.5,44.9c-1.7,7.1-3.1,14.2-4.3,21.4c-0.7,4.1-0.4,8.9-1.6,12.8
							c0.7-4.6,1.6-9.6,3.5-14c1.6-3.6,4.5-6.9,5.7-10.5c-3.2,1.1-1.2-5-0.8-6.4c1.5-4.5,3.8-8.5,6-12.6c2.8-5.2,6-10,8.9-15.1
							c2.2-3.9,6.7-8.3,7.9-12.4c-7.3,4.5-2-3.4-1.6-6.7"/>
						<path class="st0" d="M72.9,223.1c0.6,8.6,2,22.1,9.2,28c0.4-3.8-1.7-7.9-2.6-11.5c-0.9-3.6-1.1-7.3-2-10.8
							c0,1.4-0.2,2.8-1,3.9c-2.6-2.4-3.2-7-4-9.9"/>
						<path class="st0" d="M397.8,221.1c1.4,3.2-2.5,8.9-3.5,11.9c-1.3,3.5-3.4,7.1-3.4,10.8c5.4-5.4,9.1-16.2,11.5-23.3
							c-1.4,1-2.4,3.4-4.2,3.5c-0.1-0.8-0.2-1.8,0-2.6"/>
						<path class="st0" d="M404,147.2c0.7,5.4,1.9,12.5,1.6,18.8c-0.3,6.5-1.5,13-1.2,19.5c5.5-2.9,3.6-19.1,3.6-24.7
							c0-4.3-1.5-12.5-4.6-15.4c0,1,0.1,2,0.4,2.8"/>
						<path class="st0" d="M245.2,26.7c8.6-2.4,18.1-0.9,26.5,2c4.5,1.6,9.2,2.7,13.5,4.9c1.8,0.9,6.2,2.7,6.9,4.6
							c-5.7,0.3-7.7-3.2-12.5-5.5c-3.6-1.7-8.4-2-12.2-3c-7.5-2.1-13.8-4.9-21.8-2.3"/>
						<path class="st0" d="M288.2,120.5c1.9,2,4,4.7,5,7.2c2.2-2-1.9-5.8-4-6.2c-0.1,0.3,0,0.6,0,0.9"/>
						<path class="st0" d="M149.2,194.7c-0.2,3.6-0.3,9.5,3.9,10.9c-0.8-4-2.8-6.7-4.2-10.2"/>
					</g>
				</g>
				<path class="st1" d="M371.7,65.3c-1.3-3-7.4-5.9-10.3-7.4c-5.2-2.6-2.3,1.6,0.4,3.6c3.5,2.6,6.9,5.5,10.5,8
					c1.8,1.2,6.1,5.7,7.9,5.6c0-5-7.6-10.5-11.5-12.5"/>
			</g>
			<path class="st0" d="M72.6,303.8c-2.4-3.6-4-7.5-5.3-19.2c-0.4-3.3,0.7-13.7,2.3-16.6c2.2-4,2-3.3,6-4.9c2.6-1,4.7-3,7.3-4.2
				c2.6-1.1,5.1-1.4,7.9-1.7c5.8-0.6,10.7-0.6,15.4,3.4c4.4,3.7,5.8,9.3,4.7,14.8c-0.5,2.6-5.7,11.9-3,12.9
				c2.3,0.8,9.1-4.4,10.9-5.6c3.8-2.5,7.8-4.6,11.9-6.6c3.9-1.9,7-3.8,10.6-6.3c3.5-2.4,7-7.6,10.8-9c0.2,1.3-0.2,2.5-0.9,3.5
				c2.7-0.2,7-4.2,9.2-5.9c3.4-2.6,6.1-5.6,9.1-8.6c-0.7,0.3-1.2,0.2-1.8,0.6c1.4-2.5,3.9-3.6,5.8-5.7c1.7-1.9,3.2-4.1,5-5.9
				c1.9-1.9,3.5-3.6,4.7-6.1c1.7-3.4,1.2-3.2-1-5.8c-3.5-4.1-7-6.4-8.9-11.8c-1.8-5.1-2.9-9.8-1.1-15.2c1.9-5.5,3.9-10.2,7.6-14.5
				c1.8-2.1,3.8-4.3,6-5.9c1.8-1.3,4.3-1.6,5.5-3.6c-5.5-0.3-8.8,0.5-12-5.4c-2.7-5-1.1-9.9,2.1-14.3c1.5-2,3-4.5,5.7-4.9
				c3.6-0.5,4.7,2.5,7.3,3.6c3.5,1.4,3.9-0.6,3.9-3.9c0-3.3-1.2-4.8-3.3-7.2c-1.7-1.8-3.1-4.5-4.9-6.1c-2.3-2.1-2.7-1.3-4.8,0.7
				c-4.4,4.1-9,7.9-13.1,12.3c-7.1,7.7-10.8,17.9-18.5,25.5c-7.5,7.4-17.3,11.7-24.6,19.3c-3.1,3.2-6.5,6.9-8.9,10.6
				c-1.4,2.2-2.3,4.8-3.3,7.3c-0.8,1.9-1.3,5.7-2.6,7.2c-4.1,4.5-6.7-10.7-7.2-13.4c-6.8-0.6-20.7-8-23.1-14.9c-3-8.8,6-4.2,10-3.3
				c4.7,1,10.8,1.5,15.5,0c0.5-0.1,0.7-0.3,1.2-0.3c-0.2-0.1-0.6,0-0.8-0.1c4.4-3,8.6-5.8,11.5-10.1c3.4-4.9,6.8-9.4,10.2-14.2
				c3.6-5.1,7.3-10,11.8-14.3c3.9-3.6,8.7-6.5,12.1-10.6c3.1-3.7,4.4-7.6,6.6-11.8c2.7-5.1,6.8-8.8,10.3-13.2
				c6.4-8,11.8-15,21.7-17.9c0.3-2.5-4.5-0.8-6.6-0.9c-2.9-0.2-5.8-0.4-8.2-2c0.4-0.2,1.1-1.3,1.6-1.6c-2.7-0.9-5.9-1.2-8.2-3.1
				c-3.9-3.2-0.3-2.9,2-5.2c-1.8-2-5.3-2.4-6.9-4.9c-1-1.6-2.1-6.6-0.7-8.3c1.9-2.3,5,1,6.2-2.3c0.5-1.4-0.1-6.2-0.3-7.9
				c-0.8-5.2-2.1-9.6-1.6-15.2c0.5-5.5,3.2-11.5,5.9-16.2c7-11.8,22.8-17.1,35.6-18.4c5.3-0.6,12.2,0.5,16.7,3.5
				c1.9,1.2,3.3,3.8,4.8,5.4c1.9,1.9,4,3.2,5.4,5.5c1.9,3.1,4,8.3,4.9,12c0.6,2.4,0.4,4.5,1.4,6.9c0.7,1.8,1.9,3.1,2.2,5
				c0.7,4.3,0,9.9-0.3,14.2c-0.4,4.6-3.2,8.7-3.3,13.1c3.3,1.2,8.2,2.1,7.5,6.7c-0.5,3.1-4.8,8.3-8.2,7c0.5,4.5-3.9,2.7-5.7,5.6
				c1,1.1,0.9,1.8-0.6,2.1c4.1,2.2,7.4,8.2,10.8,11.5c4.3,4.1,9,8.7,12.6,13.6c3.4,4.6,7.5,5.7,12.1,8.7c3.7,2.4,7.5,5.3,11,7.9
				c5.3,3.9,10.2,7.4,13.3,13.4c1.6,3.1,2.4,4.9,4.9,7.6c1.6,1.7,4.3,8.5,7.1,8.3c1.7-3.3,2.2-9.9,2.3-13.5
				c0.1-2.6-4.8-13.4,1.7-11.9c-0.6-3.8-1.5-8,0.7-11.5c1.6-2.6,7.8-6.3,10-2.4c2.5,0.6,5.2-6.5,8.2-7.5c5.3-1.8,3,3.1,5.5,5
				c3,2.2,5.3-1.6,8,1.9c1.3,1.7-0.6,2.2,2.3,2.7c1.8,0.3,3.9-1.3,5.9-1c0.3,1.5-0.4,3-1.2,4.2c2.2-1.2,3.9-2.8,6.9-1.5
				c2.9,1.2,2,3.6,3.6,5.1c2,2,5.3,0.4,5.3,4.4c0,1.1-1.6,2.5-1.3,3.3c0.5,1.6,1.8,0.6,3,1.4c1.9,1.2,4.7,4.8,5,7.2
				c0.3,2.5-1.9,4.3-2,6.6c-0.1,3.1,2,4.5,0.3,7.3c-0.6,0.9-2,0.8-2.3,2.3c-0.1,0.9,1.4,2.6,1.7,3.6c1.4,4.9-1.9,5.4-4.3,6.9
				c-2.1,1.3-5.2,8.4-7.9,5.4c-0.6,1.6-1.2,3.3-2.6,4.3c-2.2,1.5-2.1,0.2-3.9-0.2c-0.8-0.1-1.2-0.6-2.1-0.6c-1.2,0-1.7,1.5-3,1.3
				c-1.5-0.2-2.4-2.1-3.9-2.3c-0.6,5.5-9.9,2.9-13.9,3.6c-5.2,0.9-8.9,5.7-13.2,8.5c-2.4,1.6-3.9,2.7-5.4,5.4
				c-1.1,2-1.8,5.4-4.5,5.3c-3.5-0.1-2.1-4.1-4-5.5c-1.2-0.9-7.7-1-3.5-4.4c-2.7-2-3.8-1.5-4-5.3c-0.1-0.9-0.4-3.1,0-4
				c0.6-1.4,2-1.1,2.7-2.2c2.5-3.8-3.3-10.1-6.3-12.4c-3.5-2.6-9.2-5.4-13.3-6.8c-5.4-1.9-10-2.9-13.6-7.9
				c-5.8-8.2-10.7-16.2-18.5-23.1c-1.5-1.3-4.8-3.9-7.2-2.3c-1.7,1.1-1.1,5.7-1.3,7.6c-0.4,4.1,3.7,9.9,5.6,14.2
				c2,4.7,3.6,8.8,6.7,12.8c4.8,6.1,9.3,11.9,15,17.3c2.5,2.3,4.5,5.1,7.3,7.3c2.6,2.1,5.2,4.3,7.4,6.9c3.6,4.2,5.9,9,9.5,13.2
				c8.8,10.4,14.3,22.1,24.7,31c5.8,5,11.9,9.5,17.5,14.5c4.6,4,10,6.1,14.9,9.6c6.6,4.7,19.3,14.2,27.6,9.2
				c-3.6-3.3-4.8-11.6-3.3-16.1c2.4-7,11.8-12.1,19.1-10.8c14.6,2.5,23,27.3,18.2,39.5c-2.5,6.3-5.3,12.5-11.5,15
				c-21.9,8.9-26.5,16.7-30.9,20.4c-2.6,2.2,14.5-15.6,11-15.6c-8.7,0-17.3-1.8-26.1-1c-9.5,0.8-18.5,6.5-27.1,10.3
				c-32,13.8-50.5,24.6-89.7,5.7c-17.2-8.3-25.6,32-49.6,23.8C186.3,352.4,100.1,344.6,72.6,303.8z"/>
		</g>
	</g>
	<g>
		<path class="st0" d="M43.3,297.2c0,0-4.5-6.7-14.5-3c-11.1,4.2-14.5,10-16.4,16.6c-1.4,4.9-1.2,12.7,9.1,10.2
			c0,0-10.1,13-12.9,25.5c-1,4.7-1.5,11.2,3.8,12.9c7.9,2.5,14.4-1.5,16.2-8.3c3.1-11.8,7.4-21.5,10.4-22.8c3-1.3,3,4,1.6,8.1
			c-1.3,4-3.4,12.1-0.8,18.8c1.9,5,9.7,9.8,18.3,2.7c0,0,7.2,3.2,14.8-0.8c7.5-4,11-6.4,14.2-10.7c0,0,0.8,0.5,3.5-0.3
			c0,0,0.3,15.5,10.7,15c10.5-0.5,11.3-2.9,12.9-6.4c0,0,5.9,7.5,12.9,6.4c7-1,14-8,17.5-17.7c0,0,3.2,1.9,7,1.1
			c0,0,8.3,26.8,26.3,11.5c0,0,5.9,5.4,16.4,1.6c0,0,6.4,7.5,16.6-10.5c0,0,4,16.9,20.1,10.2c0,0,7.9,6.1,14-4.9
			c4.8-8.6,6.4-16.1,8.6-16.6c0,0-5.4,17.6,5.4,22.3c10.7,4.6,16.1,0.3,18.8-3c0,0,4.6,8.3,18,1.6c0,0,14.8,4.6,19.9-3.2
			c0,0,7.8,14.5,20.7,0c0,0,19.9,13.4,34.1-8.9c0,0,0.8,0.3,3.5-0.3c0,0-3.3,13.4,4.8,16.7c6,2.4,12.7,2.4,17.2-3
			c0,0,11,3.2,16.6-3.8c0,0,6.2,16.1,22,3.5c0,0,8.1,7.5,20.4-7s5.9-11.3,12.3-14.5c6.4-3.2-7.5-16.2-15.6-8.5c0,0,6.7-17.8-11-18.4
			c-17.7-0.5-25.2,14.5-25.2,14.5s-0.9-13.2-10.2-16.4c-13.3-4.5-19.3,7.3-23.4,17.2c-2.1,5-4.6,4.8-4.8,3.1s0.7-11.7-3.8-16.5
			c-5.4-5.9-14-7.5-26,4.6c-12.1,12.1-14.8,21.5-18.3,22.3c0,0-0.2-6.6,2.4-10.4c2.6-3.7,5.2-7.9,4.7-10.6c0,0,10.7-3.1,5.5-13.9
			c-5.2-10.7-21.2-0.7-17.3,6.9c0,0-3,1.6-3.7,5c-0.4,2.1-4.1,2.9-4.4,0.8c-0.6-5.8-0.6-11.8-16.5-8.2
			c-12.3,2.8-20.7,21.7-23.8,25.4c-3.1,3.7-6,5-5.2,2.9s7.7-10.3,8.6-15.5c1.5-8.1-2.1-12.9-7.7-13.8c-5.5-0.9-14.3,0.4-16.1,2.5
			c0,0-1.4-6.5-5.6-5.5c-4.2,1-6.4,3.1-9,8.5c-1.4,3.1-2.4,8.6-4.9,11.2c-2.4,2.6-3,4.6-3.6,1.8c-0.4-1.7,0.6-10,4.3-16.7
			c3.1-5.5,0.9-11.5-2-13.9c-1.7-1.4-9.2-2.6-15.2,5.8c-6,8.4-12.7,24.3-18,26.8c-5.2,2.5-4.2-0.7-4.2-2.8s0.5-13.6-9.4-14.7
			c-10-1-22.3-1.8-29.3,12.6c0,0,1.4-7.5-0.8-11.8c-2.7-5.3-15.5-9.2-19.4,0.5c0,0-2.1-6.6-10.5-4.7c-4.6,1.1-6,6-7.1,8.6
			s-2.6,7.9-3.9,8.6l-0.5-7.3c0,0,9.5-10.1,0.3-16c-5.5-3.5-12.4-3.5-14.6,0.8c-1.5,3.1-1.7,7.3-0.4,9.6c0,0-7.3,5.5-7.6,13.4
			c0,0,0.3-10-3.1-13.9c-6.5-7.4-23.2-3.4-28.4,4.4c0,0,2.5-14.8-1.2-18.2C57.5,293.3,52.1,290.1,43.3,297.2z"/>
		<g>
			<g>
				<g>
					<path class="st2" d="M15.1,352.1c-0.2,0-0.5,0-0.8-0.1c-0.4-0.2-0.7-0.6-0.9-1c-0.2-0.5-0.1-0.9,0.1-1.4c0,0,0.5-1,1.4-2.7
						c0.9-1.8,2.1-4.1,3.6-7c2.3-4.6,4.3-8.8,6-12.4c1.7-3.7,3.1-7,4.3-9.9c0.8-2,1.5-3.7,2-5.3c0.5-1.5,0.9-2.9,1.1-4.1
						c0.2-1.2,0.4-2,0.4-2.5c0-0.5,0-0.9-0.1-1c-0.2,0-0.5,0.1-1,0.2c-0.5,0.1-1.2,0.6-2.2,1.2c-2.1,1.4-4.7,3.6-7.9,6.5
						c-0.4,0.4-0.8,0.6-1.3,0.5c-0.5,0-0.9-0.2-1.3-0.6c-0.3-0.4-0.5-0.8-0.5-1.3c0-0.5,0.2-0.9,0.6-1.3c3.8-3.5,6.9-5.9,9.1-7.3
						c0.3-0.1,0.7-0.4,1.2-0.6c0.5-0.3,1.1-0.5,1.7-0.7c0.6-0.2,1.2-0.3,1.9-0.3c0.6,0,1.2,0.3,1.8,0.7c1.1,0.9,1.6,2.4,1.4,4.6
						c-0.1,2.2-0.9,5.3-2.4,9.3c0.9-1.3,1.9-2.5,2.8-3.7c0.9-1.2,1.8-2.2,2.7-3.2c4.9-5.3,9.2-8,12.8-7.9c1.4,0,2.4,0.3,3.1,0.8
						c0.7,0.5,1.2,1,1.6,1.5c0.7,1.1,1.1,2.5,1.1,4.1s-0.2,3.5-0.7,5.5c-0.5,2-1.1,4.3-2,6.7c-0.9,2.4-1.8,4.9-2.8,7.5
						c-0.9,2.4-1.8,4.9-2.6,7.2c-0.9,2.4-1.5,4.6-2.1,6.7c-0.7,2.5-0.9,4.4-0.8,5.7c0.1,1.2,0.3,2.1,0.7,2.5
						c0.3,0.4,0.4,0.8,0.3,1.3c-0.1,0.5-0.3,0.9-0.7,1.2c-0.4,0.3-0.8,0.4-1.3,0.3c-0.5-0.1-0.9-0.3-1.2-0.7
						c-0.8-1.1-1.2-2.6-1.3-4.4c0-1.8,0.3-4,0.9-6.7c0.5-2.2,1.2-4.5,2.1-6.9c0.9-2.4,1.8-4.9,2.7-7.3c0.9-2.3,1.7-4.6,2.5-6.8
						c0.8-2.3,1.5-4.4,2-6.3c0.6-2.4,0.9-4.1,0.8-5.2c-0.1-1.1-0.2-1.8-0.5-2.2c-0.1-0.1-0.3-0.3-0.5-0.5c-0.2-0.2-0.7-0.3-1.4-0.3
						h-0.1c-0.7,0-1.7,0.3-2.9,0.8c-1.2,0.5-2.7,1.6-4.5,3.2c-1.8,1.6-3.8,3.9-6.2,7c-2.4,3-5.1,7-8.1,12c-1.6,2.5-3,5-4.4,7.4
						c-1.4,2.4-2.6,4.7-3.8,6.8c-1.5,3-3.1,6.3-4.9,9.7C16.3,351.8,15.7,352.1,15.1,352.1z"/>
				</g>
				<g>
					<path class="st2" d="M99,332.8c0.3,0.4,0.4,0.8,0.3,1.3c-0.1,0.5-0.3,0.9-0.7,1.2c-0.9,0.7-1.9,1.3-3,1.8
						c-1.1,0.5-2.2,0.9-3.4,1.3c-0.8,0.2-1.6,0.3-2.4,0.4c-0.8,0.1-1.7,0.1-2.5,0.1c-0.3,0-0.6,0-1,0c-0.3,0-0.6,0-1-0.1
						c-0.5,0-1-0.1-1.5-0.2c-0.5-0.1-1-0.2-1.5-0.3c-0.7,1.4-1.5,2.7-2.5,4c-2.2,2.9-4.6,5.1-7.3,6.6c-2.7,1.5-5.5,2.3-8.4,2.3
						c-0.3,0-0.6,0-0.8,0c-0.3,0-0.5,0-0.7-0.1c-3-0.3-5.2-1.3-6.7-3c-1.4-1.6-2-3.7-1.9-6.3c0.1-2.6,1-5.6,2.7-8.8
						c0.8-1.4,1.6-2.9,2.6-4.3c1-1.4,2.1-2.9,3.3-4.3c2.4-2.8,4.9-5,7.6-6.7c2.9-1.9,5.6-2.9,8.1-2.9c0.5,0,0.8,0,1.1,0.1
						c2.5,0.3,4.3,1.5,5.7,3.7c1,1.9,1.4,4.3,1.3,7.1c-0.1,2.6-0.8,5.4-1.8,8.4c-0.1,0.1-0.2,0.2-0.2,0.4c0,0.1-0.1,0.3-0.2,0.4
						c0.6,0.1,1.1,0.2,1.7,0.2c2.1,0.2,4.1,0,5.9-0.5c1.9-0.5,6.2-2.5,8.6-9.6c0.2-0.5-1.9,7.1-1.4,7.1
						C99.2,332.5,98.7,332.4,99,332.8z M77,340.2c0.7-0.9,1.3-1.8,1.9-3c-2.1-1-3.8-2.2-5-3.7c-2-2.3-2.8-4.9-2.4-7.9
						c0.3-1.9,1.1-3.9,2.5-6.1c-1.4,0.7-2.9,1.6-4.4,2.9c-1.5,1.2-3,2.7-4.5,4.4c-1.1,1.3-2.1,2.6-3,4c-0.9,1.3-1.7,2.7-2.4,4
						c-0.7,1.3-1.2,2.6-1.6,3.8c-0.4,1.2-0.6,2.3-0.6,3.3c-0.1,3.3,1.7,5.1,5.4,5.5c0.2,0,0.4,0.1,0.6,0.1c0.2,0,0.4,0,0.6,0
						c2.4,0,4.6-0.6,6.9-1.9C73.1,344.4,75.1,342.6,77,340.2z M82.6,325.8c0-0.6,0-1.2,0-2c0-0.7-0.2-1.5-0.4-2.1
						c-0.2-0.7-0.5-1.3-1-1.8c-0.4-0.6-1.1-0.9-1.8-1.1c0,0-0.1,0.1-0.1,0.1c0,0-0.1,0.1-0.1,0.1c-2.5,2.5-3.9,4.9-4.2,7.2
						c-0.3,1.8,0.2,3.5,1.6,5c0.9,1.2,2.3,2.1,4,2.8C81.7,331.2,82.4,328.5,82.6,325.8z"/>
				</g>
				<g>
					<path class="st2" d="M120.9,333.3c0.4,0.3,0.6,0.7,0.7,1.2c0.1,0.5,0,0.9-0.3,1.3c-2.4,3.1-4.6,5.8-6.7,8c-2.1,2.2-4.1,4-6,5.3
						c-1.4,1-2.7,1.6-3.8,2c-1.1,0.4-2.1,0.6-2.9,0.6c-1.2,0-2.2-0.3-3-0.9c-0.5-0.3-1-0.7-1.5-1.3c-0.4-0.6-0.8-1.4-1.1-2.3
						c-0.3-1-0.5-2.2-0.5-3.6c0-1.4,0.1-3.1,0.4-5.1c0.5-3.1,1.7-6.4,2.8-10.2c1.2-3.8,3.1-7.6,5.3-11.7c0.2-0.4,0.6-0.7,1-0.9
						c0.4-0.1,0.9-0.1,1.4,0.1c0.4,0.2,0.7,0.6,0.8,1c0.1,0.5,0.1,0.9-0.1,1.3c-2.6,5-4.5,9.3-5.6,12.7c-1.1,3.4-1.8,6.1-2.2,8.1
						c-0.4,2.7-0.5,4.7-0.2,6.1c0.3,1.4,0.7,2.2,1.3,2.6c0.5,0.4,1.3,0.4,2.3,0.1c1-0.3,2.2-0.9,3.5-1.8c1.7-1.2,3.6-2.9,5.6-5
						c2-2.1,6-5.7,8.6-12.6c0.2-0.5-1.5,4.3-1.1,4.3C120.1,332.8,120.6,332.9,120.9,333.3z M108,312.5c-0.8,0-1.4-0.2-1.7-0.7
						c-0.3-0.5-0.4-1.1-0.1-1.9c0.3-0.8,0.9-1.5,1.6-2.1c0.7-0.6,1.5-0.9,2.3-0.9c0.8,0,1.4,0.2,1.7,0.7c0.3,0.5,0.3,1.2,0,2
						c-0.3,0.8-0.8,1.4-1.6,2C109.6,312.2,108.8,312.5,108,312.5z"/>
				</g>
				<g>
					<path class="st2" d="M122.9,348.5c-1.2,0-2.1-0.2-2.8-0.7c-0.7-0.5-1.1-1-1.4-1.5c-1.1-1.8-1.3-4.8-0.4-9.1
						c0.6-3.1,1.7-6.8,3.4-11.2c0.7-1.9,1.4-3.7,2.2-5.4c0.7-1.7,1.4-3.2,2-4.5c0.6-1.3,1-2.1,1.7-3.7c0.2-0.4,0.5-1.1,0.9-1.4
						c0.6-0.3,1.4-0.3,1.8-0.1c0.4,0.2,0.7,0.6,0.9,1c0.2,0.5,0.1,0.9-0.1,1.3c-0.8,1.5-1.4,3-2,4.3c-0.6,1.3-1.2,2.8-1.9,4.4
						c-0.7,1.7-1.4,3.4-2.1,5.2c-0.8,2.1-1.5,4.1-2,5.8c-0.5,1.8-1,3.4-1.2,4.8c-0.2,1.1-0.4,2.1-0.5,2.8c-0.1,0.8-0.1,1.4,0,1.9
						c0,0.5,0.1,0.9,0.2,1.2c0.1,0.3,0.2,0.5,0.2,0.6c0.1,0.1,0.2,0.2,0.4,0.3c0.2,0.1,0.4,0.2,0.8,0.2c1.7,0,3.8-1.1,6.4-3.4
						c2.5-2.1,5.2-5,8-8.7c0.5-0.7,1-1.4,1.5-2.1c0.5-0.7,1-1.4,1.5-2.1c-0.5-0.9-0.9-1.9-1.2-3c-0.6-2.3-0.5-4.6,0.2-6.9
						c0.7-2,1.7-3.7,3.1-5.1c1.6-1.5,3.3-2.3,5.2-2.4c1.1,0,2,0.4,2.6,1.3c0.7,1.2,0.6,2.9-0.1,5.3c-0.3,0.9-0.7,1.9-1.2,3
						c-0.5,1.1-1.1,2.2-1.8,3.5c-0.4,0.7-0.8,1.4-1.2,2.1c-0.4,0.7-0.8,1.4-1.2,2.1c0.3,0.3,0.5,0.5,0.7,0.6c1,0.8,2.1,1.4,3.3,1.8
						c1.2,0.4,2.3,0.6,3.5,0.6c1.1,0.1,2.2,0,3.3-0.1c1.1-0.2,2-0.4,2.8-0.6c0.8-0.2,1.7-0.5,2.7-0.9c1.7-0.6,5.4-3.2,6.9-5
						c0.3-0.4-2.5,5.2-2.2,5.6c0.2,0.5-2.1,1.2-2.3,1.6c-0.2,0.5-0.5,0.8-0.9,1c0,0-0.2,0.1-0.6,0.2c-0.3,0.1-0.8,0.3-1.3,0.5
						c-0.6,0.2-1.2,0.4-2,0.6c-0.8,0.2-1.6,0.4-2.5,0.5c-5.1,0.7-9.3-0.3-12.7-3c-0.1-0.1-0.2-0.2-0.3-0.3c-0.1-0.1-0.2-0.2-0.3-0.3
						c-1,1.5-2.1,3-3.3,4.5c-1.1,1.4-2.3,2.8-3.4,4C130.7,345.6,126.4,348.5,122.9,348.5z M147.1,314.9c-0.9,0.2-1.8,0.8-2.7,1.7
						c-0.8,0.9-1.4,1.9-1.8,3.2c-0.2,0.8-0.4,1.6-0.4,2.5c0,0.9,0.1,1.8,0.4,2.8c0.4-0.7,0.7-1.3,1.1-2c0.4-0.6,0.7-1.3,1-2
						c0.9-1.7,1.5-3,1.8-4C146.9,316.1,147.1,315.4,147.1,314.9z"/>
				</g>
				<g>
					<path class="st2" d="M168,351.9c-2.4,0-4.3-0.8-5.8-2.5c-1.3-1.5-2-3.4-2.2-5.7c-0.2-2.3,0.2-4.8,1.2-7.6
						c1.1-3.1,2.5-5.9,4.4-8.6c1.8-2.7,3.9-5,6.3-7c1.1-0.9,2.2-1.7,3.3-2.4c1.1-0.7,2.2-1.2,3.3-1.7c2.4-1,4.4-1.3,6.1-0.9
						c0.4,0.1,0.9,0.3,1.5,0.5c0.6,0.2,1.2,0.6,1.7,1.2c0.6,0.6,1,1.4,1.4,2.3c0.4,1,0.6,2.2,0.6,3.7c0,0.5-0.2,1-0.5,1.3
						c-0.4,0.3-0.8,0.5-1.3,0.5c-0.5,0-0.9-0.2-1.2-0.5c-0.3-0.4-0.5-0.8-0.5-1.3c0-0.9-0.1-1.6-0.3-2.2c-0.2-0.5-0.4-0.9-0.7-1.2
						c-0.3-0.3-0.5-0.5-0.8-0.6c-0.3-0.1-0.5-0.2-0.6-0.2c-1.2-0.2-2.6,0-4.4,0.8c-1.7,0.8-3.5,1.9-5.3,3.4c-2.1,1.8-4,4-5.7,6.4
						c-1.7,2.4-3,5-4,7.7c-0.8,2.1-1.1,4-1.1,5.7c0,1.7,0.5,3,1.3,4c1.1,1.3,2.7,1.7,4.7,1.2c1.2-0.3,2.5-1,3.7-1.9
						c1.2-0.9,2.4-2.1,3.5-3.5c0.9-1.2,1.7-2.6,2.5-4.1c0.8-1.5,1.5-3.1,2.1-4.9c0.2-0.8,0.5-1.7,0.7-2.6c0.3-0.9,0.6-1.9,1-2.9
						c0.1-0.5,0.4-0.8,0.8-1c0.4-0.2,0.8-0.3,1.3-0.2c0.5,0.1,0.8,0.4,1.1,0.8c0.2,0.4,0.3,0.9,0.2,1.3c-0.2,1.1-0.5,2.1-0.8,3
						c-0.3,1-0.6,1.9-1,2.8c-0.5,1.8-0.8,3.5-1,5.1c-0.2,1.6-0.2,2.9,0.2,3.9c0.8,2.2,1.6,3.4,2.5,3.5c0.2,0,0.6-0.1,1.2-0.4
						c0.6-0.2,1.5-1,2.7-2.2c1.1-1.1,2.3-2.5,3.6-4.3c1.3-1.8,2.7-4,4.4-6.6c0.3-0.4,0.7-0.6,1.1-0.8c0.5-0.1,0.9,0,1.3,0.3
						c0.4,0.2,0.6,0.6,0.7,1.1c0.1,0.5,0,0.9-0.2,1.3c-3.5,5.6-6.4,9.5-8.8,11.9c-2.4,2.4-4.5,3.4-6.4,3.2c-1.3-0.1-2.4-0.8-3.4-2
						c-0.4-0.5-0.7-1-1.1-1.7c-0.3-0.6-0.6-1.4-0.9-2.2c-0.1-0.2-0.2-0.4-0.2-0.6c0-0.2-0.1-0.4-0.1-0.6c-0.2,0.2-0.4,0.5-0.7,0.9
						c-1.4,1.8-2.8,3.2-4.3,4.4c-1.5,1.2-3.1,1.9-4.7,2.3C169.7,351.8,168.9,351.9,168,351.9z"/>
				</g>
				<g>
					<path class="st2" d="M234.1,332.8c0.1,0.5,0,0.9-0.3,1.3c-0.3,0.4-0.7,0.6-1.2,0.7c-1.8,0.3-3.6,0.7-5.4,1.1
						c-1.7,0.4-3.4,0.8-5.1,1.2c-0.1,1-0.2,1.9-0.3,2.7c0,0.9-0.1,1.7-0.1,2.4c0.1,2.3,0.5,3.8,1.3,4.7c0.8,0.9,2.3,1,4.5,0.4
						c0.5-0.1,1-0.1,1.4,0.1c0.4,0.2,0.7,0.6,0.8,1.1c0.1,0.5,0.1,0.9-0.1,1.4c-0.2,0.4-0.6,0.7-1.1,0.9c-1.1,0.3-2.2,0.5-3.3,0.5
						c-1.9,0-3.5-0.6-4.7-1.9c-1.9-2-2.6-5.7-2.1-11.2c-0.6,0.1-1.2,0.3-1.8,0.5c-0.6,0.2-1.2,0.3-1.8,0.5c-1.2,0.4-2.5,0.8-3.8,1.2
						c-1.3,0.4-2.6,0.8-4,1.2h-0.3c-0.9,1.4-1.8,2.6-2.5,3.7c-0.8,1.1-1.5,1.9-2.1,2.7c-0.9,1.1-1.8,1.9-2.5,2.4
						c-0.8,0.5-1.5,0.7-2.1,0.6c-0.5-0.1-0.9-0.3-1.2-0.7c-0.3-0.4-0.4-0.8-0.4-1.3c0-0.5,0.2-0.9,0.6-1.2c0.3-0.3,0.7-0.5,1.1-0.5
						c0.1-0.1,0.3-0.3,0.7-0.6c0.4-0.3,1-0.9,1.8-1.9c1.1-1.4,2.6-3.6,4.5-6.3c1.7-2.6,3.4-5.4,5.3-8.5c1.9-3,3.7-6.2,5.6-9.3
						c1.5-2.4,2.9-4.8,4.2-7c1.3-2.2,2.6-4.2,3.6-5.9c0.6-0.9,1.2-1.7,1.6-2.4c0.5-0.7,0.9-1.2,1.3-1.7c0.5-0.7,1-1.2,1.5-1.6
						c0.5-0.4,1-0.6,1.6-0.5c0.7,0.1,1.2,0.4,1.5,0.9c0.3,0.4,0.4,1,0.4,1.7c0,0.7-0.2,1.7-0.6,3.1c-0.3,0.9-0.6,2-1,3.2
						c-0.4,1.2-0.8,2.5-1.3,3.9c-0.9,2.9-1.9,6-2.9,9.3c-1,3.3-1.9,6.6-2.5,9.7c1.5-0.4,3-0.7,4.5-1.1c1.5-0.3,3.1-0.6,4.7-0.9
						c0.5-0.1,1,0,1.3,0.3C233.7,331.9,234,332.3,234.1,332.8z M213.8,335.8c0.9-0.2,1.8-0.5,2.6-0.8c0.8-0.3,1.7-0.5,2.6-0.8
						c0-0.2,0.1-0.4,0.1-0.6c0-0.2,0.1-0.4,0.1-0.6c0.7-3.3,1.5-6.7,2.6-10.2c1.1-3.5,2.1-6.7,3-9.7c0.1-0.5,0.3-0.9,0.4-1.4
						c0.1-0.5,0.3-0.9,0.4-1.3c-0.1,0.1-0.1,0.2-0.1,0.2c-1,1.6-2.2,3.5-3.4,5.5c-1.2,2-2.5,4.2-3.8,6.4c-1.5,2.5-3,5-4.5,7.4
						c-1.5,2.4-2.9,4.8-4.3,7.1c0.7-0.2,1.4-0.5,2.1-0.6C212.5,336.3,213.2,336,213.8,335.8z"/>
				</g>
				<g>
					<path class="st2" d="M265,351.9h-0.6c-1.2-0.1-2.2-0.4-3.1-1c-0.9-0.6-1.6-1.4-2.1-2.5c-0.4-0.9-0.6-1.9-0.5-3.1
						c0.1-1.2,0.3-2.5,0.7-3.9c0.4-1.4,0.9-2.9,1.6-4.4c0.7-1.6,1.3-3.2,2.1-4.9c0.7-1.5,1.3-3.1,1.9-4.6c0.6-1.6,1.1-3,1.5-4.4
						c0.5-1.7,0.7-2.9,0.7-3.6c-0.1-0.7-0.2-1.2-0.3-1.5c-0.3-0.4-0.9-0.6-1.8-0.6h-0.1c-2.1,0-4.7,1.4-7.6,4.1
						c-3,2.7-6.2,6.7-9.7,12c-1.4,2.1-2.7,4.2-3.9,6.2c-1.2,2-2.3,3.8-3.2,5.4c-0.9,1.6-1.9,3.4-2.9,5.3c-0.2,0.4-0.6,0.7-1,0.9
						c-0.4,0.2-0.9,0.1-1.3-0.1c-0.4-0.2-0.7-0.6-0.9-1c-0.2-0.4-0.2-0.9,0-1.4c0.6-1.2,1.3-2.8,2.1-4.7c0.8-1.9,1.6-3.9,2.5-6.2
						c0.9-2.2,1.8-4.5,2.7-6.8c0.9-2.3,1.7-4.5,2.4-6.7c0.7-2.1,1.3-4,1.8-5.8c0.5-1.7,0.7-3.1,0.8-4c0-0.5,0.2-1,0.6-1.3
						c0.4-0.3,0.8-0.5,1.3-0.4c0.5,0,0.9,0.3,1.2,0.6c0.3,0.4,0.5,0.8,0.4,1.3c-0.1,2.6-1.5,7.4-4.2,14.6c3-4.1,5.7-7.4,8.3-9.9
						c4-3.8,7.6-5.7,10.8-5.7c2.2,0.1,3.8,0.9,4.7,2.3c1.1,1.7,1.1,4.4,0.1,8.1c-0.4,1.5-1,3-1.6,4.6c-0.7,1.6-1.3,3.2-2,4.9
						c-0.7,1.4-1.3,2.9-1.9,4.4c-0.6,1.5-1.1,2.8-1.5,4.1c-0.5,1.6-0.7,2.7-0.7,3.4c0,0.7,0.1,1.2,0.2,1.4c0.5,1,1.3,1.5,2.3,1.5
						c1,0.1,2.2-0.2,3.6-0.8c1.4-0.6,3-1.6,4.6-2.8c1.6-1.2,4.2-2.9,5.9-4.7c1.7-1.8,5.6-6.4,7.1-8.8c0.2-0.4,5-3.3,5.5-3.4
						c0.5-0.1-6.7,5.1-6.3,5.4c0.4,0.3,0.7,0.7,0.8,1.2c0.1,0.5,0,0.9-0.2,1.3c-1.5,2.4,2.6-1.3,1,0.9c-4.1,5.7-9.7,9.5-11.6,10.9
						c-0.7,0.5-1.4,1-2.2,1.5c-0.8,0.5-1.6,1-2.5,1.4c-0.9,0.4-1.8,0.8-2.7,1C266.8,351.7,265.9,351.9,265,351.9z"/>
				</g>
				<g>
					<path class="st2" d="M287.2,351.1c-1.5,0-2.6-0.4-3.3-1.1c-0.7-0.7-1.1-1.5-1.2-2.3c-0.1-1.5,0.4-3,1.7-4.5
						c1.3-1.4,2.9-2.3,4.8-2.6c1-0.1,2,0.1,3,0.7c0.9,0.6,2,1.3,3,2.1l0.6,0.4c2-1.4,4-3.2,5.9-5.4c1.9-2.1,3.4-4.6,4.6-7.3
						c1-2.3,1.5-4.5,1.5-6.5c0-2-0.4-3.7-1.4-5c-1.1-1.5-2.6-2.2-4.5-2.1c0,0-0.4,0.3-1.1,0.8c-0.7,0.5-1.6,1.4-2.9,2.8
						c-1.3,1.4-2.9,3.3-4.7,5.8c-1.9,2.5-4.1,5.7-6.5,9.6c-0.3,0.4-0.7,0.7-1.1,0.8c-0.5,0.1-0.9,0-1.3-0.2
						c-0.4-0.3-0.6-0.7-0.7-1.2c-0.1-0.5,0-0.9,0.2-1.4c0.9-1.4,1.9-2.9,2.9-4.4c1.1-1.5,2.1-2.9,3.2-4.3c1-1.4,2-2.7,3-3.8
						c0.9-1.2,1.7-2.1,2.4-3c0.9-1.1,1.7-1.9,2.3-2.6c0.7-0.6,1.2-1.2,1.7-1.5c0.5-0.4,0.9-0.6,1.3-0.8c0.4-0.1,0.7-0.2,1-0.2
						c1.6-0.2,3,0,4.4,0.6c1.3,0.6,2.5,1.6,3.4,2.8c1.3,1.8,2,4,2.1,6.6c0,1.4-0.1,2.8-0.4,4.2c-0.3,1.4-0.8,2.9-1.5,4.4
						c-1,2.4-2.4,4.8-4.1,7c-1.7,2.2-3.7,4.2-5.9,6c-0.1,0.1-0.2,0.2-0.3,0.2c-0.1,0-0.2,0.1-0.3,0.2c0.9,0.5,1.8,0.9,2.8,1.1
						c1,0.3,2,0.3,3.1,0c4.3-0.8,6.1-3.2,12.3-10.5c3.7-4.4,6.5-12.9,7-13c0.5-0.1-3.1,9.4-2.7,9.6c0.4,0.2,0.7,0.6,0.8,1.1
						c0.1,0.5,0,0.9-0.2,1.3c-5.7,9-11.2,14-16.5,15c-2,0.4-3.8,0.3-5.4-0.3c-1.6-0.6-3.1-1.3-4.5-2.2c-1.4,0.8-2.7,1.5-4,2
						c-1.3,0.5-2.5,0.8-3.7,0.9C287.8,351.1,287.6,351.1,287.2,351.1z M289.8,344.2L289.8,344.2c-1.3,0.2-2.1,0.6-2.7,1.4
						c-0.6,0.7-0.9,1.3-0.8,1.7c0,0,0,0.1,0.1,0.1c0,0,0.2,0,0.4,0.1c0.2,0.1,0.6,0.1,1,0c1.4-0.1,3-0.7,4.9-1.7
						c-0.4-0.2-0.7-0.5-1-0.7c-0.3-0.2-0.6-0.4-0.9-0.6c-0.3-0.2-0.5-0.3-0.6-0.3C289.9,344.2,289.8,344.2,289.8,344.2z"/>
				</g>
				<g>
					<path class="st2" d="M344.2,333.3c0.4,0.3,0.6,0.7,0.7,1.2c0.1,0.5,0,0.9-0.3,1.3c-2.4,3.1-4.6,5.8-6.7,8c-2.1,2.2-4.1,4-6,5.3
						c-1.4,1-2.7,1.6-3.8,2c-1.1,0.4-2.1,0.6-2.9,0.6c-1.2,0-2.2-0.3-3-0.9c-0.5-0.3-1-0.7-1.5-1.3c-0.4-0.6-0.8-1.4-1.1-2.3
						c-0.3-1-0.5-2.2-0.5-3.6c0-1.4,0.1-3.1,0.4-5.1c0.5-3.1,1.5-6.5,2.8-10.2c1.4-3.7,3.1-7.6,5.3-11.7c0.2-0.4,0.6-0.7,1-0.9
						s0.9-0.1,1.4,0.1c0.4,0.2,0.7,0.6,0.8,1c0.1,0.5,0.1,0.9-0.1,1.3c-2.6,5-4.5,9.3-5.6,12.7c-1.1,3.4-1.8,6.1-2.2,8.1
						c-0.4,2.7-0.5,4.7-0.2,6.1c0.3,1.4,0.7,2.2,1.3,2.6c0.5,0.4,1.3,0.4,2.3,0.1c1-0.3,2.2-0.9,3.5-1.8c1.7-1.2,3.6-2.9,5.6-5
						c2-2.1,7.9-9.6,10.3-12.4c4-4.8-1.3,5.7-0.8,5.7C345.4,334.4,343.8,332.9,344.2,333.3z M331.3,312.5c-0.8,0-1.4-0.2-1.7-0.7
						c-0.3-0.5-0.4-1.1-0.1-1.9c0.3-0.8,0.9-1.5,1.6-2.1c0.7-0.6,1.5-0.9,2.3-0.9c0.8,0,1.4,0.2,1.7,0.7c0.3,0.5,0.3,1.2,0,2
						c-0.3,0.8-0.8,1.4-1.6,2C332.9,312.2,332.1,312.5,331.3,312.5z"/>
				</g>
				<g>
					<path class="st2" d="M370.5,335.1c0.6,0.1,1.1,0.2,1.7,0.2c2.1,0.2,4.1,0,5.9-0.5c1.9-0.5,5-2,7.6-4.5c0.3-0.3,1.3-0.3,1.8-0.2
						c0.5,0.1-2.2,2.3-1.9,2.6c0.3,0.4,0.4,0.8,0.3,1.3c-0.1,0.5-0.3,0.9-0.7,1.2c-0.9,0.7-1.9,1.3-3,1.8c-1.1,0.5-2.2,0.9-3.4,1.3
						c-0.8,0.2-1.6,0.3-2.4,0.4c-0.8,0.1-1.7,0.1-2.5,0.1c-0.3,0-0.6,0-1,0c-0.3,0-0.6,0-1-0.1c-0.5,0-1-0.1-1.5-0.2
						c-0.5-0.1-1-0.2-1.5-0.3c-0.7,1.4-1.5,2.7-2.5,4c-2.2,2.9-4.6,5.1-7.3,6.6c-2.7,1.5-5.5,2.3-8.4,2.3c-0.3,0-0.6,0-0.8,0
						c-0.3,0-0.5,0-0.7-0.1c-3-0.3-5.2-1.3-6.7-3c-1.4-1.6-2-3.7-1.9-6.3c0.1-2.6,3.2-6.5,5-9.6c1.7-3-0.7-2,0.3-3.5
						c1-1.4,2.1-2.9,3.3-4.3c2.4-2.8,4.9-5,7.6-6.7c2.9-1.9,5.6-2.9,8.1-2.9c0.5,0,0.8,0,1.1,0.1c2.5,0.3,4.3,1.5,5.7,3.7
						c1,1.9,1.4,4.3,1.3,7.1c-0.1,2.6-0.8,5.4-1.8,8.4 M363.6,340.2c0.7-0.9,1.3-1.8,1.9-3c-2.1-1-3.8-2.2-5-3.7
						c-2-2.3-2.8-4.9-2.4-7.9c0.3-1.9,1.1-3.9,2.5-6.1c-1.4,0.7-2.9,1.6-4.4,2.9c-1.5,1.2-3,2.7-4.5,4.4c-1.1,1.3-2.1,2.6-3,4
						c-0.9,1.3-1.7,2.7-2.4,4c-0.7,1.3-1.2,2.6-1.6,3.8c-0.4,1.2-0.6,2.3-0.6,3.3c-0.1,3.3,1.7,5.1,5.4,5.5c0.2,0,0.4,0.1,0.6,0.1
						c0.2,0,0.4,0,0.6,0c2.4,0,4.6-0.6,6.9-1.9C359.7,344.4,361.7,342.6,363.6,340.2z M369.1,325.8c0-0.6,0-1.2,0-2
						c0-0.7-0.2-1.5-0.4-2.1c-0.2-0.7-0.5-1.3-1-1.8c-0.4-0.6-1.1-0.9-1.8-1.1c0,0-0.1,0.1-0.1,0.1c0,0-0.1,0.1-0.1,0.1
						c-2.5,2.5-3.9,4.9-4.2,7.2c-0.3,1.8,0.2,3.5,1.6,5c0.9,1.2,2.3,2.1,4,2.8C368.3,331.2,369,328.5,369.1,325.8z"/>
				</g>
				<g>
					<path class="st2" d="M382.6,335.9c-0.1-0.5-1-1-1.5-0.9c-2,0.3,3.2-2.8,3.9-3.8c1.1-1.5,2.9-4,3.9-5.4c1-1.4,2-2.7,3-3.8
						c0.9-1.2,1.7-2.1,2.4-3c0.9-1.1,1.7-1.9,2.3-2.6c0.7-0.6,1.2-1.2,1.7-1.5c0.5-0.4,0.9-0.6,1.3-0.8c0.4-0.1,0.7-0.2,1-0.2
						c1.6-0.2,3,0,4.4,0.6c1.3,0.6,2.5,1.6,3.4,2.8c1.3,1.8,2,4,2.1,6.6c0,1.4-0.1,2.8-0.4,4.2c-0.3,1.4-0.8,2.9-1.5,4.4
						c-1,2.4-2.4,4.8-4.1,7c-1.7,2.2-3.7,4.2-5.9,6c-0.1,0.1-0.2,0.2-0.3,0.2c-0.1,0-0.2,0.1-0.3,0.2c0.9,0.5,1.8,0.9,2.8,1.1
						c1,0.3,2,0.3,3.1,0c4.3-0.8,11.2-4.8,16.1-14.2c2.2-4.1,4.6-1.1,1.3-0.5c-0.5,0.1-1.2,0.5-0.8,0.7c0.4,0.2,0.7,0.6,0.8,1.1
						c0.1,0.5,0,0.9-0.2,1.3c-5.7,9-11.2,14-16.5,15c-2,0.4-3.8,0.3-5.4-0.3c-1.6-0.6-3.1-1.3-4.5-2.2c-1.4,0.8-2.7,1.5-4,2
						c-1.3,0.5-2.5,0.8-3.7,0.9c-0.2,0-0.4,0.1-0.8,0.1c-1.5,0-2.6-0.4-3.3-1.1c-0.7-0.7-1.1-1.5-1.2-2.3c-0.1-1.5,0.4-3,1.7-4.5
						c1.3-1.4,2.9-2.3,4.8-2.6c1-0.1,2,0.1,3,0.7c0.9,0.6,2,1.3,3,2.1l0.6,0.4c2-1.4,4-3.2,5.9-5.4c1.9-2.1,3.4-4.6,4.6-7.3
						c1-2.3,1.5-4.5,1.5-6.5c0-2-0.4-3.7-1.4-5c-1.1-1.5-2.6-2.2-4.5-2.1c0,0-0.4,0.3-1.1,0.8c-0.7,0.5-1.6,1.4-2.9,2.8
						c-1.3,1.4-2.9,3.3-4.7,5.8c-1.9,2.5-4.5,6.7-8.7,9.4c-0.4,0.3-1,0.7-1.5,0.8 M388.9,344.2L388.9,344.2
						c-1.3,0.2-2.1,0.6-2.7,1.4c-0.6,0.7-0.9,1.3-0.8,1.7c0,0,0,0.1,0.1,0.1c0,0,0.2,0,0.4,0.1c0.2,0.1,0.6,0.1,1,0
						c1.4-0.1,3-0.7,4.9-1.7c-0.4-0.2-0.7-0.5-1-0.7c-0.3-0.2-0.6-0.4-0.9-0.6c-0.3-0.2-0.5-0.3-0.6-0.3
						C389,344.2,388.9,344.2,388.9,344.2z"/>
				</g>
				<g>
					<path class="st2" d="M425.6,351.9c-2.4,0-4.3-0.8-5.8-2.5c-1.3-1.5-2-3.4-2.2-5.7c-0.2-2.3,0.2-4.8,1.2-7.6
						c1.1-3.1,2.5-5.9,4.4-8.6c1.8-2.7,3.9-5,6.3-7c1.1-0.9,2.2-1.7,3.3-2.4c1.1-0.7,2.2-1.2,3.3-1.7c2.4-1,4.4-1.3,6.1-0.9
						c0.4,0.1,0.9,0.3,1.5,0.5c0.6,0.2,1.2,0.6,1.7,1.2c0.6,0.6,1,1.4,1.4,2.3c0.4,1,0.6,2.2,0.6,3.7c0,0.5-0.2,1-0.5,1.3
						c-0.4,0.3-0.8,0.5-1.3,0.5c-0.5,0-0.9-0.2-1.2-0.5c-0.3-0.4-0.5-0.8-0.5-1.3c0-0.9-0.1-1.6-0.3-2.2c-0.2-0.5-0.4-0.9-0.7-1.2
						c-0.3-0.3-0.5-0.5-0.8-0.6c-0.3-0.1-0.5-0.2-0.6-0.2c-1.2-0.2-2.6,0-4.4,0.8c-1.7,0.8-3.5,1.9-5.3,3.4c-2.1,1.8-4,4-5.7,6.4
						c-1.7,2.4-3,5-4,7.7c-0.8,2.1-1.1,4-1.1,5.7c0,1.7,0.5,3,1.3,4c1.1,1.3,2.7,1.7,4.7,1.2c1.2-0.3,2.5-1,3.7-1.9
						c1.2-0.9,2.4-2.1,3.5-3.5c0.9-1.2,1.7-2.6,2.5-4.1c0.8-1.5,1.5-3.1,2.1-4.9c0.2-0.8,0.5-1.7,0.7-2.6c0.3-0.9,0.6-1.9,1-2.9
						c0.1-0.5,0.4-0.8,0.8-1c0.4-0.2,0.8-0.3,1.3-0.2c0.5,0.1,0.8,0.4,1.1,0.8c0.2,0.4,0.3,0.9,0.2,1.3c-0.2,1.1-0.5,2.1-0.8,3
						c-0.3,1-0.6,1.9-1,2.8c-0.5,1.8-0.8,3.5-1,5.1c-0.2,1.6-0.2,2.9,0.2,3.9c0.8,2.2,1.6,3.4,2.5,3.5c0.2,0,0.6-0.1,1.2-0.4
						c0.6-0.2,1.5-1,2.7-2.2c1.1-1.1,2.3-2.5,3.6-4.3c1.3-1.8,2.7-4,4.4-6.6c0.3-0.4,0.7-0.6,1.1-0.8c0.5-0.1,0.9,0,1.3,0.3
						c0.4,0.2,0.6,0.6,0.7,1.1c0.1,0.5,0,0.9-0.2,1.3c-3.5,5.6-6.4,9.5-8.8,11.9c-2.4,2.4-4.5,3.4-6.4,3.2c-1.3-0.1-2.4-0.8-3.4-2
						c-0.4-0.5-0.7-1-1.1-1.7c-0.3-0.6-0.6-1.4-0.9-2.2c-0.1-0.2-0.2-0.4-0.2-0.6c0-0.2-0.1-0.4-0.1-0.6c-0.2,0.2-0.4,0.5-0.7,0.9
						c-1.4,1.8-2.8,3.2-4.3,4.4c-1.5,1.2-3.1,1.9-4.7,2.3C427.3,351.8,426.5,351.9,425.6,351.9z"/>
				</g>
			</g>
		</g>
	</g>
	<g>
		<path class="st3" d="M189.8,24.4c-6.2,7.2-11.7,15.5-12.5,24.8c-0.5,5.6,0.7,10.4,2.3,15.5c0.7,2.3,1.5,4.8,1.6,7.3
			c0.1,1.3,0.1,2.6-0.7,3.6c-1,1.2-2.9,0.7-3.6,1.4c0,0-0.9,0.1-0.9,0c-0.7,3.3,4.2,3.9,5.9,5.6c3.5,3.4-1.1,2.9-1.9,6.2
			c2.9,2.2,8,0.5,11.5,0.8c-0.3,2-3.3,2.1-2.9,4.9c4.5,0.7,7.7-2.8,11.8-2.5c-0.6,3.4-0.4,3.8,3,2.9c3.4-0.8,3.6-1.5,4-5.3
			c0.4-3.5-0.1-3.7-2.6-5.9c-2-1.7-3.8-3.2-5.9-4.7c-8.9-6.4-9.1-15.7-10.2-25.4c-0.6-5.6-0.2-10.4,5.1-13c3.7-1.8,9.5-3.9,13.6-4.5
			c5.5-0.8,10.2,0.9,15.2,2.6c5.7,2,8.3,4,9.6,9.9c2,9.4,4.1,20.9-2.7,29.3c-2.8,3.5-8.3,6.3-10.1,10.6c-2,5.1,5.6,8.6,9.5,5.9
			c0.7-0.5,1.1-0.6,1.7-1.3c-0.4-0.2-0.7-0.8-1.1-1c1.1-1.5,10.9-1.8,7-5.6c2.3-0.7,5.4-0.2,7.1-2.1c2.3-2.6,0.2-3.5-1.3-5.5
			c-3.4-4.4-0.4-9.5,0.7-14.3c2.4-9.8-1.7-21.7-6.2-30.1c-4.9-9.3-11.6-13.7-21.5-15.8c-5.2-1.1-8.5-0.4-13.5,1.2
			c-5.2,1.6-9.8,1.3-12.6,6"/>
		<path class="st3" d="M325.1,140.3c-0.4,1.3-5.3,1.8-6.2,5c-0.9,3.4,2.7,4.9,4.1,6.9c0.9,1.2-0.1,2.1,2.4,3.1
			c1.8,0.6,3.8,0.3,5.3-0.7c2.4-1.5,3.7-7-0.6-6.4c0.9-2.5,2-6.3-1.4-8.1c-2.6-1.4-4.5,1-6.5,2.2"/>
		<path class="st3" d="M320.5,133.3c-3.3,2.6,1.8,6.7,3.7,4c2.1-2.9-5-5.4-5.4-2"/>
		<path class="st3" d="M338.3,137.6c-8.5,0.8-10.9,11.8-0.7,11.9c11.3,0.1,7.7-14.4-0.7-11.2"/>
		<path class="st3" d="M358.8,142.6c-1.7,0.6-3.8,4.1-0.8,4.1c4.3-0.1,0.4-3.7-1.1-4.5c1.1-1.6,4-2.3,5.1-0.4
			c0.9,1.6-1.1,5.2-1.7,6.7c-1.7,4.6-3.3,12,4.6,10.8c4.6-0.7,6.8-7.2,2.6-10.1c-3.2-2.2-15.6,3-12-5.6c0.8-1.9,3.5-3.5,3.7-5.5
			c0.2-2-1.5-4.4-3.7-3.2"/>
		<path class="st3" d="M347.6,165.7c0.5,4.8-8.5,7.8-9.2,2c-0.3-2.4,3-7.5,5.8-7.4c1,0,2.7,1.9,4,2.2c1.6,0.4,3.3-0.5,4.8,0.7
			c2.2,1.6,1.7,5.6-1.1,6.2c-2.8,0.7-4.2-1.9-3.3-4.4c1.1-3.2,3.2-1.4,5.3-3.3c4.2-3.7,0.9-11.9-4.6-11.5"/>
		<path class="st3" d="M338.3,152.1c-4.7-1.7-14.6,0.3-10.9,7.7c1.4,2.8,7.9,4.8,10.6,3.1c3.7-2.3,3.1-9.2-1-10.5"/>
		<path class="st3" d="M315.2,148.8c-0.4,2.4,2.9,7.5,5.3,4.7c2.7-3.1-3.3-5.6-5.6-5.4"/>
		<path class="st3" d="M353.9,175.6c-1.3-4.5-17,3-5.5,9.2c2.3,1.2,6.5,2.5,8.7,0.5c2.6-2.4,1.5-9.3-1.9-10.4"/>
		<path class="st3" d="M365.4,176.9c1.1-1.2-0.2-4.2-0.7-5.9c-0.3-1.1-1-5.7-1.6-6.4c-1.5-1.7-1-0.2-2.4-0.1c-0.5,0-0.9,1-1.6,1.1
			c-0.5,0.1-1.2-0.7-1.7-0.7c-1.5,0.1-1.8-1.3-2.9,0.7c-0.5,0.8,0.1,2.7,0.2,3.6c-6.6,0.5-4.1-8.1,0.4-9.5c2.3-0.7,5.1,0.4,7-1.6
			c1.8-1.9,0.9-4.7-2-5.1c2.2-4.3,6.3-5,8.5-0.2c0.8,1.7,1.1,4,0.3,5.8c-0.6,1.4-2.8,2.5-3.2,3.8c-1.2,4,4.9,6.6,5.1,10.6
			c0.2,2.9-2.6,7.8-5.3,8.8c0.1-0.9,0.1-2.8-0.9-3.3"/>
		<g>
			<g>
				<path class="st4" d="M186.9,53.2c-0.9,3.2,0.7,7.6,1.3,10.8c0.7,3.6,2.1,7.2,4,10.3c3.3,5.4,10.8,10.7,16.9,12.3
					c7.2,1.9,12.3-1.4,18.1-5.6c6.3-4.5,8.4-12.9,8.8-20.4c0.7-13.4-2.2-27.2-15.2-32.7c-5.8-2.5-13.9-2.9-20-0.9
					c-2.5,0.8-5.2,3.1-7.5,4.6c-2.9,1.9-3.9,4.7-5,7.8c-0.5,1.5-1.9,4.8-0.3,5.9c5.4-4.7,6.4-12.1,13.9-14.9
					c6.5-2.5,14.5-0.9,20.5,2.7c5.5,3.3,8.8,12,9.7,17.9c1,6.4,1.6,15.4-1.9,21c-3.4,5.3-8.5,12-15,12.9c-5.8,0.8-13.8-5.7-17.6-9.7
					c-3.3-3.5-5.3-7.6-6.6-11.9c-0.7-2.3-0.4-7.8-0.9-10.1c-0.5-2.4,0.3-2.8-0.5-5.1c-2.4,1.4-2.6,4.6-2.6,7.2"/>
				<path class="st4" d="M207.8,49.6c-0.4-2.4-3.1-3.9-5.2-3c-3,1.4-1.9,4.9-5.7,2.2c-0.2,1.2-0.1,2.4,0.8,3.2
					c-0.9,0.1-1.8-0.2-2.6-0.4c-0.1,2.1,2.6,2.9,4.1,1.9c1.5-1,1.7-3.4,3.8-3.7c2.1-0.3,2,1.9,3.7,2c2.3,0.1,0.8-3.1,0.2-4"/>
				<path class="st4" d="M218.2,46.4c-0.4-0.9-4.4,2.2-3.3,3.9c0.9,1.3,1.9-0.7,2.8-1.2c1.6-0.8,1.5-0.2,2.6,0.4
					c1.9,1.1,3.5,2.4,5.4,0.4c0.5-0.5,1.7-2.6,0.8-3.2c-0.9-0.6-1.8,0.9-2.4,1.4c0.1-0.6,0.9-2.3,0-2.6c-0.9-0.4-1.4,1.7-2,1.9
					c-1.4,0.5-3-2.4-4.6-0.8"/>
				<path class="st4" d="M186.5,29.4c-6.7,3.7-10.6,11.6-11.7,18.9c-1.1,7.4,2.4,14.5,4.4,21.1c0.5,1.6,1.2,3.4-0.3,4.8
					c-2,2-2.9-0.3-4.8-0.2c-4.1,0.2,0.6,7,2.5,8.1c1.3,0.7,3.7,0.7,4.6,1.5c2,2-1.6,1.7-2.9,2.2c-4.8,2,2.7,4.5,5.1,4.6
					c0.9,0,1.7,0,2.6,0c0.2,1.3-0.8,2-0.8,3.2c3.8,1.3,8.6,1,12.2-0.8c1.2,2.7-0.3,4.1,3.8,3.7c2.3-0.2,4.7-1.8,7-1.7
					c-0.1,2.1,1,1.8,1.6,0.4c0.4-0.9,0.3-3.1-0.2-3.8c-2.1,1.6-4.5,1.7-6.8,2.6c0.2-1.4,1.2-3.1-0.1-4.1c-1.1-0.9-3.4,0.1-4.6,0.3
					c-3.1,0.6-6,0.9-9.2,0.9c1.2-0.4,2.3-1.5,2.1-2.8c-3.5-0.4-6,1.4-9.4-0.8c2.3-1.1,5.1-3.1,2.4-5c-1.7-1.2-6.2-1.6-5.7-4.6
					c1.8,0,4.2-0.6,5.3-2.2c1.4-2.1,0.2-3.2-0.8-5.1c-1.9-3.3-2.8-6.8-3.4-10.5c-1.1-7.7-1.2-15.6,3.3-22.3c1.6-2.4,5.5-5.8,5.2-8.8
					C187.4,29,187.2,29.1,186.5,29.4c-0.1,0.2-0.4,0.2-0.4,0.4"/>
				<path class="st4" d="M191.2,22.4c-1.1-0.5-3.2,1.3-2.4,2.8c1.1,2,3.6-0.3,4.8-0.9c3.6-1.9,7.2-3.7,11.2-4.3
					c7.1-1.1,15.3,0.8,21.3,4.4c6.4,3.7,10.9,11.5,13.4,18.3c2.6,7.1,2.5,14.8,1.4,22.2c-0.6,4.2-6,12.2-1.3,15.6
					c1,0.7,3.3,0.5,3.9,1.1c1.3,1.3-0.5,2.6-1.5,3.3c-2.5,1.8-5.7,1.5-8.6,1.1c-0.5,2.4,5.1,2.5,3.1,4.4c-1.9,1.8-6.6-0.2-8.8,0
					c-0.3,1.6,1.6,2,1.7,3.5c-2.7,0.6-5.5,0-7.7-1.8c-2.6,2.7,3.7,4.9,5.5,4.9c1.8,0,9.2-2.6,4.3-3.8c1.1-1.1,5.2-0.6,7-1.7
					c1.3-0.8,4.8-3.6,1-3.4c3.8,0.1,8.6-3.8,7.2-7.9c-0.8-2.2-2.9-1.1-4.3-2.7c-1.2-1.2-0.8-3.2-0.3-4.6c1.3-4.3,3.1-8.3,3.8-12.9
					c1-6.2-0.2-11.5-1.7-17.6c-1.1-4.1-2.4-8.2-5-11.5c-2.6-3.3-5.8-6.3-8.5-9.4c-4.7-5.6-12.2-7.7-19.3-7.2
					c-4,0.2-8.9,1.5-12.5,3.3c-2.3,1.1-8.8,3.8-9.2,6.1"/>
				<path class="st4" d="M200.6,64.5c-1.8-1-3.2,1.3-3.2,2.8c2.7-0.6,6,4.5,8.9,5.3c3.1,0.9,7.1,1.4,10,0.2c3.2-1.3,5.9-3.7,8.1-6.3
					c0.5-0.6,1.1-1.5,1.8-1.9c0.7-0.4,1.7,0.3,2-0.5c0.7-1.7-2.2-3.2-3.3-2.4c-0.2,0.1-0.4,0.1-0.6,0.3c-0.1,0.8,0.1,1.6,0.1,2.3
					c-3.1,1.1-5.1,4.8-8.3,5.8c-2.9,0.9-6.8,1.6-10.2-0.2c0,0-5.1-2.6-5.2-3.4C200.5,65.5,201.6,65.2,200.6,64.5z"/>
				<path class="st4" d="M208.5,98.1c-3.4,0-8.3-0.7-11.9-0.2c-3.4,0.4-4.9,1.2-7.3,3.5c-5,4.7-8.8,10.4-13.6,15.2
					c-4,4-7.3,9.2-10.3,14.1c-1.5,2.4-2.7,4.7-4,7.3c-1,2.1-2.9,4.5-3.3,6.8c2.8,0.3,5.5-4,7.2-5.9c2.1-2.5,3.8-5.1,5.8-7.6
					c4.7-6,8.5-12.7,13.4-18.5c3.1-3.7,6.2-8.8,10.3-11.5c2.1-1.4,14.9,0.5,14.8-2.1"/>
				<path class="st4" d="M150.4,150.7c0.4-0.3,7.7-5.2,6.1-5.7c-0.5-0.1-1.1-0.1-1.7,0c0.2,1.9-6.6,4.2-8.1,5.5
					c-2.5,2.1-4.9,4.6-6.9,7.2c-4.7,6.2-8.6,13-12.7,19.6c-2.8,4.5-8,10.5-13.1,12.7c-2.8,1.2-6.3,2.8-9.4,3.1
					c-3.5,0.4-7.7-1.4-11.2-1.3c-2.2,0-8.8-2.6-6.1,2.4c1.2,2.2,3.8,4.8,6.1,5.8c3,1.4,7.4,2.3,10.6,3c1.6,0.3,3.6,0.4,5.1,0.9
					c2.4,0.8,1.6,1.8,1.5,4c0,2.7,0.5,10.3,4.6,9.4c1-3.7,1.2-7.6,3.5-11.1c1.7-2.6,3.3-5,5.3-7.3c5.2-5.9,12.6-14.2,19-18.7
					c6.7-4.7,10.4-7.6,15.7-13.9c2.4-2.9,4.7-5.8,5.8-9.5c0.2-0.7,1.4-4.2,0.1-4.4c-1.1-0.1-2,3.2-2.4,4
					c-5.5,12.9-20.2,17.4-28.6,28c-3.9,4.9-7.9,9.5-12.2,13.9c-2.1,2.2-4.4,4.9-5.8,7.6c-0.7,1.4-0.5,4.1-0.8,5.7
					c-0.2,1.5-0.2,5.3-1.7,2.4c-1.3-2.6-0.4-8.1-0.8-10.8c-3.4-0.4-22.2-4.7-21.5-9.5c3.2-0.2,7,1.6,10.3,1.7
					c3.5,0.2,6.5-0.9,9.7-1.5c6.9-1.5,13.2-7.6,17.1-13.6c1.9-2.8,3.1-3.8,5-6.7c2-3,3.3-6.5,5.4-9.5
					C141.7,159.2,145.4,153.9,150.4,150.7z"/>
				<path class="st4" d="M174.2,143.5c0.2,0.2,0.2,0.4,0.2,0.6c-2.6,1.7-4,5.5-7,6.4c-1.7-2.5,10.6-13.9,12.4-16.1
					c4.6-5.4,9.3-10.7,14-16c1-1.1,6.5-7.4,7.2-4.7c0.3,1.3-1.7,3.6-2.3,4.8c-0.7,1.6-1.3,3.2-1.8,4.9c-0.8,3.1-0.6,6.6,1.1,9.3
					c1.7,2.7,5,4,6.7,6.8c3.1,5.2,0.1,9.9,0.4,15.2c-1-0.1-3.2-0.2-3.7-1.3c-0.4-0.9,0.5-3.7,0.5-4.9c-0.1-2.6-0.4-6.3-1.8-8.5
					c-1.3-2-4.3-2.9-6.1-4.7c-2.1-2.3-2.8-5.1-3-8.1c-2.7,4.4-7.1,7.7-10.7,11.5c-2,2.1-4.1,3.8-6.1,5.8c-1.9,2-4.6,3.6-6.1,5.8"/>
				<path class="st4" d="M199.1,164.1c2-0.4,1.7-3.8,0.6-4.7"/>
				<path class="st4" d="M197.8,171.4c3.8,3.3-3.2,11.6-5.2,14.1c-3.3,4.1-7.5,7.8-10.6,12.1c-3.1,4.5-4.1,16.8,0.2,20.9
					c4,3.8,1.9-4.2,1.7-5.9c-0.5-3.4,0.2-7.4,1.4-10.6c1.2-3.2,3.2-5.8,5.6-8.2c2.5-2.4,5.2-4.5,6.4-7.9c1.2-3.2,0.9-6.9,0.7-10.4
					c-0.1-1.4-1.6-8,0.6-8.3c0.9-0.1,2.3,4.2,3.3,5.2c2.1,2.2,4,5.1,6.4,7c3.3,2.5,6.8,3.8,9.2,7.3c5.2,7.6,1.1,14.8-0.7,22.7
					c-1.8,8-1.3,17.8,0.2,25.8c0.8,4.5,2.4,8.1,4,12.3c1.8,4.5-2.1,5.3-5.9,4.4c-7.9-1.9-12.9-9.7-12.6-17.5
					c0.4-7.8,4-14.9,6.1-22.2c1.9-6.8,2.6-14.6-2.5-20.1c-2.2-2.4-4.3-3.9-5.5-7c-0.9-2.4-2.5-7.4-1.4-10.1c0.1-0.3,0.1-0.7,0.3-1.1
					c2.7-0.2,3,6.7,3.6,8.6c1.3,3.4,3.8,6,6.2,8.6c5.2,6,4.2,14.3,2,21.3c-2.1,6.9-6,12.7-6.6,19.8c-0.3,3.9,0.5,6.9,2.8,10.2
					c1,1.4,5.9,8.2,7.7,5c1.1-1.8-2.5-8-3-9.9c-1-3.9-1.5-7.6-1.5-11.7c0-7.6,2.5-14,4.6-21.1c2.1-6.9,2.1-13.4-3.9-18.8
					c-3.8-3.4-14.4-8.6-11.7-15.3c3.8,4.4,1,14.1-1.8,18.2c-1.9,2.8-4.7,4.7-6.5,7.5c-2,3-2.7,6.3-3.5,9.6c-0.8,3.4-0.8,7.7,0.2,11
					c0.9,3,4.4,7.2-0.7,7.6c-8.2,0.7-12.2-9.9-11.9-16.7c0.4-6.9,2.8-13.8,7.5-19.1c3.7-4.2,7.5-7.7,11.6-11.4
					c2.5-2.2,2.3-4.9,2.9-8.3c0.4-2.2,3.6-7.9,0.1-6.1"/>
				<path class="st4" d="M198.4,115.3c0.5,1.4-2.7,4.7-3.5,6.1c-1,1.8-1.9,3.4-2.5,5.3c-1.3,4-0.5,6.5,2.6,9.2
					c2.2,1.9,5.5,4.1,6.3,7c1,3.3-1.7,10.4-0.4,13.5c0.6,1.5,3.3,2,4.2,0.7c0.7-1,0.6-6,0.5-7.2c-0.2-3.8-0.7-6.8-2.5-10.1
					c-1.5-2.7-4.4-4.7-5.7-7.5c-1.4-3-0.8-7.8,0-10.8c0.7-2.6,1.9-5.2,2.8-7.7c-0.9,0.3-1.2,1.5-2,2.2"/>
				<path class="st4" d="M203.3,112.4c2.7-1.1,6.6,1.2,9,2.4c1.8,0.9,2.4,1.6,4.3,0.4c1.5-0.9,2.7-2.4,4.2-3.3
					c2.9-1.8,6.6-2.3,9.7-0.8c2.6,1.3,4.2,4,5.9,6.4c3.5,5,8.8,12.2,3.6,18c-3,3.3-4.8,4.7-4.8,9.5c0,1,1.4,7.2,0.8,7.8
					c-1.7,1.8-3.8-3.8-4.1-4.9c-1-3.4-0.3-7.2,1.2-10.3c1.4-2.9,4.1-5.6,4.8-8.8c0.9-4.2-5.8-15.1-10.6-15.2
					c-5-0.1-8.1,6.5-13.2,6.4c-2.6,0-4.5-1.5-6.6-2.9c-1.2-0.9-5.1-2.6-5.3-3.9"/>
				<path class="st4" d="M217.3,134.6c-1,2.2-3.5,2.7-4.6,4.6c1.4,3.3,3.9-1,5.5-1.1c1-0.1,5.4,2.5,4.6-1.1
					c-1.3-0.4-5.3-4.2-5.9-1.8"/>
				<path class="st4" d="M230.1,96.3c3.8,0,6.3,3.8,8.8,6.3c4.9,5.1,9.3,10.7,13.9,16.1c3,3.5,6.1,7.1,9.4,10.2
					c2.8,2.6,5.4,4.6,7.5,7.9c1.8,2.9,3.4,4.1,6.6,5.4c3.9,1.6,7.3,4.1,10,7.4c4.7,5.7,8.3,11.8,12.4,17.8c1.9,2.8,4.1,5.3,6.4,7.7
					c2.9,3.2,4.9,2.7,9,3.3c1.7,0.2,3.5,0.5,5,1.2c1.5,0.6,2.6,2.2,4.2,2.8c0.9,0.3,5.1,0.4,2.5,2.3c-1.3,0.9-3.3-0.6-4.5-0.9
					c-2.5-0.8-3.2,0.1-5.3,1.1c-2.1,1-4.2,0.8-6.6,0.9c-1.7,3.1,6.9,3.2,8.6,2.2c2.3-1.4,1.2-2,4-1.4c1.6,0.3,3.7,0.4,5-0.9
					c0.8-0.8,1.7-3.4,0.9-4.5c-0.8-1.1-3.5-0.8-4.8-1.2c-3.1-1.2-5.7-3.7-8.8-5c-1.7-0.7-3.2-0.3-5.1-0.7c-1.9-0.4-2.8-1.7-4-3.3
					c-2-2.8-3.8-5.5-5.5-8.4c-3.5-6.1-8.3-11.2-12.9-16.5c-4.5-5.2-10.5-7-16.8-8.6c-2.8-0.7-4.8-2.3-6.8-4.4
					c-2.9-2.9-6.2-5.6-8.8-8.8c-4-5-9.3-8.7-13-14c-2.7-3.9-5.7-10.5-11.2-10.8c-3.2-0.2-5.6,1-8.6,1.1c-1.4,0.1-3.3,0.4-3.7-1.1
					c-0.5-1.7,1.3-1.4,2.4-0.7"/>
				<path class="st4" d="M266,148.5c0.3,0,0.3,0.5,0.5,0c-0.4-1.6-1.9-2.9-3.5-2.8c-0.4,2.8,1.9,6.9,3.1,9.4
					c1.5,3.1,3.3,5.8,6.1,7.9c5,3.8,10.6,6.5,15.8,9.9c3.5,2.3,7.5,4.3,10.6,7.3c1.5,1.4,3,3,4.1,4.7c1,1.5,1.2,4.2,2.9,5
					c2.6-7-5.5-13.1-10.2-16.9c-5.1-4.1-12.6-4.9-17.5-9.1c-5.2-4.6-9.8-11.9-13-17.8"/>
				<path class="st4" d="M246,170.1c-0.2-0.5-1.4-1.2-1.9-0.9c-1.2,0.7,0.2,5.3,0.5,6.1c1.3,4,3.2,7.8,5.4,11.3
					c4.2,6.7,8,13.9,12.7,20.4c13,18,28.3,35.6,44,51.6c10,10.2,17.1,17,27.3,24.6c9.2,6.9,19.9,11.4,30.4,16.3
					c7.9,3.7,17.8,7.1,26.6,5.1c6.7-1.6,13-7.6,15.8-13.9c5.5-12.5-10.3-30-23.1-27.2c-9,1.9-5.8,12.4-1.3,17.3
					c2.4,2.7,7.3,4.7,10.5,2.3c2.6-2,4.2-7.4,2.4-10.3c-1.4-2.2-6.3-4-8.1-1.4c-1.1,1.5-0.8,3.7,1.2,4.4c2.6,0.9,1.2-1,2.4-2.2
					c2.8,1.8,0.3,7.7-3.3,6.9c-3.1-0.8-5.4-5.3-5.3-8.2c0.2-4.3,3.1-5.5,7-5.3c3.8,0.2,5.5,3.2,7,6.4c3,6.1,3.6,15.1-3.7,18.9
					c-7.4,3.8-14.4,0.8-23.8-3.5c-15.7-7.3-29.1-15.8-42.9-26.6c-26-20.2-46.7-47.5-54.6-57C271,205.1,250.6,180.7,246,170.1z"/>
			</g>
			<g>
				<path class="st4" d="M188.8,48.2c5.6-6.5,11-10.9,19.8-10.9c4.3,0,8.8-0.5,12.8,1.1c3.1,1.2,6,5,9.3,5.5
					c1.4-9.6-20.2-9.9-26-8.9c-4.4,0.8-9.1,2.9-12.9,5.5c-1.8,1.3-3.5,2.7-4.2,4.8c-0.3,0.8-1.1,7.3-0.2,7.6c0,0,0.1,0.1,0.1,0.1
					c0.8-2.5,1.4-4.9,3.3-7.1"/>
				<path class="st4" d="M206.9,85.1c0.9,2.7-1.3,11.9,1.6,13c2.6,0.9,2.1-9.2,2.3-11.3c-1-0.7-2.3-1.2-3.6-1"/>
				<path class="st4" d="M215.9,85.8c1.1,3.2-1.2,13.1,4.2,12.8c-0.4-4.9-0.1-9.2,0.3-13.8c-1.6-0.1-2.8,0.8-4.2,1.3"/>
				<path class="st4" d="M315.6,161.4c0.1-2.4-0.8-6,1-7.3c2.1-1.5,5.4,0.5,7.3,1.4c8.3,4.1,16.7,14,20.1,22.7
					c1.6,4.1,3.9,10.8-2.2,10.9c-5.1,0.1-8.7,1.1-13.5,3.4c-3.9,1.8-7.7,4.5-11.6,6.3c-2.7,1.3-2.9,1.3-5.2-0.5
					c-1.6-1.2-3.5-2.8-4.7-4.2c1.7-1.6,3.4-7.7,5.9-5.9c-0.1,2.6-2.9,5.3,1,6.5c7.1-7.9,18.6-5.2,27.4-8.6c1.2-8-8.3-19.5-14.1-23.8
					c-1.1-0.8-3.2-3.7-4.7-3.6c-2,0-1.6,4-2,6c-0.9,4.3-2,9.2-4,13.1c-0.2,0.4-1.8-0.3-2-0.5c-0.7-0.8,0.5-1.1,0.4-1.8
					c-0.1-1.3,0.6-3.1,0.7-4.5C315.6,167.8,315.4,164.6,315.6,161.4z"/>
				<path class="st4" d="M199.4,162.7c0.5-4.2-8.3-9.1-12.2-8.3c-5,1.1-6.9,8.5-6.6,12.9c0.3,6.1,6,9.3,11.2,7.2
					c2-0.8,5.7-2.4,6.4-4.8c1.1-3.9-2.3-2.4-4.5-1.1c-2.4,1.4-5.6,4.8-7.8,1.7c-1.6-2.3,0-7.5,1.8-9.3c3.1-3.1,5.9-0.8,8.1,2
					c3,3.9,3.5,3.1,3.6-1.9"/>
				<path class="st4" d="M213.8,164.1c0.9-1-10.1,0.4-11.5,2.2c-1.4,1.8-1.8,5.2-0.8,7.3c1.4,3,8.7,6.3,11.7,7.7
					c9.7,4.6,10.9-19.8-1.6-17.3c-7.5,1.5,2.9,3.3,3.4,3.9c1.5,1.6,0.4,9.8-1.1,10.3c-2.3,0.9-7.7-2.5-9-4.5
					c-2.5-3.9,4.1-8.1,7.8-7.2c-0.2-1.4,0.6-2.6-4.8-1.8"/>
				<path class="st4" d="M198.7,186.8c0,11.7-0.4,24-4.3,34.7c-2,5.5-4.7,11.6-8,16.5c-4.1,6-9.9,10.7-14.4,16.3
					c-7.9,9.5-19.4,16.1-29.7,22.6c-9.9,6.2-19.6,11.4-30.7,14.6c-8.5,2.5-22.7,5.7-30-1.3c-3.6-3.5-4.4-10.1-3.4-14.9
					c1.2-5.7,6.1-8.4,11.6-8.5c7.4-0.2,13.1,7.5,8.6,14.1c-1.9,2.8-4.6,5.3-7.4,2c-2.5-2.9,0-8.9,3.4-5.3c2.4-2.1-1.1-5-3.6-4.3
					c-2.2,0.7-3.5,4-4,5.9c-1.2,5.3,2.3,9,7.3,9.9c14,2.6,16.5-20,6.6-26c-11-6.6-22.8-1-26.8,10.5c-3.7,10.6-3.5,20.5,7.3,26.7
					c12,6.9,26.7,2.2,38-2.6c11.8-4.9,18.5-7.3,27.4-13.5c13.4-9.4,21.6-14.5,30.4-23.4c8.6-8.8,17-20.6,21.5-32.4
					c2.9-7.8,3-16.8,3.8-25.1c0.4-4-0.2-8.3,0-12.4c0.1-1.7,2-7.1,1-8.5c-1.3-1.7-5.3,1.9-4.8,4.4"/>
				<path class="st4" d="M232.4,113.2c5.4,2.1,9.6,10.2,13.2,14.5c2.6,3.2,5.5,6,8.2,9c1.5,1.6,5.7,5.3,5.3,7.5
					c-4.9,2.3-13.7-11.5-16.2-14.8c-3.5-4.7-10.6-10.2-9.8-16.8"/>
			</g>
		</g>
		<g>
			<path class="st4" d="M200.2,157.8c8,2.1,12.5,2.4,20.2-0.6c4.4-1.7,12.9-9.1,17.1-6c3.6,2.7,7.7,13.6,5.4,17
				c-3.2,4.7-13.9,6.3-18.9,6.3c-2.8,0-7.2,0.2-6.1-3.9c5.1-0.3,12.8-0.6,16.8-4.3c4.5-4.2,0.5-11.3-4.9-8.4c-5.6,3-8.7,5-15.3,5.7
				c-6.2,0.6-10.2-0.2-15.9-1.8c-0.4-1.8,0-3.3,1.6-4c0.8,0.1-0.1-0.4,0.8,0.1"/>
			<path class="st4" d="M308.5,193c-1.2,1.6-4.6,2-7,2.3c-1.4,5.5,7.1,1.5,9.1,1.3c-2.3,1.6-7.2,2.3-6.1,6.4c2.4,0.2,4.5-3,6.8-3.9
				c-1.4,1.3-5.5,6.8-2.9,8c2.7,1.2,4.8-6.3,6.3-7.9C312.8,197.1,309.9,195.7,308.5,193"/>
			<path class="st4" d="M336.2,150.3c-1.2-2.3-4.7,1.6-4.9,4c-0.2,2.9,2.5,5.5,5.3,6.2c7.5,1.8,8-10.7-0.4-9.2
				c-0.1,0.7-0.1,1.4,0,2.1c2.4,0.2,3.7,2,2.9,4.4c-7.3,4.2-3.2-7.1-3.9-7.8"/>
			<path class="st4" d="M348.6,151.6c-1.1-4.6,6.4-5,6.2,0.9c-0.1,4.5-4.7,6.5-8.3,3.5c-9.8-8.2,7.6-16.4,9.2-6.3
				c-2-3.1-8.3-3-9.2,1c-1.2,5.5,6.8,6.5,5.1,1c-0.9,0-1.5-0.7-2.5-0.6c-0.2-0.8,0.1-1.1,0.4-1.7"/>
			<path class="st4" d="M322.8,141.2c-2.6-1.2-7.2,9.3,2,8.9c11.2-0.4-2.6-11-2.3-4.3c1.2-0.3,2.1,0.2,3,0.7c-1.8,3.5-6.9-0.2-3-4.3
				c-0.1-0.6-0.4-0.1-0.7-0.3"/>
			<path class="st4" d="M329.1,136c-3.2,0.9-0.3,6,2.7,3.7c3.5-2.5-0.3-4.8-3.1-3.1"/>
			<path class="st4" d="M319.5,133.3c-4.9,0.6-2.7,7.3,1.3,4.2c3.3-2.5-1-5.8-3.3-3.2"/>
			<path class="st4" d="M333.4,126.7c-2.1-1.4-4.1,3-1.3,3.6c3.2,0.7,3.3-3.8-0.7-3.3"/>
			<path class="st4" d="M346.9,160.7c-2.8,0.7-9.6,3.8-6.4,8.3c3.5,4.9,10.2-0.5,9.3-5.4c-0.3-1.6-2-4.2-3.6-1.7
				c-1.1,1.7,2.2,3.3-0.4,5.2c-2.8,2.1-3.2-0.8-1.6-2.6c0.8-1,4.6-1.6,2.4-3.5"/>
			<path class="st4" d="M354.8,173.3c-0.9-1.8-4.3,2.5-4.6,4.3c-0.5,2.7,1.6,6.7,4.6,6.6c2.9-0.1,5.7-4.3,5.6-6.9
				c-0.1-2.3-2.5-5.3-4.7-3c0.9,1.2,2.3,3,1.6,4.6c-0.9,2.3-3.3,2.2-3.9,0c-0.9-2.9,1.7-2.3,2.7-3.9c1-1.5,0.6-3.4-2-2.1"/>
			<path class="st4" d="M365.1,170.3c-3.9-0.4-4.4,5.9-0.7,6.3c1.7,0.2,3.5-1.2,3.3-3c-0.1-1.4-2.4-2-3-3.3"/>
			<path class="st4" d="M357.5,158.7c-4.6-0.7-4.1,8.1,1.3,6.9c4.8-1,2.9-7.7-1.7-6.9"/>
			<path class="st4" d="M363.4,148.5c-3.6,1.4-6,8.6,0,7.6c5.3-0.9,2.4-8.3-1-6.3"/>
			<path class="st4" d="M368,159.7c-2.7,1.3-1.1,7.3,2.2,4.9c3.4-2.4-0.9-4.6-2.9-4.9"/>
			<path class="st4" d="M360.1,139.3c-3.8,0.7-1.3,6.9,2,4.5c3.2-2.3-0.4-5.4-3.3-4.2"/>
			<path class="st4" d="M315.6,145.5c-1.1,0.1-4.4,1.8-2.7,3.7c1.4,1.6,6.3-1.4,3.4-3.1"/>
			<path class="st4" d="M321.8,141.9c0.4,0.2-0.1-0.2-0.3-0.3c-1.3,1.5-3,5.4-1.6,7.2c1.6,2.1,6.1,1.1,7.6-0.6
				c1.9-2.1,1.4-4.6-1.7-4.7c-2.7-0.1-4.8,3.3-1,2.7c-0.1,1.9-2.2,1.9-3.5,0.9c-0.4-2.1,0.7-3.7,1.2-5.5c-0.6-0.1-1.4-0.2-1.9-0.1"
				/>
			<path class="st4" d="M320.2,132.7c-2.5-0.6-4.5,2.5-2.6,4.2c2.5,2.3,6.5-1.9,2.3-3.6"/>
			<path class="st4" d="M328.4,136.3c-1.3,0-2.4,3.8,0.6,3.3c2.5-0.4,1.5-4.5-0.9-3.3"/>
		</g>
		<path class="st4" d="M340,130c-1.1-2.1-5.2,2.1-5,4.6c0.4,3.3,5,4.5,7.6,3.1c8-4.6-4.9-11.1-4.6-4.4c3.6-3.2,4,3.8-0.3,2.6
			c-1.5-2.2-0.3-3.6,0.9-5.2"/>
		<path class="st4" d="M347.3,136.3c3.6,0.1,7.8,5.3,2.3,6.3c-5.8,1-2.6-8.2-0.3-6"/>
		<path class="st4" d="M334.4,138.9c-5.3,2.7-1,12.7,5.3,8.8c7.1-4.2-2.2-9.9-3.3-5.6c1.4-0.6,2.6-0.4,2.7,1.3
			c0.2,0,0.4,0.1,0.6,0.1c-0.3,2.2-4,3.3-5.2,0.9c-0.7-1.5,2.6-5.4-0.7-4.3"/>
		<path class="st4" d="M205.3,166.3c1.9-3.6-3.7-5.5-6.3-4.2c-2.5,1.3-3.5,6.2-2.6,8.8c3.1,8.9,9.5-0.4,9.3-5c-4.4-1.4-1.1,5.5-5,5
			c-0.5-1.2-1.5-4.6-0.3-5.8c1.8-1.7,3.9,0.8,3.6,2.9"/>
		<path class="st0" d="M201.3,163.9c-2.5,0.6-2.1,5.3-0.8,6.9c0.3,0.4,0.9,0.8,1.3,0.8c0.8,0,0.7-0.5,0.8-1.2c0.2-1.2,1-2.4,1.2-3.6
			c0.1-0.9-0.2-1.7-0.9-2.3c-0.5-0.4-1.6-0.9-2-0.1"/>
	</g>
</g>
</svg>
